<svg width="16" height="16" viewBox="0 0 16 16" fill="none" xmlns="http://www.w3.org/2000/svg">
<path d="M13.7151 0C13.3995 0 13.1437 0.255837 13.1437 0.571439V2.65885C10.2017 -0.189375 5.50791 -0.113371 2.65969 2.82854C1.31739 4.215 0.568563 6.07021 0.572279 7.99998C0.572279 8.31559 0.828116 8.57142 1.14372 8.57142C1.45932 8.57142 1.71512 8.31559 1.71512 7.99998C1.71583 4.52849 4.53057 1.71482 8.0021 1.71552C9.76516 1.71586 11.447 2.45665 12.6374 3.75713L10.106 4.60111C9.80621 4.70086 9.64399 5.02473 9.74374 5.32453C9.84348 5.62433 10.1674 5.78655 10.4671 5.6868L13.8957 4.54396C14.1298 4.46601 14.2874 4.24664 14.2866 3.99997V0.571406C14.2866 0.255837 14.0307 0 13.7151 0Z" fill="#242933"/>
<path d="M14.8578 7.42822C14.5421 7.42822 14.2863 7.68406 14.2863 7.99966C14.2856 11.4712 11.4709 14.2848 7.99934 14.2841C6.23627 14.2838 4.55443 13.543 3.36401 12.2425L5.89542 11.3985C6.19522 11.2988 6.35744 10.9749 6.2577 10.6751C6.15796 10.3753 5.83408 10.2131 5.53429 10.3128L2.10572 11.4557C1.87168 11.5336 1.71408 11.753 1.71485 11.9997V15.4282C1.71485 15.7438 1.97068 15.9997 2.28629 15.9997C2.60189 15.9997 2.85773 15.7438 2.85773 15.4282V13.3408C5.79966 16.189 10.4935 16.113 13.3417 13.1711C14.684 11.7846 15.4328 9.92944 15.4291 7.99966C15.4292 7.68406 15.1734 7.42822 14.8578 7.42822Z" fill="#242933"/>
</svg>
