<svg width="24" height="24" viewBox="0 0 24 24" fill="none" xmlns="http://www.w3.org/2000/svg">
<g clip-path="url(#clip0_12340_108406)">
<path d="M12 7C11.939 7 11.878 6.989 11.82 6.967L5.32 4.467C5.127 4.393 5 4.207 5 4C5 3.793 5.127 3.607 5.32 3.533L11.82 1.033C11.936 0.989 12.063 0.989 12.179 1.033L18.679 3.533C18.873 3.607 19 3.793 19 4C19 4.207 18.873 4.393 18.68 4.467L12.18 6.967C12.122 6.989 12.061 7 12 7ZM6.893 4L12 5.964L17.107 4L12 2.036L6.893 4Z" fill="#F26922"/>
<path d="M12 15C11.939 15 11.878 14.989 11.82 14.967L5.32 12.467C5.127 12.393 5 12.207 5 12V4C5 3.724 5.224 3.5 5.5 3.5C5.776 3.5 6 3.724 6 4V11.657L12 13.965L18 11.657V4C18 3.724 18.224 3.5 18.5 3.5C18.776 3.5 19 3.724 19 4V12C19 12.207 18.873 12.393 18.68 12.467L12.18 14.967C12.122 14.989 12.061 15 12 15Z" fill="#F26922"/>
<path d="M12 15C11.724 15 11.5 14.776 11.5 14.5V6.5C11.5 6.224 11.724 6 12 6C12.276 6 12.5 6.224 12.5 6.5V14.5C12.5 14.776 12.276 15 12 15Z" fill="#F26922"/>
<path d="M10.5002 22.0002C10.3482 22.0002 10.1982 21.9312 10.1002 21.8002C9.93419 21.5792 9.97919 21.2662 10.2002 21.1002L11.6662 20.0002L10.2002 18.9002C9.97919 18.7342 9.93419 18.4212 10.1002 18.2002C10.2662 17.9792 10.5792 17.9352 10.8002 18.1002L12.8002 19.6002C12.9262 19.6942 13.0002 19.8432 13.0002 20.0002C13.0002 20.1572 12.9262 20.3062 12.8002 20.4002L10.8002 21.9002C10.7102 21.9672 10.6052 22.0002 10.5002 22.0002Z" fill="#F26922"/>
<path d="M12 20.5C10.488 20.5 9.057 20.428 7.746 20.287C5.932 20.104 0 19.326 0 17C0 16.051 0.979 15.258 2.908 14.644C3.225 14.546 3.565 14.793 3.565 15.121C3.565 15.363 3.397 15.565 3.169 15.611C1.569 16.126 1 16.681 1 17C1 17.666 3.125 18.816 7.85 19.292C9.128 19.43 10.523 19.5 12 19.5C12.276 19.5 12.5 19.724 12.5 20C12.5 20.276 12.276 20.5 12 20.5Z" fill="#F26922"/>
<path d="M15.4899 20.35C15.2319 20.35 15.0129 20.152 14.9919 19.891C14.9699 19.616 15.1749 19.374 15.4499 19.352C20.5998 18.931 22.9998 17.7 22.9998 17C22.9998 16.678 22.4208 16.117 20.7878 15.597C20.5248 15.513 20.3798 15.232 20.4628 14.969C20.5468 14.706 20.8268 14.561 21.0908 14.644C23.0208 15.258 23.9998 16.051 23.9998 17C23.9998 19.465 17.5178 20.186 15.5309 20.349C15.5169 20.35 15.5029 20.35 15.4899 20.35Z" fill="#F26922"/>
</g>
<defs>
<clipPath id="clip0_12340_108406">
<rect width="24" height="24" fill="white"/>
</clipPath>
</defs>
</svg>
