<svg width="21" height="21" viewBox="0 0 21 21" fill="none" xmlns="http://www.w3.org/2000/svg">
<g clip-path="url(#clip0_5751_44577)">
<path d="M20.6655 4.4008V0.959625H17.2244V2.10668H4.6067V0.959625H1.16553V4.4008H2.31259V17.0184H1.16553V20.4596H4.6067V19.3126H17.2244V20.4596H20.6655V17.0184H19.5185V4.4008H20.6655ZM18.3714 2.10668H19.5185V3.25374H18.3714V2.10668ZM2.31259 2.10668H3.45965V3.25374H2.31259V2.10668ZM3.45965 19.3126H2.31259V18.1655H3.45965V19.3126ZM19.5185 19.3126H18.3714V18.1655H19.5185V19.3126ZM18.3714 17.0184H17.2244V18.1655H4.6067V17.0184H3.45965V4.4008H4.6067V3.25374H17.2244V4.4008H18.3714V17.0184Z" fill="#636366"/>
<path d="M6.04785 9.90009L10.1027 5.84524L10.9137 6.65621L6.85882 10.7111L6.04785 9.90009Z" fill="#636366"/>
<path d="M10.9131 14.7668L14.968 10.7119L15.7789 11.5228L11.7241 15.5777L10.9131 14.7668Z" fill="#636366"/>
<path d="M7.26416 13.5502L13.7519 7.06241L14.5629 7.87338L8.07513 14.3611L7.26416 13.5502Z" fill="#636366"/>
</g>
<defs>
<clipPath id="clip0_5751_44577">
<rect width="20" height="20" fill="white" transform="translate(0.666016 0.959625)"/>
</clipPath>
</defs>
</svg>
