<svg
    xmlns="http://www.w3.org/2000/svg"
    viewBox="0 0 16 16"
    id="vector">
    <path
        id="path"
        d="M 14.445 8.964 L 11.373 8.155 C 11.153 8.098 11 7.899 11 7.672 L 11 7.416 C 11.775 6.97 12.25 6.154 12.25 5.25 C 12.664 5.25 13 4.914 13 4.5 C 13 4.133 12.735 3.826 12.375 3.763 L 12.517 3.433 C 12.774 2.837 12.728 2.15 12.395 1.594 C 12.183 1.241 11.874 0.965 11.5 0.795 L 10.802 0.477 C 10.059 0.139 9.177 0.193 8.475 0.607 C 7.723 0.388 6.877 0.53 6.24 1.008 L 5.877 1.293 C 5.472 1.391 5.12 1.648 4.905 2.007 C 4.629 2.466 4.608 3.026 4.847 3.504 L 5.103 4.015 C 4.76 4.083 4.5 4.387 4.5 4.75 C 4.5 5.163 4.837 5.5 5.25 5.5 C 5.25 6.403 5.725 7.219 6.5 7.666 L 6.5 7.922 C 6.5 8.149 6.347 8.348 6.127 8.405 L 3.054 9.214 C 2.287 9.416 1.75 10.112 1.75 10.906 L 1.75 15.5 C 1.75 15.638 1.862 15.75 2 15.75 L 13.5 15.75 L 15.5 15.75 C 15.638 15.75 15.75 15.638 15.75 15.5 L 15.75 10.656 C 15.75 9.862 15.213 9.166 14.445 8.964 Z M 13.25 15.25 L 2.25 15.25 L 2.25 10.906 C 2.25 10.339 2.633 9.842 3.182 9.697 L 6.255 8.889 C 6.694 8.774 7 8.376 7 7.922 L 7 7.516 C 7 7.421 6.946 7.335 6.861 7.292 C 6.176 6.952 5.75 6.265 5.75 5.5 L 5.75 5.25 C 5.75 5.112 5.638 5 5.5 5 L 5.25 5 C 5.112 5 5 4.888 5 4.75 C 5 4.612 5.112 4.5 5.25 4.5 C 5.391 4.5 5.52 4.428 5.594 4.308 C 5.668 4.188 5.675 4.041 5.612 3.914 L 5.295 3.28 C 5.132 2.955 5.146 2.575 5.333 2.264 C 5.487 2.008 5.743 1.828 6.035 1.77 C 6.074 1.762 6.11 1.746 6.141 1.721 L 6.544 1.404 C 7.125 0.969 7.935 0.881 8.595 1.182 L 9.293 1.5 C 9.574 1.627 9.806 1.835 9.966 2.1 C 10.217 2.519 10.251 3.036 10.058 3.484 L 9.863 3.935 C 9.809 4.061 9.822 4.204 9.897 4.318 C 9.972 4.432 10.098 4.5 10.25 4.5 C 10.388 4.5 10.5 4.612 10.5 4.75 C 10.5 4.888 10.388 5 10.25 5 L 10 5 C 9.862 5 9.75 5.112 9.75 5.25 L 9.75 5.5 C 9.75 6.265 9.324 6.952 8.639 7.292 C 8.554 7.335 8.5 7.421 8.5 7.516 L 8.5 7.922 C 8.5 8.376 8.806 8.773 9.245 8.889 L 12.318 9.697 C 12.867 9.842 13.25 10.339 13.25 10.906 L 13.25 15.25 Z M 15.25 15.25 L 13.75 15.25 L 13.75 10.906 C 13.75 10.112 13.213 9.416 12.445 9.214 L 9.373 8.405 C 9.153 8.348 9 8.149 9 7.922 L 9 7.666 C 9.775 7.22 10.25 6.404 10.25 5.5 C 10.664 5.5 11 5.164 11 4.75 C 11 4.383 10.735 4.077 10.375 4.013 L 10.517 3.683 C 10.774 3.087 10.728 2.4 10.395 1.844 C 10.183 1.491 9.874 1.215 9.5 1.045 L 9.099 0.863 C 9.583 0.698 10.124 0.718 10.595 0.932 L 11.293 1.25 C 11.574 1.378 11.806 1.586 11.966 1.851 C 12.217 2.269 12.251 2.787 12.058 3.235 L 11.863 3.686 C 11.809 3.811 11.822 3.954 11.897 4.068 C 11.972 4.182 12.098 4.25 12.25 4.25 C 12.388 4.25 12.5 4.362 12.5 4.5 C 12.5 4.638 12.388 4.75 12.25 4.75 L 12 4.75 C 11.862 4.75 11.75 4.862 11.75 5 L 11.75 5.25 C 11.75 6.015 11.324 6.702 10.639 7.042 C 10.554 7.085 10.5 7.171 10.5 7.266 L 10.5 7.672 C 10.5 8.126 10.806 8.523 11.245 8.639 L 14.318 9.447 C 14.867 9.592 15.25 10.089 15.25 10.656 L 15.25 15.25 Z"
        fill="#242933"/>
    <path
        id="path_1"
        d="M 1.75 8.5 C 1.75 8.638 1.862 8.75 2 8.75 L 3 8.75 C 3.138 8.75 3.25 8.638 3.25 8.5 L 3.25 7.25 L 4.5 7.25 C 4.638 7.25 4.75 7.138 4.75 7 L 4.75 6 C 4.75 5.862 4.638 5.75 4.5 5.75 L 3.25 5.75 L 3.25 4.5 C 3.25 4.362 3.138 4.25 3 4.25 L 2 4.25 C 1.862 4.25 1.75 4.362 1.75 4.5 L 1.75 5.75 L 0.5 5.75 C 0.362 5.75 0.25 5.862 0.25 6 L 0.25 7 C 0.25 7.138 0.362 7.25 0.5 7.25 L 1.75 7.25 L 1.75 8.5 Z M 0.75 6.75 L 0.75 6.25 L 2 6.25 C 2.138 6.25 2.25 6.138 2.25 6 L 2.25 4.75 L 2.75 4.75 L 2.75 6 C 2.75 6.138 2.862 6.25 3 6.25 L 4.25 6.25 L 4.25 6.75 L 3 6.75 C 2.862 6.75 2.75 6.862 2.75 7 L 2.75 8.25 L 2.25 8.25 L 2.25 7 C 2.25 6.862 2.138 6.75 2 6.75 L 0.75 6.75 Z"
        fill="#242933"/>
</svg>
