<svg width="22" height="21" viewBox="0 0 22 21" fill="none" xmlns="http://www.w3.org/2000/svg">
<path d="M19.2508 15.1066V5.89356C19.7626 5.7624 20.2306 5.49816 20.6072 5.12765C20.9838 4.75714 21.2557 4.29356 21.3953 3.78398C21.5348 3.27441 21.537 2.73698 21.4017 2.22628C21.2663 1.71557 20.9982 1.24978 20.6247 0.87619C20.2511 0.502601 19.7853 0.234523 19.2746 0.0991765C18.7639 -0.0361699 18.2264 -0.0339645 17.7169 0.105569C17.2073 0.245102 16.7437 0.516994 16.3732 0.893636C16.0027 1.27028 15.7384 1.73826 15.6073 2.25006H6.39429C6.26314 1.73826 5.99889 1.27028 5.62838 0.893636C5.25787 0.516994 4.79429 0.245102 4.28472 0.105569C3.77514 -0.0339645 3.23771 -0.0361699 2.72701 0.0991765C2.21631 0.234523 1.75051 0.502601 1.37692 0.87619C1.00333 1.24978 0.735255 1.71557 0.599909 2.22628C0.464563 2.73698 0.466768 3.27441 0.606301 3.78398C0.745834 4.29356 1.01773 4.75714 1.39437 5.12765C1.77101 5.49816 2.23899 5.7624 2.75079 5.89356V15.1066C2.23899 15.2377 1.77101 15.502 1.39437 15.8725C1.01773 16.243 0.745834 16.7066 0.606301 17.2161C0.466768 17.7257 0.464563 18.2631 0.599909 18.7738C0.735255 19.2845 1.00333 19.7503 1.37692 20.1239C1.75051 20.4975 2.21631 20.7656 2.72701 20.9009C3.23771 21.0363 3.77514 21.0341 4.28472 20.8945C4.79429 20.755 5.25787 20.4831 5.62838 20.1065C5.99889 19.7298 6.26314 19.2619 6.39429 18.7501H15.6073C15.7384 19.2619 16.0027 19.7298 16.3732 20.1065C16.7437 20.4831 17.2073 20.755 17.7169 20.8945C18.2264 21.0341 18.7639 21.0363 19.2746 20.9009C19.7853 20.7656 20.2511 20.4975 20.6247 20.1239C20.9982 19.7503 21.2663 19.2845 21.4017 18.7738C21.537 18.2631 21.5348 17.7257 21.3953 17.2161C21.2557 16.7066 20.9838 16.243 20.6072 15.8725C20.2306 15.502 19.7626 15.2377 19.2508 15.1066V15.1066ZM18.5008 1.50006C18.7975 1.50006 19.0875 1.58803 19.3341 1.75285C19.5808 1.91767 19.7731 2.15194 19.8866 2.42603C20.0001 2.70012 20.0298 3.00172 19.972 3.29269C19.9141 3.58366 19.7712 3.85094 19.5614 4.06072C19.3517 4.27049 19.0844 4.41336 18.7934 4.47123C18.5025 4.52911 18.2009 4.49941 17.9268 4.38587C17.6527 4.27234 17.4184 4.08008 17.2536 3.83341C17.0888 3.58674 17.0008 3.29673 17.0008 3.00006C17.0012 2.60235 17.1593 2.22105 17.4406 1.93983C17.7218 1.65862 18.1031 1.50045 18.5008 1.50006V1.50006ZM2.00079 3.00006C2.00079 2.70338 2.08876 2.41337 2.25358 2.1667C2.41841 1.92003 2.65267 1.72777 2.92676 1.61424C3.20085 1.5007 3.50245 1.471 3.79342 1.52888C4.08439 1.58676 4.35167 1.72962 4.56145 1.9394C4.77123 2.14917 4.91409 2.41645 4.97197 2.70742C5.02984 2.99839 5.00014 3.29999 4.88661 3.57408C4.77308 3.84817 4.58082 4.08244 4.33414 4.24726C4.08747 4.41208 3.79746 4.50006 3.50079 4.50006C3.10309 4.49966 2.72179 4.3415 2.44057 4.06028C2.15935 3.77906 2.00119 3.39776 2.00079 3.00006V3.00006ZM3.50079 19.5001C3.20412 19.5001 2.91411 19.4121 2.66743 19.2473C2.42076 19.0824 2.2285 18.8482 2.11497 18.5741C2.00144 18.3 1.97173 17.9984 2.02961 17.7074C2.08749 17.4164 2.23035 17.1492 2.44013 16.9394C2.64991 16.7296 2.91718 16.5868 3.20815 16.5289C3.49912 16.471 3.80072 16.5007 4.07481 16.6142C4.3489 16.7278 4.58317 16.92 4.74799 17.1667C4.91281 17.4134 5.00079 17.7034 5.00079 18.0001C5.00039 18.3978 4.84223 18.7791 4.56101 19.0603C4.27979 19.3415 3.89849 19.4997 3.50079 19.5001V19.5001ZM15.6073 17.2501H6.39429C6.25994 16.7344 5.99048 16.2639 5.61369 15.8871C5.23691 15.5104 4.76643 15.2409 4.25079 15.1066V5.89356C4.7664 5.75914 5.23683 5.48965 5.61361 5.11288C5.99039 4.7361 6.25987 4.26566 6.39429 3.75006H15.6073C15.7416 4.2657 16.0111 4.73617 16.3879 5.11296C16.7647 5.48975 17.2351 5.75921 17.7508 5.89356V15.1066C17.2351 15.2408 16.7646 15.5103 16.3878 15.8871C16.011 16.2639 15.7416 16.7344 15.6073 17.2501ZM18.5008 19.5001C18.2041 19.5001 17.9141 19.4121 17.6674 19.2473C17.4208 19.0824 17.2285 18.8482 17.115 18.5741C17.0014 18.3 16.9717 17.9984 17.0296 17.7074C17.0875 17.4164 17.2303 17.1492 17.4401 16.9394C17.6499 16.7296 17.9172 16.5868 18.2082 16.5289C18.4991 16.471 18.8007 16.5007 19.0748 16.6142C19.3489 16.7278 19.5832 16.92 19.748 17.1667C19.9128 17.4134 20.0008 17.7034 20.0008 18.0001C20.0002 18.3977 19.842 18.7789 19.5608 19.0601C19.2796 19.3412 18.8984 19.4995 18.5008 19.5001V19.5001Z" fill="black" fill-opacity="0.65"/>
</svg>
