<svg width="21" height="21" viewBox="0 0 21 21" fill="none" xmlns="http://www.w3.org/2000/svg">
<mask id="mask0_5751_44564" style="mask-type:alpha" maskUnits="userSpaceOnUse" x="0" y="0" width="21" height="21">
<rect x="0.333008" y="0.959625" width="20" height="20" fill="white"/>
</mask>
<g mask="url(#mask0_5751_44564)">
<path fill-rule="evenodd" clip-rule="evenodd" d="M19.1656 17.0202C19.1656 17.0973 19.1029 17.16 19.0257 17.16H1.64477C1.56766 17.16 1.50488 17.0973 1.50488 17.0202V12.5633C1.50488 12.4863 1.56762 12.4235 1.64477 12.4235H19.0258C19.1029 12.4235 19.1657 12.4863 19.1657 12.5633V17.0202H19.1656ZM2.47656 10.9164C2.47656 10.4577 2.84977 10.0846 3.3084 10.0846H17.3528C17.8114 10.0846 18.1846 10.4578 18.1846 10.9164V11.2542H2.47656V10.9164ZM8.76234 7.88459V8.77654C8.76234 8.8531 8.70008 8.91537 8.62355 8.91537H5.47672C5.40016 8.91537 5.33789 8.85306 5.33789 8.77654V7.88459C5.33789 7.80802 5.4002 7.74576 5.47672 7.74576H8.62355C8.70008 7.74576 8.76234 7.80802 8.76234 7.88459ZM15.3248 7.88459V8.77654C15.3248 8.8531 15.2626 8.91537 15.1861 8.91537H12.0392C11.9627 8.91537 11.9004 8.85306 11.9004 8.77654V7.88459C11.9004 7.80802 11.9627 7.74576 12.0392 7.74576H15.1861C15.2626 7.74576 15.3248 7.80802 15.3248 7.88459ZM3.38965 5.08461C3.38965 4.63632 3.75434 4.27164 4.20262 4.27164H16.4621C16.9104 4.27164 17.2751 4.63632 17.2751 5.08461V8.91535H16.4953V7.88457C16.4953 7.16308 15.9083 6.57609 15.1868 6.57609H12.04C11.3185 6.57609 10.7315 7.16308 10.7315 7.88457V8.91535H9.93316V7.88457C9.93316 7.16308 9.34617 6.57609 8.62473 6.57609H5.47789C4.75637 6.57609 4.16941 7.16308 4.16941 7.88457V8.91535H3.38965V5.08461ZM19.3566 11.2988V10.9179C19.3566 10.2163 18.9934 9.59818 18.4453 9.24076V5.08576C18.4453 3.99255 17.556 3.10318 16.4627 3.10318H4.20328C3.11008 3.10318 2.2207 3.99255 2.2207 5.08576V9.24072C1.67262 9.59814 1.30937 10.2163 1.30937 10.9179V11.2988C0.748164 11.4466 0.333008 11.9583 0.333008 12.5653V17.0221C0.333008 17.7233 0.886992 18.2974 1.58027 18.33V18.8575C1.58027 19.1804 1.84207 19.4423 2.16504 19.4423C2.48801 19.4423 2.74984 19.1804 2.74984 18.8575V18.3316H17.9161V18.8575C17.9161 19.1804 18.178 19.4423 18.5009 19.4423C18.8239 19.4423 19.0858 19.1804 19.0858 18.8575V18.33C19.7791 18.2974 20.333 17.7233 20.333 17.0221V12.5653C20.333 11.9583 19.9179 11.4466 19.3566 11.2988Z" fill="#636366"/>
</g>
</svg>
