<svg width="24" height="17" viewBox="0 0 24 17" fill="none" xmlns="http://www.w3.org/2000/svg">
<path d="M19.5 3.5H9.75V9.15402H8.71153V7.23214C8.71033 6.14324 8.27724 5.09929 7.50728 4.32932C6.73732 3.55934 5.69338 3.12623 4.60448 3.125H2.25V0.125H0.75V16.25H2.25V14.012L21.75 14.168V16.25H23.25V7.25C23.2489 6.25578 22.8534 5.30261 22.1504 4.5996C21.4474 3.89658 20.4942 3.50113 19.5 3.5V3.5ZM2.25 4.625H4.60448C5.29568 4.62578 5.95833 4.9007 6.44708 5.38945C6.93583 5.8782 7.21075 6.54086 7.21153 7.23205V9.15392H2.25V4.625ZM21.75 12.668L2.25 12.512V10.654H21.75V12.668ZM21.75 9.15402H11.25V5H19.5C20.0965 5.00068 20.6684 5.23795 21.0902 5.65976C21.512 6.08157 21.7493 6.65347 21.75 7.25V9.15402Z" fill="black" fill-opacity="0.65"/>
</svg>
