<svg width="20" height="21" viewBox="0 0 20 21" fill="none" xmlns="http://www.w3.org/2000/svg">
<path fill-rule="evenodd" clip-rule="evenodd" d="M18.0873 14.0032H1.91189C1.50357 14.0032 1.17139 13.671 1.17139 13.2627C1.17139 12.8543 1.50357 12.5222 1.91189 12.5222H18.0873C18.4956 12.5222 18.8278 12.8543 18.8278 13.2627C18.8278 13.671 18.4956 14.0032 18.0873 14.0032ZM15.0214 18.7172H4.98451C3.5335 18.7172 2.35303 17.5367 2.35303 16.0857V15.1735H17.6529V16.0857C17.6529 17.5367 16.4724 18.7172 15.0214 18.7172ZM8.75611 2.13153C9.55404 2.13153 10.2032 2.78067 10.2032 3.5786V4.31309H7.30908V3.57864C7.30908 2.78067 7.95818 2.13153 8.75611 2.13153ZM19.9995 13.2612C19.9995 12.2067 19.1417 11.3489 18.0872 11.3489H2.34959V3.53317C2.34959 2.7602 2.97842 2.13141 3.75135 2.13141H5.03607C5.25307 2.13141 5.4601 2.22454 5.60408 2.38692L6.19162 3.04977C6.15646 3.22055 6.13795 3.39743 6.13795 3.57848V4.34704C5.91057 4.42755 5.74736 4.64387 5.74736 4.89887C5.74736 5.22243 6.00967 5.48473 6.33326 5.48473H11.1803C11.5039 5.48473 11.7662 5.22243 11.7662 4.89887C11.7662 4.64387 11.603 4.42755 11.3756 4.34704V3.57848C11.3756 2.13442 10.2008 0.959656 8.75682 0.959656C7.94822 0.959656 7.22424 1.32813 6.74346 1.90583L6.48088 1.60969C6.11467 1.19653 5.58807 0.959656 5.03604 0.959656H3.75135C2.33232 0.959656 1.17783 2.11411 1.17783 3.53317V11.427C1.17783 11.4497 1.17943 11.472 1.18193 11.494C0.488574 11.7814 -0.000488281 12.4651 -0.000488281 13.2612C-0.000488281 14.0557 0.48666 14.7383 1.17783 15.0268V16.0857C1.17783 18.1828 2.88393 19.8889 4.98107 19.8889H5.31592V20.372C5.31592 20.6956 5.57826 20.9579 5.90182 20.9579C6.22537 20.9579 6.48768 20.6956 6.48768 20.372V19.8889H13.5113V20.372C13.5113 20.6956 13.7736 20.9579 14.0972 20.9579C14.4208 20.9579 14.6831 20.6956 14.6831 20.372V19.8889H15.0179C17.115 19.8889 18.8212 18.1828 18.8212 16.0857V15.0268C19.5124 14.7383 19.9995 14.0556 19.9995 13.2612Z" fill="#636366"/>
<path fill-rule="evenodd" clip-rule="evenodd" d="M11.593 9.48032C11.5431 9.23985 11.3482 9.05235 11.1047 9.01532C10.8631 8.9786 10.6169 9.10317 10.5021 9.3186C10.3872 9.5343 10.4199 9.8068 10.5846 9.98809C10.7489 10.169 11.0168 10.2297 11.2427 10.1357C11.4961 10.0303 11.6492 9.75075 11.593 9.48032Z" fill="#636366"/>
<path fill-rule="evenodd" clip-rule="evenodd" d="M9.24929 9.48032C9.19937 9.23981 9.00453 9.05235 8.76101 9.01532C8.51941 8.9786 8.2732 9.10321 8.15839 9.3186C8.04343 9.5343 8.07621 9.8068 8.24081 9.98809C8.40523 10.1691 8.67304 10.2299 8.89898 10.1357C9.15234 10.0301 9.3055 9.75102 9.24929 9.48032Z" fill="#636366"/>
<path fill-rule="evenodd" clip-rule="evenodd" d="M6.90555 9.48032C6.85563 9.23989 6.66067 9.05231 6.41727 9.01532C6.17563 8.9786 5.92946 9.10317 5.81465 9.3186C5.69969 9.5343 5.73243 9.8068 5.89708 9.98809C6.06137 10.169 6.32938 10.2297 6.55524 10.1357C6.8086 10.0304 6.96168 9.75067 6.90555 9.48032Z" fill="#636366"/>
<path fill-rule="evenodd" clip-rule="evenodd" d="M11.6016 7.19268C11.5763 6.94893 11.399 6.74221 11.161 6.68241C10.9242 6.62284 10.6667 6.72127 10.5314 6.92514C10.3965 7.12846 10.4017 7.40295 10.548 7.59916C10.6944 7.79557 10.9541 7.88197 11.1888 7.81057C11.4523 7.73041 11.6296 7.46768 11.6016 7.19268Z" fill="#636366"/>
<path fill-rule="evenodd" clip-rule="evenodd" d="M9.2578 7.19268C9.23249 6.94893 9.05518 6.74225 8.81718 6.6824C8.58018 6.62279 8.32319 6.72146 8.18765 6.92514C8.05202 7.12881 8.05874 7.4024 8.20417 7.59912C8.34952 7.79572 8.61112 7.88213 8.84499 7.811C9.10843 7.73084 9.28573 7.46721 9.2578 7.19268Z" fill="#636366"/>
<path fill-rule="evenodd" clip-rule="evenodd" d="M6.91402 7.19268C6.88874 6.94901 6.71132 6.74221 6.47339 6.68241C6.23663 6.62284 5.97909 6.72127 5.84386 6.92514C5.70851 7.12908 5.71476 7.40217 5.86038 7.59912C6.00573 7.79572 6.2673 7.88213 6.5012 7.811C6.7646 7.73088 6.94191 7.46705 6.91402 7.19268Z" fill="#636366"/>
</svg>
