<svg width="49" height="48" viewBox="0 0 49 48" fill="none" xmlns="http://www.w3.org/2000/svg">
<g clip-path="url(#clip0_14823_128302)">
<path d="M48.5 24C48.5 30.3652 45.9714 36.4697 41.4706 40.9706C36.9697 45.4714 30.8652 48 24.5 48C18.1348 48 12.0303 45.4714 7.52944 40.9706C3.02856 36.4697 0.5 30.3652 0.5 24C0.5 17.6348 3.02856 11.5303 7.52944 7.02944C12.0303 2.52856 18.1348 0 24.5 0C30.8652 0 36.9697 2.52856 41.4706 7.02944C45.9714 11.5303 48.5 17.6348 48.5 24ZM20.87 15.279C20.6457 15.1193 20.3818 15.0244 20.1072 15.0048C19.8325 14.9851 19.5578 15.0414 19.313 15.1675C19.0683 15.2936 18.8629 15.4846 18.7195 15.7197C18.5761 15.9547 18.5002 16.2247 18.5 16.5V31.5C18.5002 31.7753 18.5761 32.0453 18.7195 32.2803C18.8629 32.5154 19.0683 32.7064 19.313 32.8325C19.5578 32.9586 19.8325 33.0149 20.1072 32.9952C20.3818 32.9756 20.6457 32.8807 20.87 32.721L31.37 25.221C31.5644 25.0822 31.7229 24.8991 31.8323 24.6867C31.9417 24.4743 31.9987 24.2389 31.9987 24C31.9987 23.7611 31.9417 23.5257 31.8323 23.3133C31.7229 23.1009 31.5644 22.9178 31.37 22.779L20.87 15.279Z" fill="white" fill-opacity="0.84"/>
</g>
<defs>
<clipPath id="clip0_14823_128302">
<rect width="48" height="48" fill="white" transform="translate(0.5)"/>
</clipPath>
</defs>
</svg>
