<svg width="24" height="18" viewBox="0 0 24 18" fill="none" xmlns="http://www.w3.org/2000/svg">
<path d="M19.5 0C17.8425 0 16.5 1.3425 16.5 3H15V4.5H19.5V3H18C18 2.10675 18.6068 1.5 19.5 1.5C20.3932 1.5 21 2.10675 21 3V7.5H0.75V9H1.641L2.7885 14.6955V14.7188C2.87561 15.1012 3.0592 15.4549 3.32178 15.7462C3.58436 16.0375 3.91717 16.2568 4.2885 16.383L3.75 18H5.25L5.742 16.5H18.258L18.75 18H20.25L19.7108 16.383C20.496 16.143 21.1058 15.513 21.2812 14.7188V14.6955L22.3597 9H23.25V7.5H22.5V3C22.5 1.3425 21.1575 0 19.5 0ZM3.16425 9H20.859L19.8045 14.4142C19.7168 14.739 19.4415 15 19.0545 15H5.016C4.614 15 4.34175 14.7338 4.266 14.3903L3.16425 9Z" fill="black" fill-opacity="0.65"/>
</svg>
