<svg
    xmlns="http://www.w3.org/2000/svg"
    viewBox="0 0 19 16"
    id="vector">
    <path
        id="path"
        d="M 16.542 4.308 L 15.455 4.308 C 15.099 3.461 14.568 2.68 13.896 2.029 C 12.84 1.005 11.473 0.338 10.046 0.15 C 7.682 -0.161 5.365 0.745 3.848 2.572 C 3.413 3.097 3.058 3.684 2.797 4.308 L 1.706 4.308 C 0.834 4.308 0.124 5.018 0.124 5.89 L 0.124 8 C 0.124 8.872 0.834 9.582 1.706 9.582 L 3.867 9.582 L 3.641 8.891 C 2.982 6.876 3.354 4.819 4.66 3.246 C 5.943 1.699 7.906 0.933 9.909 1.196 C 12.417 1.526 14.448 3.496 14.848 5.987 C 15.121 7.687 14.645 9.404 13.543 10.7 C 12.438 11.998 10.83 12.743 9.132 12.746 C 8.256 12.747 7.542 13.457 7.542 14.328 C 7.542 15.2 8.252 15.91 9.124 15.91 C 9.997 15.91 10.706 15.2 10.706 14.328 L 10.706 13.615 C 12.111 13.282 13.388 12.508 14.346 11.383 C 14.811 10.837 15.181 10.233 15.453 9.582 L 16.542 9.582 C 17.415 9.582 18.124 8.872 18.124 8 L 18.124 5.89 C 18.124 5.018 17.415 4.308 16.542 4.308 Z M 2.447 8.527 L 1.706 8.527 C 1.415 8.527 1.179 8.29 1.179 8 L 1.179 5.89 C 1.179 5.6 1.415 5.363 1.706 5.363 L 2.453 5.363 C 2.434 5.442 2.417 5.521 2.401 5.601 C 2.209 6.566 2.224 7.547 2.447 8.527 Z M 9.652 14.328 C 9.652 14.619 9.415 14.855 9.124 14.855 C 8.834 14.855 8.597 14.619 8.597 14.328 C 8.597 14.037 8.838 13.801 9.134 13.8 C 9.307 13.8 9.48 13.793 9.652 13.78 L 9.652 14.328 Z M 17.07 8 C 17.07 8.29 16.833 8.527 16.542 8.527 L 15.795 8.527 C 16.004 7.646 16.037 6.737 15.889 5.82 C 15.865 5.667 15.834 5.514 15.799 5.363 L 16.542 5.363 C 16.833 5.363 17.07 5.6 17.07 5.89 L 17.07 8 Z"
        fill="#4a4a4a"/>
    <path
        id="path_1"
        d="M 6.487 6.418 L 7.542 6.418 L 7.542 7.472 L 6.487 7.472 L 6.487 6.418 Z"
        fill="#4a4a4a"/>
    <path
        id="path_2"
        d="M 8.597 6.418 L 9.652 6.418 L 9.652 7.472 L 8.597 7.472 L 8.597 6.418 Z"
        fill="#4a4a4a"/>
    <path
        id="path_3"
        d="M 10.706 6.418 L 11.761 6.418 L 11.761 7.472 L 10.706 7.472 L 10.706 6.418 Z"
        fill="#4a4a4a"/>
    <path
        id="path_4"
        d="M 4.378 10.636 L 4.378 11.691 L 9.124 11.691 C 11.741 11.691 13.87 9.562 13.87 6.945 C 13.87 4.328 11.741 2.199 9.124 2.199 C 6.507 2.199 4.378 4.328 4.378 6.945 C 4.378 8.012 4.736 9.043 5.392 9.877 C 5.265 10.321 4.859 10.636 4.378 10.636 Z M 9.124 3.254 C 11.16 3.254 12.816 4.91 12.816 6.945 C 12.816 8.98 11.16 10.636 9.124 10.636 L 6.205 10.636 C 6.357 10.375 6.451 10.082 6.479 9.776 L 6.499 9.55 L 6.35 9.38 C 5.758 8.707 5.433 7.842 5.433 6.945 C 5.433 4.91 7.089 3.254 9.124 3.254 Z"
        fill="#4a4a4a"/>
</svg>
