<svg width="16" height="16" viewBox="0 0 16 16" fill="none" xmlns="http://www.w3.org/2000/svg">
<path fill-rule="evenodd" clip-rule="evenodd" d="M15.174 7.94586C15.174 11.8839 11.9816 15.0763 8.04352 15.0763C4.10549 15.0763 0.913086 11.8839 0.913086 7.94586C0.913086 4.00783 4.10549 0.81543 8.04352 0.81543C11.9816 0.81543 15.174 4.00783 15.174 7.94586ZM11.6358 5.24492C11.3747 4.98386 10.9515 4.98386 10.6904 5.24492C10.6841 5.25122 10.6782 5.2579 10.6727 5.26491L7.57772 9.20861L5.71176 7.34265C5.4507 7.08159 5.02744 7.08159 4.76639 7.34265C4.50533 7.60371 4.50533 8.02696 4.76639 8.28802L7.12518 10.6468C7.38623 10.9079 7.80949 10.9079 8.07055 10.6468C8.07636 10.641 8.08185 10.6349 8.08698 10.6284L11.6453 6.18061C11.8968 5.91887 11.8936 5.50277 11.6358 5.24492Z" fill="white"/>
</svg>
