<svg
    xmlns="http://www.w3.org/2000/svg"
    viewBox="0 0 18 19"
    id="vector">
    <path
        id="path"
        d="M 17.637 17.833 L 14.525 17.833 L 14.506 8.925 C 14.505 8.725 14.343 8.563 14.143 8.563 C 14.143 8.563 14.143 8.563 14.142 8.563 C 13.942 8.563 13.78 8.726 13.781 8.926 L 13.8 17.833 L 12.747 17.833 L 12.738 13.87 C 12.737 13.67 12.575 13.508 12.375 13.508 C 12.375 13.508 12.374 13.508 12.374 13.508 C 12.174 13.508 12.012 13.671 12.012 13.871 L 12.022 17.833 L 11.142 17.833 L 11.142 13.036 C 12.168 12.945 12.974 12.102 12.974 11.078 L 12.974 7.564 C 12.974 7.006 12.856 6.458 12.629 5.953 C 13.345 6 14.011 6.292 14.524 6.787 C 15.085 7.328 15.395 8.049 15.397 8.815 L 15.403 10.879 C 15.404 11.078 15.566 11.24 15.766 11.24 C 15.766 11.24 15.767 11.24 15.767 11.24 C 15.967 11.239 16.129 11.076 16.128 10.876 L 16.122 8.813 C 16.12 7.849 15.731 6.944 15.028 6.265 C 14.626 5.877 14.149 5.59 13.629 5.416 C 13.997 5.065 14.227 4.57 14.226 4.023 C 14.224 2.966 13.364 2.109 12.308 2.109 C 12.306 2.109 12.305 2.109 12.304 2.109 C 11.996 2.109 11.69 2.185 11.419 2.326 C 11.242 2.419 11.173 2.638 11.266 2.816 C 11.359 2.993 11.578 3.062 11.755 2.969 C 11.926 2.88 12.111 2.834 12.305 2.834 C 12.964 2.833 13.499 3.366 13.501 4.024 C 13.502 4.682 12.968 5.218 12.31 5.22 C 12.295 5.22 12.279 5.221 12.264 5.223 C 12.245 5.224 12.226 5.225 12.206 5.226 C 11.683 4.509 10.947 3.989 10.11 3.725 C 10.555 3.335 10.836 2.763 10.836 2.127 C 10.836 0.954 9.882 0 8.709 0 C 7.537 0 6.582 0.954 6.582 2.127 C 6.582 2.794 6.892 3.39 7.374 3.781 C 6.606 4.058 5.932 4.555 5.443 5.224 C 5.385 5.221 5.328 5.22 5.271 5.22 C 5.244 5.22 5.217 5.22 5.19 5.221 C 5.183 5.22 5.177 5.22 5.17 5.22 C 4.512 5.22 3.977 4.684 3.977 4.027 C 3.977 3.369 4.512 2.833 5.17 2.833 C 5.369 2.833 5.566 2.883 5.739 2.978 C 5.915 3.073 6.135 3.008 6.23 2.832 C 6.326 2.656 6.261 2.436 6.085 2.341 C 5.806 2.189 5.489 2.108 5.17 2.108 C 4.112 2.108 3.252 2.969 3.252 4.027 C 3.252 4.603 3.507 5.12 3.91 5.471 C 2.54 6 1.568 7.302 1.568 8.821 L 1.568 10.877 C 1.568 11.078 1.73 11.24 1.931 11.24 C 2.131 11.24 2.293 11.078 2.293 10.877 L 2.293 8.821 C 2.293 7.318 3.494 6.081 5.017 5.956 C 4.791 6.461 4.673 7.007 4.673 7.564 L 4.673 11.078 C 4.673 12.122 5.512 12.978 6.567 13.04 L 6.567 17.833 L 5.58 17.833 L 5.58 13.87 C 5.58 13.67 5.417 13.508 5.217 13.508 C 5.017 13.508 4.854 13.67 4.854 13.87 L 4.854 17.833 L 3.963 17.833 L 3.963 8.929 C 3.963 8.729 3.801 8.567 3.601 8.567 C 3.401 8.567 3.238 8.729 3.238 8.929 L 3.238 17.833 L 0.362 17.833 C 0.162 17.833 0 17.995 0 18.196 C 0 18.396 0.162 18.558 0.362 18.558 L 17.637 18.558 C 17.838 18.558 18 18.396 18 18.196 C 18 17.995 17.838 17.833 17.637 17.833 Z M 7.308 2.127 C 7.308 1.354 7.936 0.725 8.709 0.725 C 9.482 0.725 10.111 1.354 10.111 2.127 C 10.111 2.9 9.482 3.528 8.709 3.528 C 7.936 3.528 7.308 2.9 7.308 2.127 Z M 10.779 7.324 C 10.579 7.324 10.416 7.487 10.416 7.687 L 10.416 17.833 L 9.125 17.833 L 9.125 12.79 C 9.125 12.589 8.963 12.427 8.763 12.427 C 8.563 12.427 8.4 12.589 8.4 12.79 L 8.4 17.833 L 7.292 17.833 L 7.292 7.687 C 7.292 7.487 7.13 7.324 6.93 7.324 C 6.729 7.324 6.567 7.487 6.567 7.687 L 6.567 12.313 C 5.912 12.254 5.398 11.722 5.398 11.078 L 5.398 7.564 C 5.398 6.937 5.581 6.326 5.926 5.798 C 6.558 4.831 7.642 4.253 8.824 4.253 C 10.008 4.253 11.092 4.833 11.724 5.803 C 12.068 6.33 12.249 6.939 12.249 7.564 L 12.249 11.078 C 12.249 11.702 11.767 12.22 11.142 12.306 L 11.142 7.687 C 11.142 7.487 10.979 7.324 10.779 7.324 Z"
        fill="#4a4a4a"/>
</svg>
