<svg width="16" height="16" viewBox="0 0 16 16" fill="none" xmlns="http://www.w3.org/2000/svg">
<mask id="path-1-inside-1_1733_44127" fill="white">
<path fill-rule="evenodd" clip-rule="evenodd" d="M8.04352 14.185C11.4893 14.185 14.2827 11.3916 14.2827 7.94586C14.2827 4.50009 11.4893 1.70673 8.04352 1.70673C4.59774 1.70673 1.80439 4.50009 1.80439 7.94586C1.80439 11.3916 4.59774 14.185 8.04352 14.185ZM8.04352 15.0763C11.9816 15.0763 15.174 11.8839 15.174 7.94586C15.174 4.00783 11.9816 0.81543 8.04352 0.81543C4.10549 0.81543 0.913086 4.00783 0.913086 7.94586C0.913086 11.8839 4.10549 15.0763 8.04352 15.0763Z"/>
</mask>
<path fill-rule="evenodd" clip-rule="evenodd" d="M8.04352 14.185C11.4893 14.185 14.2827 11.3916 14.2827 7.94586C14.2827 4.50009 11.4893 1.70673 8.04352 1.70673C4.59774 1.70673 1.80439 4.50009 1.80439 7.94586C1.80439 11.3916 4.59774 14.185 8.04352 14.185ZM8.04352 15.0763C11.9816 15.0763 15.174 11.8839 15.174 7.94586C15.174 4.00783 11.9816 0.81543 8.04352 0.81543C4.10549 0.81543 0.913086 4.00783 0.913086 7.94586C0.913086 11.8839 4.10549 15.0763 8.04352 15.0763Z" fill="white"/>
<path d="M13.2827 7.94586C13.2827 10.8394 10.937 13.185 8.04352 13.185V15.185C12.0416 15.185 15.2827 11.9439 15.2827 7.94586H13.2827ZM8.04352 2.70673C10.937 2.70673 13.2827 5.05237 13.2827 7.94586H15.2827C15.2827 3.9478 12.0416 0.706734 8.04352 0.706734V2.70673ZM2.80439 7.94586C2.80439 5.05237 5.15003 2.70673 8.04352 2.70673V0.706734C4.04546 0.706734 0.80439 3.9478 0.80439 7.94586H2.80439ZM8.04352 13.185C5.15003 13.185 2.80439 10.8394 2.80439 7.94586H0.80439C0.80439 11.9439 4.04546 15.185 8.04352 15.185V13.185ZM14.174 7.94586C14.174 11.3316 11.4293 14.0763 8.04352 14.0763V16.0763C12.5338 16.0763 16.174 12.4362 16.174 7.94586H14.174ZM8.04352 1.81543C11.4293 1.81543 14.174 4.56012 14.174 7.94586H16.174C16.174 3.45555 12.5338 -0.18457 8.04352 -0.18457V1.81543ZM1.91309 7.94586C1.91309 4.56012 4.65778 1.81543 8.04352 1.81543V-0.18457C3.55321 -0.18457 -0.0869141 3.45555 -0.0869141 7.94586H1.91309ZM8.04352 14.0763C4.65778 14.0763 1.91309 11.3316 1.91309 7.94586H-0.0869141C-0.0869141 12.4362 3.55321 16.0763 8.04352 16.0763V14.0763Z" fill="white" mask="url(#path-1-inside-1_1733_44127)"/>
</svg>
