<svg width="29" height="28" viewBox="0 0 29 28" fill="none" xmlns="http://www.w3.org/2000/svg">
<path d="M14.5007 0.0626526C6.81565 0.0626526 0.562653 6.31565 0.562653 14.0007C0.562653 21.6867 6.81465 27.9387 14.5007 27.9387C22.1867 27.9387 28.4387 21.6867 28.4387 14.0007C28.4387 6.31565 22.1867 0.0626526 14.5007 0.0626526ZM21.2267 11.7017L13.2197 19.7957C13.2177 19.7977 13.2137 19.7987 13.2117 19.8017C13.2087 19.8037 13.2087 19.8077 13.2057 19.8097C13.1417 19.8717 13.0627 19.9097 12.9887 19.9517C12.9517 19.9727 12.9217 20.0047 12.8827 20.0197C12.7627 20.0677 12.6357 20.0927 12.5087 20.0927C12.3807 20.0927 12.2517 20.0677 12.1307 20.0177C12.0907 20.0007 12.0587 19.9667 12.0207 19.9457C11.9467 19.9037 11.8697 19.8667 11.8057 19.8037C11.8037 19.8017 11.8027 19.7977 11.8007 19.7957C11.7987 19.7927 11.7947 19.7927 11.7927 19.7897L7.85465 15.7427C7.46965 15.3467 7.47865 14.7137 7.87465 14.3287C8.27065 13.9447 8.90265 13.9517 9.28865 14.3487L12.5157 17.6647L19.8057 10.2947C20.1937 9.90165 20.8277 9.89765 21.2197 10.2867C21.6107 10.6757 21.6147 11.3087 21.2267 11.7017Z" fill="#CED4DA"/>
</svg>
