<svg width="24" height="24" viewBox="0 0 24 24" fill="none" xmlns="http://www.w3.org/2000/svg">
<path d="M12.0004 1.54688C6.23663 1.54688 1.54688 6.23663 1.54688 12.0004C1.54688 17.7649 6.23588 22.4539 12.0004 22.4539C17.7649 22.4539 22.4539 17.7649 22.4539 12.0004C22.4539 6.23663 17.7649 1.54688 12.0004 1.54688ZM17.0449 10.2761L11.0396 16.3466C11.0381 16.3481 11.0351 16.3489 11.0336 16.3511C11.0314 16.3526 11.0314 16.3556 11.0291 16.3571C10.9811 16.4036 10.9219 16.4321 10.8664 16.4636C10.8386 16.4794 10.8161 16.5034 10.7869 16.5146C10.6969 16.5506 10.6016 16.5694 10.5064 16.5694C10.4104 16.5694 10.3136 16.5506 10.2229 16.5131C10.1929 16.5004 10.1689 16.4749 10.1404 16.4591C10.0849 16.4276 10.0271 16.3999 9.97913 16.3526C9.97763 16.3511 9.97688 16.3481 9.97538 16.3466C9.97388 16.3444 9.97088 16.3444 9.96938 16.3421L7.01588 13.3069C6.72713 13.0099 6.73387 12.5351 7.03087 12.2464C7.32788 11.9584 7.80188 11.9636 8.09138 12.2614L10.5116 14.7484L15.9791 9.22088C16.2701 8.92613 16.7456 8.92313 17.0396 9.21488C17.3329 9.50663 17.3359 9.98138 17.0449 10.2761Z" fill="#28BD76"/>
</svg>
