<svg width="24" height="19" viewBox="0 0 24 19" fill="none" xmlns="http://www.w3.org/2000/svg">
<path d="M18.854 9.41748C21.1367 9.41748 23.0708 7.5 23.0708 5.20068C23.0708 2.88477 21.1616 0.983887 18.854 0.983887C16.5381 0.983887 14.6372 2.88477 14.6372 5.20068C14.6372 7.5166 16.5381 9.41748 18.854 9.41748ZM7.46533 14.7217H17.1523C17.4761 14.7217 17.7583 14.4561 17.7583 14.0991C17.7583 13.7422 17.4761 13.4766 17.1523 13.4766H7.60645C7.1333 13.4766 6.85107 13.1445 6.76807 12.6382L6.63525 11.7666H17.1689C18.0322 11.7666 18.5967 11.3931 18.8872 10.729L18.9536 10.5547C15.8823 10.5464 13.4917 8.18066 13.4917 5.20068C13.4917 4.95166 13.5083 4.70264 13.5415 4.45361H5.57275L5.40674 3.39941C5.31543 2.76025 5.09131 2.43652 4.24463 2.43652H1.33105C0.999023 2.43652 0.716797 2.72705 0.716797 3.05908C0.716797 3.39941 0.999023 3.68994 1.33105 3.68994H4.13672L5.46484 12.8042C5.63916 13.9829 6.26172 14.7217 7.46533 14.7217ZM18.854 7.84033C18.5469 7.84033 18.3394 7.63281 18.3394 7.33398V5.70703H16.7207C16.4136 5.70703 16.2144 5.50781 16.2144 5.20068C16.2144 4.89355 16.4136 4.69434 16.7207 4.69434H18.3394V3.06738C18.3394 2.76855 18.5469 2.56104 18.854 2.56104C19.1611 2.56104 19.3604 2.76855 19.3604 3.06738V4.69434H20.979C21.2861 4.69434 21.4937 4.89355 21.4937 5.20068C21.4937 5.50781 21.2861 5.70703 20.979 5.70703H19.3604V7.33398C19.3604 7.63281 19.1611 7.84033 18.854 7.84033ZM6.76807 17.4111C6.76807 18.1665 7.36572 18.7559 8.12109 18.7559C8.86816 18.7559 9.46582 18.1665 9.46582 17.4111C9.46582 16.6641 8.86816 16.0664 8.12109 16.0664C7.36572 16.0664 6.76807 16.6641 6.76807 17.4111ZM14.5293 17.4111C14.5293 18.1665 15.1353 18.7559 15.8823 18.7559C16.6377 18.7559 17.2354 18.1665 17.2354 17.4111C17.2354 16.6641 16.6377 16.0664 15.8823 16.0664C15.1353 16.0664 14.5293 16.6641 14.5293 17.4111Z" fill="#F17423"/>
</svg>
