<svg width="24" height="24" viewBox="0 0 24 24" fill="none" xmlns="http://www.w3.org/2000/svg">
<path d="M1.54688 12.0004C1.54688 6.23663 6.23663 1.54688 12.0004 1.54688C17.7649 1.54688 22.4539 6.23663 22.4539 12.0004C22.4539 17.7649 17.7649 22.4539 12.0004 22.4539C6.23588 22.4539 1.54688 17.7649 1.54688 12.0004Z" fill="#DC3545"/>
<path fill-rule="evenodd" clip-rule="evenodd" d="M7.68829 7.68829C7.93934 7.43724 8.34637 7.43724 8.59743 7.68829L12 11.0909L15.4026 7.68829C15.6536 7.43724 16.0607 7.43724 16.3117 7.68829C16.5628 7.93934 16.5628 8.34637 16.3117 8.59743L12.9091 12L16.3117 15.4026C16.5628 15.6536 16.5628 16.0607 16.3117 16.3117C16.0607 16.5628 15.6536 16.5628 15.4026 16.3117L12 12.9091L8.59743 16.3117C8.34637 16.5628 7.93934 16.5628 7.68829 16.3117C7.43724 16.0607 7.43724 15.6536 7.68829 15.4026L11.0909 12L7.68829 8.59743C7.43724 8.34637 7.43724 7.93934 7.68829 7.68829Z" fill="white"/>
</svg>
