<svg width="18" height="18" viewBox="0 0 18 18" fill="none" xmlns="http://www.w3.org/2000/svg">
<circle cx="9" cy="9" r="9" fill="#A5A4A5"/>
<path d="M9.45894 9.00045L12.9051 5.55094C12.9659 5.48984 13 5.40714 12.9999 5.32095C12.9999 5.23476 12.9657 5.1521 12.9048 5.09108C12.7829 4.96984 12.5683 4.96923 12.4452 5.0917L9 8.54121L5.55355 5.09078C5.43108 4.96984 5.21646 4.97046 5.09461 5.09139C5.06437 5.12151 5.04042 5.15736 5.02418 5.19684C5.00794 5.23631 4.99972 5.27863 5.00001 5.32132C5.00001 5.40827 5.03368 5.4897 5.09461 5.55002L8.54076 9.00015L5.09492 12.4506C5.03411 12.5118 5.00006 12.5946 5.00023 12.6809C5.0004 12.7671 5.03478 12.8498 5.09584 12.9107C5.15492 12.9692 5.23851 13.0029 5.32484 13.0029H5.32668C5.41332 13.0026 5.49691 12.9686 5.55477 12.9095L9 9.46L12.4465 12.9104C12.5074 12.9711 12.5888 13.0047 12.6752 13.0047C12.7179 13.0049 12.7601 12.9965 12.7996 12.9803C12.8391 12.964 12.8749 12.9401 12.9051 12.9099C12.9353 12.8797 12.9592 12.8438 12.9755 12.8044C12.9918 12.7649 13.0001 12.7226 13 12.6799C13 12.5933 12.9663 12.5115 12.9051 12.4512L9.45894 9.00045Z" fill="white"/>
</svg>
