<svg width="10" height="10" viewBox="0 0 10 10" fill="none" xmlns="http://www.w3.org/2000/svg">
<path d="M4.46564 1.0652L0.721941 4.80889C0.426671 5.10416 0.426671 5.58304 0.721941 5.87831C1.01721 6.17358 1.49609 6.17358 1.79136 5.87831L4.99998 2.66968L8.20858 5.87831C8.50385 6.17358 8.98273 6.17358 9.278 5.87831C9.57327 5.58304 9.57327 5.10416 9.278 4.80889L5.53431 1.0652C5.23978 0.769933 4.76091 0.769933 4.46564 1.0652ZM4.23894 5.56656L1.1064 8.53872C0.792027 8.83737 0.792027 9.32111 1.1064 9.61976C1.42077 9.91841 1.93075 9.91841 2.24551 9.61976L4.8085 7.18791L7.37149 9.61976C7.68587 9.91841 8.19621 9.91841 8.5106 9.61976C8.82498 9.32111 8.82498 8.83737 8.5106 8.53872L5.37805 5.56656C5.06368 5.2679 4.5537 5.2679 4.23894 5.56656Z" fill="#007AFF"/>
</svg>
