<svg width="9" height="9" viewBox="0 0 9 9" fill="none" xmlns="http://www.w3.org/2000/svg">
<g clip-path="url(#clip0_12340_108680)">
<path d="M8.77855 3.96564L5.03486 0.221941C4.73959 -0.0733292 4.26071 -0.0733292 3.96544 0.221941C3.67017 0.51721 3.67017 0.996092 3.96544 1.29136L7.17407 4.49998L3.96544 7.70858C3.67017 8.00385 3.67017 8.48273 3.96544 8.778C4.26071 9.07327 4.73959 9.07327 5.03486 8.778L8.77855 5.03431C9.07382 4.73978 9.07382 4.26091 8.77855 3.96564ZM4.27719 3.73894L1.30503 0.606399C1.00638 0.292027 0.522641 0.292027 0.223989 0.606399C-0.074663 0.920771 -0.074663 1.43075 0.223989 1.74551L2.65584 4.3085L0.223989 6.87149C-0.074663 7.18587 -0.074663 7.69621 0.223989 8.0106C0.522641 8.32498 1.00638 8.32498 1.30503 8.0106L4.27719 4.87805C4.57585 4.56368 4.57585 4.0537 4.27719 3.73894Z" fill="#155AA9"/>
</g>
<defs>
<clipPath id="clip0_12340_108680">
<rect width="9" height="9" fill="white"/>
</clipPath>
</defs>
</svg>
