<svg width="10" height="10" viewBox="0 0 10 10" fill="none" xmlns="http://www.w3.org/2000/svg">
<path d="M5.53433 9.6223L9.27803 5.87861C9.5733 5.58334 9.5733 5.10446 9.27803 4.80919C8.98276 4.51392 8.50388 4.51392 8.20861 4.80919L4.99999 8.01782L1.79139 4.80919C1.49612 4.51392 1.01724 4.51392 0.721971 4.80919C0.426701 5.10446 0.426701 5.58334 0.721971 5.87861L4.46566 9.6223C4.76019 9.91757 5.23906 9.91757 5.53433 9.6223ZM5.76103 5.12094L8.89357 2.14878C9.20794 1.85013 9.20794 1.36639 8.89357 1.06774C8.5792 0.769087 8.06922 0.769087 7.75446 1.06774L5.19147 3.49959L2.62848 1.06774C2.3141 0.769087 1.80376 0.769087 1.48937 1.06774C1.17499 1.36639 1.17499 1.85013 1.48937 2.14878L4.62192 5.12094C4.93629 5.4196 5.44627 5.4196 5.76103 5.12094Z" fill="#007AFF"/>
</svg>
