<svg width="24" height="25" viewBox="0 0 24 25" fill="none" xmlns="http://www.w3.org/2000/svg">
<path d="M20.4939 4.9592L14.9997 20.8314C14.9479 20.9809 14.8503 21.1101 14.7206 21.2008C14.591 21.2914 14.436 21.3387 14.2779 21.3359C14.1198 21.3332 13.9665 21.2805 13.8401 21.1855C13.7137 21.0904 13.6206 20.9578 13.5741 20.8066L11.3658 13.6295C11.3298 13.5126 11.2658 13.4063 11.1793 13.3198C11.0928 13.2333 10.9864 13.1692 10.8695 13.1333L3.6924 10.9249C3.54123 10.8784 3.40863 10.7853 3.31356 10.6589C3.2185 10.5325 3.16582 10.3793 3.16308 10.2211C3.16033 10.063 3.20765 9.90802 3.29827 9.77838C3.38888 9.64875 3.51817 9.55109 3.66763 9.49935L19.5398 4.00513C19.6728 3.95909 19.8161 3.9514 19.9533 3.98295C20.0904 4.0145 20.216 4.08401 20.3155 4.18354C20.415 4.28306 20.4845 4.40858 20.5161 4.54575C20.5476 4.68292 20.5399 4.8262 20.4939 4.9592V4.9592Z" stroke="black" stroke-opacity="0.65" stroke-width="1.5" stroke-linecap="round" stroke-linejoin="round"/>
</svg>
