<svg width="20" height="20" viewBox="0 0 20 20" fill="none" xmlns="http://www.w3.org/2000/svg">
<path d="M10 7.45455C8.59364 7.45455 7.45455 8.59364 7.45455 10C7.45455 11.4064 8.59364 12.5455 10 12.5455C11.4064 12.5455 12.5455 11.4064 12.5455 10C12.5455 8.59364 11.4064 7.45455 10 7.45455ZM15.6891 9.36364C15.5449 8.07317 14.9663 6.87007 14.0481 5.9519C13.1299 5.03372 11.9268 4.45505 10.6364 4.31091V3H9.36364V4.31091C8.07317 4.45505 6.87007 5.03372 5.9519 5.9519C5.03372 6.87007 4.45505 8.07317 4.31091 9.36364H3V10.6364H4.31091C4.45505 11.9268 5.03372 13.1299 5.9519 14.0481C6.87007 14.9663 8.07317 15.5449 9.36364 15.6891V17H10.6364V15.6891C11.9268 15.5449 13.1299 14.9663 14.0481 14.0481C14.9663 13.1299 15.5449 11.9268 15.6891 10.6364H17V9.36364H15.6891ZM10 14.4545C7.53727 14.4545 5.54545 12.4627 5.54545 10C5.54545 7.53727 7.53727 5.54545 10 5.54545C12.4627 5.54545 14.4545 7.53727 14.4545 10C14.4545 12.4627 12.4627 14.4545 10 14.4545Z" fill="#242933"/>
</svg>
