<svg width="34" height="34" viewBox="0 0 34 34" fill="none" xmlns="http://www.w3.org/2000/svg">
<circle cx="17" cy="17" r="17" fill="#EFF0F6"/>
<path d="M23.6664 17.444C23.6079 17.4444 23.5499 17.4332 23.4957 17.4111C23.4416 17.3889 23.3923 17.3563 23.3508 17.3152L16.9997 10.9596L10.6486 17.3152C10.5636 17.388 10.4542 17.426 10.3423 17.4217C10.2305 17.4174 10.1244 17.371 10.0452 17.2919C9.96606 17.2127 9.91969 17.1066 9.91537 16.9947C9.91105 16.8829 9.9491 16.7735 10.0219 16.6885L16.6886 10.0218C16.7718 9.93904 16.8845 9.89258 17.0019 9.89258C17.1193 9.89258 17.232 9.93904 17.3152 10.0218L23.9819 16.6885C24.0431 16.7509 24.0845 16.8299 24.101 16.9157C24.1175 17.0015 24.1083 17.0903 24.0746 17.1709C24.041 17.2515 23.9843 17.3204 23.9117 17.369C23.839 17.4176 23.7537 17.4437 23.6664 17.444Z" fill="#0072EF"/>
<path d="M17.0003 12.4619L11.667 17.813V23.2219C11.667 23.4577 11.7606 23.6838 11.9273 23.8505C12.094 24.0171 12.3201 24.1108 12.5559 24.1108H15.667V19.6664H18.3337V24.1108H21.4448C21.6805 24.1108 21.9066 24.0171 22.0733 23.8505C22.24 23.6838 22.3337 23.4577 22.3337 23.2219V17.7819L17.0003 12.4619Z" fill="#0072EF"/>
</svg>
