<svg width="21" height="22" viewBox="0 0 21 22" fill="none" xmlns="http://www.w3.org/2000/svg">
<path fill-rule="evenodd" clip-rule="evenodd" d="M10.5 20.5312C15.5741 20.5312 19.6875 16.4179 19.6875 11.3438C19.6875 6.26963 15.5741 2.15625 10.5 2.15625C5.42588 2.15625 1.3125 6.26963 1.3125 11.3438C1.3125 16.4179 5.42588 20.5312 10.5 20.5312ZM10.5 21.8438C16.299 21.8438 21 17.1427 21 11.3438C21 5.54476 16.299 0.84375 10.5 0.84375C4.70101 0.84375 0 5.54476 0 11.3438C0 17.1427 4.70101 21.8438 10.5 21.8438Z" fill="#242933"/>
<path fill-rule="evenodd" clip-rule="evenodd" d="M9.84375 11.0719V2.15625H11.1562V10.6875H19.6875V12H10.7718L4.40154 18.3703L3.47346 17.4422L9.84375 11.0719Z" fill="#242933"/>
</svg>
