<svg width="13" height="13" viewBox="0 0 13 13" fill="none" xmlns="http://www.w3.org/2000/svg">
<path d="M7.13359 2.16665L9.74984 4.7829V10.8333H3.24984V2.16665H7.13359ZM7.58317 1.08331H3.24984C2.654 1.08331 2.1665 1.57081 2.1665 2.16665V10.8333C2.1665 11.4291 2.654 11.9166 3.24984 11.9166H9.74984C10.3457 11.9166 10.8332 11.4291 10.8332 10.8333V4.33331L7.58317 1.08331ZM8.12484 5.95831H5.95817V6.49998H7.58317C7.88109 6.49998 8.12484 6.74373 8.12484 7.04165V8.66665C8.12484 8.96456 7.88109 9.20831 7.58317 9.20831H7.0415V9.74998H5.95817V9.20831H4.87484V8.12498H7.0415V7.58331H5.4165C5.11859 7.58331 4.87484 7.33956 4.87484 7.04165V5.41665C4.87484 5.11873 5.11859 4.87498 5.4165 4.87498H5.95817V4.33331H7.0415V4.87498H8.12484V5.95831Z" fill="#C4C4C4"/>
</svg>
