<svg width="24" height="25" viewBox="0 0 24 25" fill="none" xmlns="http://www.w3.org/2000/svg">
<g clip-path="url(#clip0_4666_44406)">
<path d="M5.55469 3L5.55469 23H13.7578L13.7578 3L5.55469 3ZM6.72656 4.17188H7.89844L7.89844 21.8281H6.72656L6.72656 4.17188ZM12.5859 5.35352H10.2422V6.52539H12.5859V7.70703H11.4141V8.87891H12.5859V10.0605H10.2422V11.2324H12.5859V12.4141H11.4141V13.5859H12.5859V14.7676H10.2422V15.9395H12.5859V17.1211H11.4141V18.293H12.5859L12.5859 19.4746H10.2422V20.6465H12.5859V21.8281H9.07031V4.17188H12.5859V5.35352Z" fill="#636366"/>
<path d="M18.4453 21.8281H17.2734V4.17188H18.4453V3H14.9297V4.17188H16.1016V21.8281H14.9297V23H18.4453V21.8281Z" fill="#636366"/>
</g>
<defs>
<clipPath id="clip0_4666_44406">
<rect width="20" height="20" fill="white" transform="translate(2 3)"/>
</clipPath>
</defs>
</svg>
