<svg width="21" height="22" viewBox="0 0 21 22" fill="none" xmlns="http://www.w3.org/2000/svg">
<path fill-rule="evenodd" clip-rule="evenodd" d="M19.0312 4.78125H1.96875C1.60631 4.78125 1.3125 5.07506 1.3125 5.4375V17.25C1.3125 17.6124 1.60631 17.9062 1.96875 17.9062H19.0312C19.3937 17.9062 19.6875 17.6124 19.6875 17.25V5.4375C19.6875 5.07506 19.3937 4.78125 19.0312 4.78125ZM1.96875 3.46875C0.881439 3.46875 0 4.35019 0 5.4375V17.25C0 18.3373 0.881439 19.2188 1.96875 19.2188H19.0312C20.1186 19.2188 21 18.3373 21 17.25V5.4375C21 4.35019 20.1186 3.46875 19.0312 3.46875H1.96875Z" fill="#242933"/>
<path fill-rule="evenodd" clip-rule="evenodd" d="M9.18752 8.0625C9.18752 7.70006 9.48134 7.40625 9.84377 7.40625H16.4063C16.7687 7.40625 17.0625 7.70006 17.0625 8.0625C17.0625 8.42494 16.7687 8.71875 16.4063 8.71875H9.84377C9.48134 8.71875 9.18752 8.42494 9.18752 8.0625Z" fill="#242933"/>
<path fill-rule="evenodd" clip-rule="evenodd" d="M7.22344 6.94221C7.47972 7.19849 7.47972 7.61401 7.22344 7.87029L5.25469 9.83904C4.99841 10.0953 4.58289 10.0953 4.32661 9.83904L3.67036 9.18279C3.41408 8.92651 3.41408 8.51099 3.67036 8.25471C3.92664 7.99843 4.34216 7.99843 4.59844 8.25471L4.79065 8.44692L6.29536 6.94221C6.55164 6.68593 6.96716 6.68593 7.22344 6.94221Z" fill="#242933"/>
<path fill-rule="evenodd" clip-rule="evenodd" d="M9.18752 13.3125C9.18752 12.9501 9.48134 12.6562 9.84377 12.6562H16.4063C16.7687 12.6562 17.0625 12.9501 17.0625 13.3125C17.0625 13.6749 16.7687 13.9688 16.4063 13.9688H9.84377C9.48134 13.9688 9.18752 13.6749 9.18752 13.3125Z" fill="#242933"/>
<path fill-rule="evenodd" clip-rule="evenodd" d="M7.22344 12.1922C7.47972 12.4485 7.47972 12.864 7.22344 13.1203L5.25469 15.089C4.99841 15.3453 4.58289 15.3453 4.32661 15.089L3.67036 14.4328C3.41408 14.1765 3.41408 13.761 3.67036 13.5047C3.92664 13.2484 4.34216 13.2484 4.59844 13.5047L4.79065 13.6969L6.29536 12.1922C6.55164 11.9359 6.96716 11.9359 7.22344 12.1922Z" fill="#242933"/>
</svg>
