<svg width="32" height="33" viewBox="0 0 32 33" fill="none" xmlns="http://www.w3.org/2000/svg">
<path d="M13.9999 5.5C13.9999 6.82608 13.4731 8.09785 12.5354 9.03553C11.5978 9.97322 10.326 10.5 8.99991 10.5C7.67382 10.5 6.40205 9.97322 5.46437 9.03553C4.52669 8.09785 3.99991 6.82608 3.99991 5.5C3.99991 4.17392 4.52669 2.90215 5.46437 1.96447C6.40205 1.02678 7.67382 0.5 8.99991 0.5C10.326 0.5 11.5978 1.02678 12.5354 1.96447C13.4731 2.90215 13.9999 4.17392 13.9999 5.5ZM22.4499 13.606C22.2624 13.512 22.05 13.4795 21.8429 13.5128C21.6358 13.5462 21.4444 13.6439 21.2959 13.792L13.8759 23.212L8.55591 17.668C8.36383 17.5401 8.13343 17.4826 7.90378 17.5052C7.67414 17.5278 7.45937 17.6291 7.29591 17.792L0.00390625 26.5V30.5C0.00390625 31.0304 0.21462 31.5391 0.589693 31.9142C0.964765 32.2893 1.47347 32.5 2.00391 32.5H30.0039C30.2665 32.5 30.5266 32.4483 30.7693 32.3478C31.0119 32.2472 31.2324 32.0999 31.4181 31.9142C31.6038 31.7285 31.7512 31.508 31.8517 31.2654C31.9522 31.0227 32.0039 30.7626 32.0039 30.5V21.5L22.4499 13.606Z" fill="#BBC7CD"/>
<path fill-rule="evenodd" clip-rule="evenodd" d="M26 1.5C26.2652 1.5 26.5196 1.60536 26.7071 1.79289C26.8946 1.98043 27 2.23478 27 2.5V5.5H30C30.2652 5.5 30.5196 5.60536 30.7071 5.79289C30.8946 5.98043 31 6.23478 31 6.5C31 6.76522 30.8946 7.01957 30.7071 7.20711C30.5196 7.39464 30.2652 7.5 30 7.5H27V10.5C27 10.7652 26.8946 11.0196 26.7071 11.2071C26.5196 11.3946 26.2652 11.5 26 11.5C25.7348 11.5 25.4804 11.3946 25.2929 11.2071C25.1054 11.0196 25 10.7652 25 10.5V7.5H22C21.7348 7.5 21.4804 7.39464 21.2929 7.20711C21.1054 7.01957 21 6.76522 21 6.5C21 6.23478 21.1054 5.98043 21.2929 5.79289C21.4804 5.60536 21.7348 5.5 22 5.5H25V2.5C25 2.23478 25.1054 1.98043 25.2929 1.79289C25.4804 1.60536 25.7348 1.5 26 1.5Z" fill="#155AA9"/>
</svg>
