<svg width="24" height="25" viewBox="0 0 24 25" fill="none" xmlns="http://www.w3.org/2000/svg">
<path fill-rule="evenodd" clip-rule="evenodd" d="M18.7517 6.25H5.25171C4.63039 6.25 4.12671 6.75368 4.12671 7.375V17.5L7.10396 14.8523C7.29356 14.6627 7.59063 14.6333 7.81373 14.782L10.805 16.7762L14.979 12.6023C15.1502 12.4311 15.4117 12.3886 15.6283 12.4969L19.8767 14.6875V7.375C19.8767 6.75368 19.373 6.25 18.7517 6.25ZM5.25171 5.125C4.00907 5.125 3.00171 6.13236 3.00171 7.375V18.625C3.00171 19.8676 4.00907 20.875 5.25171 20.875H18.7517C19.9944 20.875 21.0017 19.8676 21.0017 18.625V7.375C21.0017 6.13236 19.9944 5.125 18.7517 5.125H5.25171ZM9.75171 10.1875C9.75171 11.1195 8.99619 11.875 8.06421 11.875C7.13223 11.875 6.37671 11.1195 6.37671 10.1875C6.37671 9.25552 7.13223 8.5 8.06421 8.5C8.99619 8.5 9.75171 9.25552 9.75171 10.1875Z" fill="#636366"/>
</svg>
