<svg width="24" height="25" viewBox="0 0 24 25" fill="none" xmlns="http://www.w3.org/2000/svg">
<path d="M19.0711 8.21429L14.0711 3.21429C13.9282 3.07143 13.7853 3 13.5711 3H6.42821C5.64249 3 4.99963 3.64286 4.99963 4.42857V21.5714C4.99963 22.3571 5.64249 23 6.42821 23H17.8568C18.6425 23 19.2853 22.3571 19.2853 21.5714V8.71429C19.2853 8.5 19.2139 8.35714 19.0711 8.21429ZM13.5711 4.71429L17.5711 8.71429H13.5711V4.71429ZM17.8568 21.5714H6.42821V4.42857H12.1425V8.71429C12.1425 9.5 12.7853 10.1429 13.5711 10.1429H17.8568V21.5714Z" fill="#636366"/>
<path d="M8.25 16.75H15.75V18H8.25V16.75Z" fill="#636366"/>
<path d="M8.25 13H15.75V14.25H8.25V13Z" fill="#636366"/>
</svg>
