<svg width="24" height="25" viewBox="0 0 24 25" fill="none" xmlns="http://www.w3.org/2000/svg">
<path fill-rule="evenodd" clip-rule="evenodd" d="M5.25 0.84375C5.66421 0.84375 6 1.17954 6 1.59375V2.34375H18V1.59375C18 1.17954 18.3358 0.84375 18.75 0.84375C19.1642 0.84375 19.5 1.17954 19.5 1.59375V2.34375H21C22.6569 2.34375 24 3.6869 24 5.34375V21.8438C24 23.5006 22.6569 24.8438 21 24.8438H3C1.34315 24.8438 0 23.5006 0 21.8438V5.34375C0 3.6869 1.34315 2.34375 3 2.34375H4.5V1.59375C4.5 1.17954 4.83579 0.84375 5.25 0.84375ZM1.5 6.84375V21.8438C1.5 22.6722 2.17157 23.3438 3 23.3438H21C21.8284 23.3438 22.5 22.6722 22.5 21.8438V6.84375H1.5Z" fill="#6C6C70"/>
<path d="M16.5 10.5938C16.5 10.1795 16.8358 9.84375 17.25 9.84375H18.75C19.1642 9.84375 19.5 10.1795 19.5 10.5938V12.0938C19.5 12.508 19.1642 12.8438 18.75 12.8438H17.25C16.8358 12.8438 16.5 12.508 16.5 12.0938V10.5938Z" fill="#6C6C70"/>
</svg>
