<svg width="24" height="25" viewBox="0 0 24 25" fill="none" xmlns="http://www.w3.org/2000/svg">
<path fill-rule="evenodd" clip-rule="evenodd" d="M12 21.75C16.8325 21.75 20.75 17.8325 20.75 13C20.75 8.16751 16.8325 4.25 12 4.25C7.16751 4.25 3.25 8.16751 3.25 13C3.25 17.8325 7.16751 21.75 12 21.75ZM22 13C22 18.5228 17.5228 23 12 23C6.47715 23 2 18.5228 2 13C2 7.47715 6.47715 3 12 3C17.5228 3 22 7.47715 22 13Z" fill="#636366"/>
<path fill-rule="evenodd" clip-rule="evenodd" d="M11.375 6.75C11.7202 6.75 12 7.02982 12 7.375V13.8873L16.0601 16.2073C16.3598 16.3786 16.4639 16.7604 16.2927 17.0601C16.1214 17.3598 15.7396 17.4639 15.4399 17.2927L11.0649 14.7927C10.8702 14.6814 10.75 14.4743 10.75 14.25V7.375C10.75 7.02982 11.0298 6.75 11.375 6.75Z" fill="#636366"/>
</svg>
