<svg width="24" height="25" viewBox="0 0 24 25" fill="none" xmlns="http://www.w3.org/2000/svg">
<path d="M19.6182 13.8954H16.65C16.2186 13.8954 15.8688 14.2451 15.8688 14.6766C15.8688 15.1081 16.2186 15.4579 16.65 15.4579H17.7327L13.985 19.2054C13.6799 19.5105 13.6799 20.0052 13.985 20.3103C14.2901 20.6153 14.7847 20.6154 15.0898 20.3103L18.8375 16.5627V17.6453C18.8375 18.0768 19.1873 18.4266 19.6188 18.4266C20.0503 18.4266 20.4 18.0768 20.4 17.6453V14.6766C20.4 14.6765 20.4 14.6764 20.4 14.6763C20.3998 14.2517 20.0548 13.895 19.6182 13.8954Z" fill="#636366"/>
<path d="M21.2188 5.14844H16.6094C16.1779 5.14844 15.8282 5.4982 15.8282 5.92969V9.75781H12C11.5686 9.75781 11.2188 10.1076 11.2188 10.5391V14.3672H7.39066C6.95918 14.3672 6.60941 14.717 6.60941 15.1484V18.9766H2.78125C2.34977 18.9766 2 19.3263 2 19.7578C2 20.1893 2.34977 20.5391 2.78125 20.5391H7.39066C7.59785 20.5391 7.7966 20.4568 7.94309 20.3102C8.08961 20.1637 8.17191 19.965 8.17191 19.7578L8.17188 15.9297H12C12.2072 15.9297 12.406 15.8474 12.5525 15.7009C12.699 15.5544 12.7813 15.3556 12.7813 15.1484L12.7812 11.3203H16.6094C16.8166 11.3203 17.0153 11.238 17.1618 11.0915C17.3083 10.945 17.3906 10.7463 17.3906 10.5391L17.3906 6.71094H21.2188C21.6502 6.71094 22 6.36117 22 5.92969C22 5.4982 21.6502 5.14844 21.2188 5.14844Z" fill="#636366"/>
</svg>
