<svg width="12" height="12" viewBox="0 0 12 12" fill="none" xmlns="http://www.w3.org/2000/svg">
<path d="M8.64583 7.7181V3.13477C8.64583 2.77009 8.50097 2.42036 8.24311 2.16249C7.98524 1.90463 7.63551 1.75977 7.27083 1.75977H2.6875C2.32283 1.75977 1.97309 1.90463 1.71523 2.16249C1.45737 2.42036 1.3125 2.77009 1.3125 3.13477V7.7181C1.3125 8.08277 1.45737 8.43251 1.71523 8.69037C1.97309 8.94823 2.32283 9.0931 2.6875 9.0931H7.27083C7.63551 9.0931 7.98524 8.94823 8.24311 8.69037C8.50097 8.43251 8.64583 8.08277 8.64583 7.7181ZM2.22917 3.13477C2.22917 3.01321 2.27746 2.89663 2.36341 2.81068C2.44936 2.72472 2.56594 2.67643 2.6875 2.67643H7.27083C7.39239 2.67643 7.50897 2.72472 7.59492 2.81068C7.68088 2.89663 7.72917 3.01321 7.72917 3.13477V5.1331L7.23417 4.63352C7.01416 4.41346 6.71575 4.28981 6.40458 4.28977C6.09361 4.29081 5.79557 4.41431 5.575 4.63352L5.15792 5.0506L4.78667 4.67935C4.53547 4.43219 4.19719 4.29367 3.84479 4.29367C3.49239 4.29367 3.15411 4.43219 2.90292 4.67935L2.22917 5.35768V3.13477ZM2.28417 7.92435C2.24882 7.8613 2.22991 7.79037 2.22917 7.7181V6.65018L3.54917 5.33018C3.58792 5.29124 3.63399 5.26034 3.68472 5.23926C3.73545 5.21817 3.78985 5.20732 3.84479 5.20732C3.89973 5.20732 3.95413 5.21817 4.00486 5.23926C4.05559 5.26034 4.10166 5.29124 4.14042 5.33018L4.52083 5.70143L2.28417 7.92435ZM6.22583 5.28435C6.24845 5.25949 6.27607 5.2397 6.30688 5.22627C6.33768 5.21285 6.37098 5.20608 6.40458 5.20643C6.43819 5.20608 6.47149 5.21285 6.50229 5.22627C6.5331 5.2397 6.56072 5.25949 6.58333 5.28435L7.72917 6.4256V7.7181C7.72917 7.83966 7.68088 7.95624 7.59492 8.04219C7.50897 8.12814 7.39239 8.17643 7.27083 8.17643H3.32917L6.22583 5.28435ZM10.0208 3.5931C9.89928 3.5931 9.7827 3.64139 9.69674 3.72734C9.61079 3.8133 9.5625 3.92987 9.5625 4.05143V8.63477C9.5625 8.99944 9.41763 9.34918 9.15977 9.60704C8.90191 9.8649 8.55217 10.0098 8.1875 10.0098H3.60417C3.48261 10.0098 3.36603 10.0581 3.28008 10.144C3.19412 10.23 3.14583 10.3465 3.14583 10.4681C3.14583 10.5897 3.19412 10.7062 3.28008 10.7922C3.36603 10.8781 3.48261 10.9264 3.60417 10.9264H8.1875C8.79529 10.9264 9.37818 10.685 9.80795 10.2552C10.2377 9.82545 10.4792 9.24255 10.4792 8.63477V4.05143C10.4792 3.92987 10.4309 3.8133 10.3449 3.72734C10.259 3.64139 10.1424 3.5931 10.0208 3.5931Z" fill="#CCCCCC"/>
</svg>
