<svg width="12" height="12" viewBox="0 0 12 12" fill="none" xmlns="http://www.w3.org/2000/svg">
<path d="M5.99909 5.82524L5.89688 5.92608L5.79422 5.82524C5.60344 5.6369 5.34615 5.53129 5.07807 5.53129C4.80999 5.53129 4.5527 5.6369 4.36192 5.82524C4.26724 5.91633 4.19192 6.02559 4.14047 6.14648C4.08902 6.26737 4.0625 6.3974 4.0625 6.52879C4.0625 6.66017 4.08902 6.7902 4.14047 6.91109C4.19192 7.03198 4.26724 7.14124 4.36192 7.23233L5.89688 8.73979L7.43184 7.23233C7.52652 7.14124 7.60185 7.03198 7.6533 6.91109C7.70475 6.7902 7.73126 6.66017 7.73126 6.52879C7.73126 6.3974 7.70475 6.26737 7.6533 6.14648C7.60185 6.02559 7.52652 5.91633 7.43184 5.82524C7.24099 5.63687 6.98362 5.53125 6.71547 5.53125C6.44731 5.53125 6.18994 5.63687 5.99909 5.82524Z" fill="#F17423"/>
<path d="M10.3448 5.66563L6.21978 1.54063C6.17725 1.49803 6.12674 1.46424 6.07114 1.44118C6.01553 1.41812 5.95593 1.40625 5.89574 1.40625C5.83554 1.40625 5.77594 1.41812 5.72034 1.44118C5.66473 1.46424 5.61422 1.49803 5.57169 1.54063L1.44669 5.66563C1.38261 5.72973 1.33898 5.81139 1.3213 5.90029C1.30362 5.98918 1.3127 6.08132 1.34738 6.16506C1.38207 6.2488 1.4408 6.32037 1.51615 6.37073C1.59151 6.4211 1.6801 6.44799 1.77074 6.44801H2.22907V9.65634C2.22907 10.1619 2.64019 10.573 3.14574 10.573H8.64574C9.15128 10.573 9.5624 10.1619 9.5624 9.65634V6.44801H10.0207C10.1114 6.44799 10.2 6.4211 10.2753 6.37073C10.3507 6.32037 10.4094 6.2488 10.4441 6.16506C10.4788 6.08132 10.4878 5.98918 10.4702 5.90029C10.4525 5.81139 10.4089 5.72973 10.3448 5.66563ZM8.64619 9.65634H3.14574V5.26322L5.89574 2.51322L8.64574 5.26322V7.36468L8.64619 9.65634Z" fill="#F17423"/>
</svg>
