<svg width="24" height="25" viewBox="0 0 24 25" fill="none" xmlns="http://www.w3.org/2000/svg">
<path d="M16.9222 6.34778C18.2689 6.34778 19.4611 7.09156 20.0778 8.30445L20.6156 9.4789H21.4233C21.7311 9.4789 22 9.75245 22 10.0656C22 10.3787 21.7311 10.6534 21.4222 10.6534L20.8456 10.6511V19.8478C20.8409 20.4169 20.6167 20.9614 20.2212 21.364C19.8257 21.7666 19.2906 21.995 18.7311 22H5.26889C4.70925 21.9953 4.17384 21.767 3.7781 21.3644C3.38236 20.9618 3.15798 20.4171 3.15333 19.8478V10.6511L2.57667 10.6522C2.44237 10.6486 2.31325 10.5988 2.21034 10.5109C2.10744 10.4231 2.03682 10.3023 2.01 10.1684L2 10.0656C2 9.75245 2.26889 9.47777 2.57778 9.47777H3.34667L3.92333 8.30445C4.21881 7.71292 4.67026 7.21671 5.22717 6.87135C5.78407 6.52598 6.42446 6.34509 7.07667 6.34891L16.9222 6.34778ZM19.6922 10.6511H4.30667V19.8478C4.30667 20.3949 4.73111 20.8255 5.26889 20.8255H18.7311C19.2689 20.8255 19.6922 20.396 19.6922 19.8478V10.6511ZM16.9233 7.52223H7.07667C6.15444 7.52223 5.34667 8.0309 4.96111 8.85267L4.65333 9.4789H19.3467L19.0389 8.85267C18.6156 8.0309 17.8078 7.52223 16.9233 7.52223ZM16.9233 7.91334C17.6533 7.91334 18.3078 8.38244 18.5389 9.08666H5.46111C5.57555 8.74329 5.79325 8.44523 6.08338 8.23466C6.37351 8.0241 6.72139 7.91168 7.07778 7.91334H16.9233ZM13.7311 4C14.0389 4 14.3078 4.27468 14.3078 4.58779C14.3078 4.9009 14.0389 5.17445 13.73 5.17445H10.2689C10.1169 5.17071 9.9722 5.10755 9.86481 4.99809C9.75742 4.88862 9.69561 4.74128 9.69222 4.58666C9.69222 4.27468 9.96111 4 10.27 4H13.7311Z" fill="#636366"/>
</svg>
