<svg width="16" height="17" viewBox="0 0 16 17" fill="none" xmlns="http://www.w3.org/2000/svg">
<g clip-path="url(#clip0_4479_39076)">
<path d="M13.3107 3.12566C12.0893 1.35784 10.1534 0.34375 7.99994 0.34375C5.84647 0.34375 3.91063 1.35784 2.68916 3.12566C1.47369 4.88453 1.19303 7.11131 1.93691 9.07866C2.13588 9.61591 2.45216 10.1379 2.87472 10.627L7.57403 16.1468C7.68032 16.2717 7.83603 16.3438 7.99994 16.3438C8.16385 16.3438 8.31957 16.2718 8.42585 16.1468L13.1238 10.6285C13.5483 10.1366 13.8642 9.61516 14.0615 9.08222C14.8068 7.11131 14.5262 4.88453 13.3107 3.12566ZM13.0138 8.69041C12.8617 9.10159 12.6133 9.50813 12.2759 9.89916C12.275 9.90009 12.2741 9.90103 12.2733 9.90216L7.99994 14.9215L3.72394 9.899C3.38678 9.50831 3.13838 9.10181 2.98472 8.68669C2.36953 7.05966 2.603 5.21853 3.60944 3.76194C4.61903 2.30069 6.21941 1.46263 7.99994 1.46263C9.78044 1.46263 11.3806 2.30066 12.3903 3.76194C13.3969 5.21853 13.6305 7.05966 13.0138 8.69041Z" fill="#6A6D74"/>
<path d="M7.99985 3.66321C6.27247 3.66321 4.86697 5.06852 4.86697 6.79608C4.86697 8.52365 6.27229 9.92896 7.99985 9.92896C9.72741 9.92896 11.1327 8.52365 11.1327 6.79608C11.1327 5.06871 9.72722 3.66321 7.99985 3.66321ZM7.99985 8.81005C6.88935 8.81005 5.98585 7.90655 5.98585 6.79605C5.98585 5.68555 6.88935 4.78205 7.99985 4.78205C9.11035 4.78205 10.0138 5.68555 10.0138 6.79605C10.0138 7.90655 9.11035 8.81005 7.99985 8.81005Z" fill="#6A6D74"/>
</g>
<defs>
<clipPath id="clip0_4479_39076">
<rect width="16" height="16" fill="white" transform="translate(0 0.34375)"/>
</clipPath>
</defs>
</svg>
