<svg width="24" height="25" viewBox="0 0 24 25" fill="none" xmlns="http://www.w3.org/2000/svg">
<path fill-rule="evenodd" clip-rule="evenodd" d="M12 4.25C9.92893 4.25 8.25 5.92893 8.25 8C8.25 10.0711 9.92893 11.75 12 11.75C14.0711 11.75 15.75 10.0711 15.75 8C15.75 5.92893 14.0711 4.25 12 4.25ZM7 8C7 5.23858 9.23858 3 12 3C14.7614 3 17 5.23858 17 8C17 10.5498 15.0914 12.6538 12.625 12.9613V19.875C12.625 20.2202 12.3452 20.5 12 20.5C11.6548 20.5 11.375 20.2202 11.375 19.875V12.9613C8.90856 12.6538 7 10.5498 7 8ZM10.1166 18.7178C10.173 19.0583 9.94268 19.3801 9.60214 19.4365C8.71283 19.5838 8.00322 19.8048 7.53429 20.0519C7.29952 20.1756 7.15275 20.2915 7.07148 20.3836C7.03248 20.4278 7.01448 20.4598 7.00659 20.478C7.00274 20.4869 7.00122 20.4926 7.00061 20.4954C7.00003 20.4981 7 20.4994 7 20.5C7 20.5005 6.99994 20.5031 7.00191 20.5096C7.00403 20.5166 7.00927 20.5303 7.02192 20.5509C7.04845 20.5941 7.10255 20.6591 7.2039 20.739C7.41026 20.9016 7.7476 21.0754 8.22017 21.2329C9.15876 21.5458 10.4952 21.75 12 21.75C13.5048 21.75 14.8412 21.5458 15.7798 21.2329C16.2524 21.0754 16.5897 20.9016 16.7961 20.739C16.8975 20.6591 16.9515 20.5941 16.9781 20.5509C16.9907 20.5303 16.996 20.5166 16.9981 20.5096C17 20.5033 17 20.5006 17 20.5001V20.5C17 20.4994 17 20.4981 16.9994 20.4954C16.9988 20.4926 16.9973 20.4869 16.9934 20.478C16.9855 20.4598 16.9675 20.4278 16.9285 20.3836C16.8472 20.2915 16.7005 20.1756 16.4657 20.0519C15.9968 19.8048 15.2872 19.5838 14.3979 19.4365C14.0573 19.3801 13.827 19.0583 13.8834 18.7178C13.9398 18.3773 14.2616 18.1469 14.6021 18.2033C15.565 18.3628 16.4179 18.6138 17.0484 18.946C17.6261 19.2504 18.25 19.7518 18.25 20.5C18.25 21.0325 17.9257 21.4403 17.5698 21.7207C17.2069 22.0068 16.7205 22.237 16.1751 22.4188C15.0779 22.7845 13.6018 23 12 23C10.3982 23 8.92213 22.7845 7.82488 22.4188C7.27952 22.237 6.7931 22.0068 6.43018 21.7207C6.07431 21.4403 5.75 21.0325 5.75 20.5C5.75 19.7518 6.3739 19.2504 6.9516 18.946C7.58213 18.6138 8.43502 18.3628 9.39786 18.2033C9.7384 18.1469 10.0602 18.3773 10.1166 18.7178Z" fill="#636366"/>
</svg>
