<svg width="21" height="22" viewBox="0 0 21 22" fill="none" xmlns="http://www.w3.org/2000/svg">
<path fill-rule="evenodd" clip-rule="evenodd" d="M0 6.09375C0 4.644 1.17525 3.46875 2.625 3.46875H18.375C19.8247 3.46875 21 4.644 21 6.09375V16.5938C21 18.0435 19.8247 19.2188 18.375 19.2188H2.625C1.17525 19.2188 0 18.0435 0 16.5938V6.09375ZM3.28125 7.40625C2.91881 7.40625 2.625 7.70006 2.625 8.0625V9.375C2.625 9.73744 2.91881 10.0312 3.28125 10.0312H5.90625C6.26869 10.0312 6.5625 9.73744 6.5625 9.375V8.0625C6.5625 7.70006 6.26869 7.40625 5.90625 7.40625H3.28125ZM3.28125 11.3438C2.91881 11.3438 2.625 11.6376 2.625 12C2.625 12.3624 2.91881 12.6562 3.28125 12.6562H9.84375C10.2062 12.6562 10.5 12.3624 10.5 12C10.5 11.6376 10.2062 11.3438 9.84375 11.3438H3.28125ZM3.28125 13.9688C2.91881 13.9688 2.625 14.2626 2.625 14.625C2.625 14.9874 2.91881 15.2812 3.28125 15.2812H4.59375C4.95619 15.2812 5.25 14.9874 5.25 14.625C5.25 14.2626 4.95619 13.9688 4.59375 13.9688H3.28125ZM7.21875 13.9688C6.85631 13.9688 6.5625 14.2626 6.5625 14.625C6.5625 14.9874 6.85631 15.2812 7.21875 15.2812H8.53125C8.89369 15.2812 9.1875 14.9874 9.1875 14.625C9.1875 14.2626 8.89369 13.9688 8.53125 13.9688H7.21875ZM11.1562 13.9688C10.7938 13.9688 10.5 14.2626 10.5 14.625C10.5 14.9874 10.7938 15.2812 11.1562 15.2812H12.4688C12.8312 15.2812 13.125 14.9874 13.125 14.625C13.125 14.2626 12.8312 13.9688 12.4688 13.9688H11.1562ZM15.0938 13.9688C14.7313 13.9688 14.4375 14.2626 14.4375 14.625C14.4375 14.9874 14.7313 15.2812 15.0938 15.2812H16.4062C16.7687 15.2812 17.0625 14.9874 17.0625 14.625C17.0625 14.2626 16.7687 13.9688 16.4062 13.9688H15.0938Z" fill="#6A6D74"/>
</svg>
