<svg width="24" height="25" viewBox="0 0 24 25" fill="none" xmlns="http://www.w3.org/2000/svg">
<path fill-rule="evenodd" clip-rule="evenodd" d="M6.99922 2.82422C6.91107 2.82422 6.82498 2.84551 6.74623 2.88538C6.66767 2.92515 6.59879 2.98216 6.54236 3.05112C6.48598 3.12003 6.44266 3.20007 6.41353 3.286C6.3844 3.37195 6.36967 3.4632 6.36967 3.55477V11.3326C6.36967 11.5162 6.42907 11.6977 6.54236 11.8362C6.65646 11.9757 6.81962 12.0631 6.99922 12.0631H10.4606V12.8242H2.45376C2.27417 12.8242 2.111 12.9117 1.99691 13.0511C1.88361 13.1896 1.82422 13.3711 1.82422 13.5548C1.82422 13.7384 1.88361 13.92 1.99691 14.0584C2.111 14.1979 2.27417 14.2853 2.45376 14.2853H2.73331V22.4437C2.73331 22.6273 2.7927 22.8088 2.906 22.9473C3.02009 23.0868 3.18326 23.1742 3.36285 23.1742C3.54245 23.1742 3.70562 23.0868 3.81971 22.9473C3.93301 22.8088 3.9924 22.6273 3.9924 22.4437V20.952H20.006V22.4437C20.006 22.6273 20.0654 22.8088 20.1787 22.9473C20.2928 23.0868 20.456 23.1742 20.6356 23.1742C20.8152 23.1742 20.9783 23.0868 21.0924 22.9473C21.2057 22.8088 21.2651 22.6273 21.2651 22.4437V14.2853H21.5447C21.7243 14.2853 21.8874 14.1979 22.0015 14.0584C22.1148 13.92 22.1742 13.7384 22.1742 13.5548C22.1742 13.3711 22.1148 13.1896 22.0015 13.0511C21.8874 12.9117 21.7243 12.8242 21.5447 12.8242H13.5379V12.0631H16.9992C17.1788 12.0631 17.342 11.9757 17.4561 11.8362C17.5694 11.6977 17.6288 11.5162 17.6288 11.3326V3.55477C17.6288 3.4632 17.614 3.37195 17.5849 3.286C17.5558 3.20007 17.5125 3.12003 17.4561 3.05112C17.3997 2.98216 17.3308 2.92515 17.2522 2.88538C17.1735 2.84551 17.0874 2.82422 16.9992 2.82422H6.99922ZM7.62876 10.602V4.28533H16.3697V10.602H7.62876ZM11.7197 12.8242V12.0631H12.2788V12.8242H11.7197ZM3.9924 19.4909V14.2853H11.3697V19.4909H3.9924ZM12.6288 19.4909V14.2853H20.006V19.4909H12.6288Z" fill="#7C7C80"/>
</svg>
