<svg width="11" height="11" viewBox="0 0 11 11" fill="none" xmlns="http://www.w3.org/2000/svg">
<g clip-path="url(#clip0_5751_45113)">
<path d="M5.50032 0C3.0834 0 1.1001 1.8799 1.1001 4.17274C1.1001 5.05406 1.3949 5.87466 1.89188 6.54984L4.74462 10.5362L4.75661 10.5514C4.86903 10.6911 4.97903 10.8011 5.10806 10.8823C5.23698 10.9635 5.39714 11.0123 5.55422 10.9974C5.86827 10.9673 6.06088 10.7565 6.24337 10.5212L6.25272 10.5089L9.40202 6.11578L9.404 6.11237C9.4777 5.98543 9.53193 5.8564 9.57824 5.73067C9.79015 5.23859 9.89967 4.70851 9.9001 4.17274C9.9001 1.8799 7.91735 0 5.50032 0ZM5.50032 0.5852C7.58218 0.5852 9.28476 2.20033 9.28476 4.17274C9.28476 4.64761 9.18554 5.10026 9.00635 5.51628L9.00327 5.52354L9.0003 5.53091C8.96059 5.6397 8.91714 5.73991 8.86577 5.82846L8.86522 5.82934L5.74342 10.1782C5.59877 10.3616 5.49372 10.4151 5.49284 10.4151C5.49251 10.4151 5.49075 10.4215 5.44774 10.3943C5.40605 10.3682 5.3351 10.3038 5.25227 10.2026L2.41449 6.24008L2.40635 6.22908C1.97141 5.64465 1.71555 4.9368 1.71555 4.17274C1.71555 2.20044 3.41846 0.58509 5.50032 0.58509V0.5852ZM5.50252 1.9316C5.45819 1.93089 5.41501 1.94567 5.38042 1.9734L3.49887 3.49767C3.36808 3.60349 3.44684 3.80688 3.61866 3.80677H3.82656V6.13723C3.82656 6.23414 3.90917 6.31279 4.01114 6.31279H6.98906C7.09103 6.31279 7.17364 6.23414 7.17364 6.13723V3.80688H7.40442C7.57679 3.80699 7.65533 3.60239 7.52344 3.4969L5.61912 1.97274C5.58591 1.94643 5.54488 1.93195 5.50252 1.9316Z" fill="#F17423"/>
<path d="M5.59175 1.89832V1.89854C5.59164 1.89854 5.59142 1.89854 5.59131 1.89876L5.59175 1.89832Z" fill="#F17423"/>
<path d="M5.4082 1.89832L5.40864 1.89876L5.4082 1.89854V1.89832Z" fill="#F17423"/>
</g>
<defs>
<clipPath id="clip0_5751_45113">
<rect width="11" height="11" fill="white"/>
</clipPath>
</defs>
</svg>
