<svg width="21" height="22" viewBox="0 0 21 22" fill="none" xmlns="http://www.w3.org/2000/svg">
<path fill-rule="evenodd" clip-rule="evenodd" d="M4.59375 0.84375C4.95619 0.84375 5.25 1.13756 5.25 1.5V2.15625H15.75V1.5C15.75 1.13756 16.0438 0.84375 16.4062 0.84375C16.7687 0.84375 17.0625 1.13756 17.0625 1.5V2.15625H18.375C19.8247 2.15625 21 3.3315 21 4.78125V19.2188C21 20.6685 19.8247 21.8438 18.375 21.8438H2.625C1.17525 21.8438 0 20.6685 0 19.2188V4.78125C0 3.3315 1.17525 2.15625 2.625 2.15625H3.9375V1.5C3.9375 1.13756 4.23131 0.84375 4.59375 0.84375ZM1.3125 6.09375V19.2188C1.3125 19.9436 1.90013 20.5312 2.625 20.5312H18.375C19.0999 20.5312 19.6875 19.9436 19.6875 19.2188V6.09375H1.3125Z" fill="#242933"/>
<path fill-rule="evenodd" clip-rule="evenodd" d="M14.2453 10.2235C14.5016 10.4797 14.5016 10.8953 14.2453 11.1515L10.3078 15.089C10.1847 15.2121 10.0178 15.2812 9.84375 15.2812C9.6697 15.2812 9.50278 15.2121 9.37971 15.089L7.41096 13.1203C7.15468 12.864 7.15468 12.4485 7.41096 12.1922C7.66724 11.9359 8.08276 11.9359 8.33904 12.1922L9.84375 13.6969L13.3172 10.2235C13.5735 9.96718 13.989 9.96718 14.2453 10.2235Z" fill="#242933"/>
</svg>
