<svg width="24" height="25" viewBox="0 0 24 25" fill="none" xmlns="http://www.w3.org/2000/svg">
<mask id="mask0_4666_44459" style="mask-type:alpha" maskUnits="userSpaceOnUse" x="0" y="3" width="24" height="20">
<rect y="2.99994" width="23.1579" height="20" fill="white"/>
</mask>
<g mask="url(#mask0_4666_44459)">
<path fill-rule="evenodd" clip-rule="evenodd" d="M22.1537 18.6505C22.0495 18.5464 21.8887 18.5464 21.7846 18.6505L20.8331 19.6107V12.7019L21.789 13.6665C21.8391 13.7168 21.9021 13.7445 21.9735 13.7445C22.0449 13.7445 22.1099 13.7168 22.1603 13.6665L22.3026 13.5231C22.3529 13.4728 22.38 13.4057 22.38 13.3342C22.38 13.2627 22.3522 13.1955 22.3019 13.1453L20.6554 11.4991C20.6039 11.4475 20.535 11.42 20.4643 11.4212C20.3906 11.4199 20.3216 11.4474 20.2702 11.499L18.6246 13.1446C18.5239 13.2452 18.5239 13.4219 18.6246 13.5224L18.7679 13.6658C18.8721 13.7699 19.0485 13.7699 19.1524 13.6657L20.0923 12.7327V19.5873L19.1481 18.6497C19.0439 18.5456 18.8709 18.5456 18.7668 18.6497L18.6219 18.7931C18.521 18.8937 18.5203 19.0704 18.6209 19.1709L20.2667 20.8173C20.3183 20.8687 20.3869 20.8963 20.4576 20.8948C20.5313 20.8963 20.6002 20.8687 20.6516 20.8173L22.2972 19.1716C22.3979 19.071 22.3979 18.8944 22.2972 18.7938L22.1537 18.6505Z" fill="#636366"/>
<path d="M16.6586 12.0483L15.4561 10.8458L8.83932 4.22899C8.60444 3.99415 8.22364 3.99415 7.98877 4.22899L1.37191 10.8458L0.168866 12.0489C-0.0619241 12.2879 -0.0553331 12.6686 0.183634 12.8994C0.41675 13.1246 0.786303 13.1246 1.01942 12.8994L1.19505 12.7226V20.2934C1.19505 20.6257 1.46436 20.895 1.79659 20.895H15.0303C15.3625 20.895 15.6318 20.6257 15.6318 20.2934V12.7226L15.808 12.8988C16.047 13.1296 16.4278 13.123 16.6586 12.8841C16.8837 12.651 16.8837 12.2814 16.6586 12.0483ZM10.218 19.6919H6.60885V14.8797H10.218V19.6919ZM14.4287 19.6919H11.4211V14.2782C11.4211 13.9459 11.1518 13.6766 10.8195 13.6766H6.00731C5.67508 13.6766 5.40577 13.9459 5.40577 14.2782V19.6919H2.39813V11.5195L8.41341 5.50422L14.4287 11.5195V19.6919Z" fill="#636366"/>
</g>
</svg>
