<svg width="24" height="25" viewBox="0 0 24 25" fill="none" xmlns="http://www.w3.org/2000/svg">
<path d="M2 18.8906H22V10.6875H2V18.8906ZM3.17188 17.7188V16.5469H20.8281V17.7188H3.17188ZM4.35352 11.8594V14.2031H5.52539V11.8594H6.70703V13.0312H7.87891V11.8594H9.06055V14.2031H10.2324V11.8594H11.4141V13.0312H12.5859V11.8594H13.7676V14.2031H14.9395V11.8594H16.1211V13.0312H17.293V11.8594H18.4746V14.2031H19.6465V11.8594H20.8281V15.375H3.17188V11.8594H4.35352Z" fill="#636366"/>
<path d="M20.8281 6V7.17188H3.17188V6H2V9.51562H3.17188V8.34375H20.8281V9.51562H22V6H20.8281Z" fill="#636366"/>
</svg>
