<svg width="32" height="33" viewBox="0 0 32 33" fill="none" xmlns="http://www.w3.org/2000/svg">
<g clip-path="url(#clip0_14823_128099)">
<path d="M13.334 17.584C11.166 17.584 9.33398 19.416 9.33398 21.584C9.33398 23.752 11.166 25.584 13.334 25.584C15.502 25.584 17.334 23.752 17.334 21.584C17.334 19.416 15.502 17.584 13.334 17.584Z" fill="#BBC7CD"/>
<path d="M24 12.25H20.552L16.9427 8.64067C16.8191 8.51661 16.6721 8.41823 16.5104 8.35118C16.3486 8.28413 16.1751 8.24975 16 8.25H10.6667C10.4915 8.24975 10.3181 8.28413 10.1563 8.35118C9.99453 8.41823 9.84761 8.51661 9.724 8.64067L6.11467 12.25H2.66667C1.196 12.25 0 13.446 0 14.9167V29.5833C0 31.054 1.196 32.25 2.66667 32.25H24C25.4707 32.25 26.6667 31.054 26.6667 29.5833V14.9167C26.6667 13.446 25.4707 12.25 24 12.25ZM13.3333 28.25C9.72 28.25 6.66667 25.1967 6.66667 21.5833C6.66667 17.97 9.72 14.9167 13.3333 14.9167C16.9467 14.9167 20 17.97 20 21.5833C20 25.1967 16.9467 28.25 13.3333 28.25Z" fill="#BBC7CD"/>
<path fill-rule="evenodd" clip-rule="evenodd" d="M22 5.25C22.2652 5.25 22.5196 5.35536 22.7071 5.54289C22.8946 5.73043 23 5.98478 23 6.25V9.25H26C26.2652 9.25 26.5196 9.35536 26.7071 9.54289C26.8946 9.73043 27 9.98478 27 10.25C27 10.5152 26.8946 10.7696 26.7071 10.9571C26.5196 11.1446 26.2652 11.25 26 11.25H23V14.25C23 14.5152 22.8946 14.7696 22.7071 14.9571C22.5196 15.1446 22.2652 15.25 22 15.25C21.7348 15.25 21.4804 15.1446 21.2929 14.9571C21.1054 14.7696 21 14.5152 21 14.25V11.25H18C17.7348 11.25 17.4804 11.1446 17.2929 10.9571C17.1054 10.7696 17 10.5152 17 10.25C17 9.98478 17.1054 9.73043 17.2929 9.54289C17.4804 9.35536 17.7348 9.25 18 9.25H21V6.25C21 5.98478 21.1054 5.73043 21.2929 5.54289C21.4804 5.35536 21.7348 5.25 22 5.25Z" fill="#155AA9"/>
</g>
<defs>
<clipPath id="clip0_14823_128099">
<rect width="32" height="32" fill="white" transform="translate(0 0.5)"/>
</clipPath>
</defs>
</svg>
