<svg width="11" height="12" viewBox="0 0 11 12" fill="none" xmlns="http://www.w3.org/2000/svg">
<path fill-rule="evenodd" clip-rule="evenodd" d="M10.6197 6.60961L4.89096 0.869923C4.38224 0.361195 3.53871 0.379069 3.00729 0.911859L2.94611 0.973044L2.92274 0.94967C2.33495 0.361195 1.35737 0.385257 0.73933 1.00398L0.564025 1.17997C-0.0540114 1.79801 -0.0773854 2.77697 0.510402 3.36544L0.534463 3.3895L0.421031 3.50362C-0.110384 4.03504 -0.129633 4.87994 0.379782 5.39004L6.10847 11.1297C6.6172 11.6391 7.4621 11.6206 7.99214 11.0885L10.5791 8.49672C11.1112 7.96393 11.1291 7.11972 10.6197 6.60961ZM2.35145 4.0481C1.7561 4.0481 1.27418 3.5435 1.27281 2.91996C1.27281 2.29711 1.7561 1.79251 2.35145 1.79251C2.9468 1.79251 3.42665 2.2978 3.42871 2.91996C3.42665 3.5435 2.94542 4.0481 2.35145 4.0481ZM8.53937 9.4853L7.79415 8.7394C7.34592 9.0577 6.78426 9.15807 6.29272 8.98826C6.23667 8.96952 6.18503 8.93955 6.14094 8.90019C6.09685 8.86083 6.06125 8.81291 6.03629 8.75933C6.01012 8.70421 5.99541 8.64435 5.99304 8.58338C5.99068 8.5224 6.00071 8.46158 6.02254 8.4046C6.06496 8.29066 6.14992 8.19762 6.25955 8.14505C6.36918 8.09248 6.49492 8.08448 6.61033 8.12274C6.77395 8.17911 6.96094 8.15505 7.13349 8.07599L6.27209 7.21115C5.61693 7.68001 4.74659 7.66626 4.21518 7.13622C3.68033 6.60205 3.66864 5.72896 4.14368 5.07518L3.41359 4.3444L3.84601 3.91198L4.58091 4.64414C5.03327 4.32721 5.59562 4.22684 6.08785 4.39733C6.14458 4.41707 6.19675 4.44805 6.24124 4.48841C6.28573 4.52877 6.32163 4.57769 6.34679 4.63224C6.37194 4.68678 6.38584 4.74584 6.38766 4.80588C6.38947 4.86593 6.37916 4.92572 6.35734 4.98168C6.3138 5.09507 6.22843 5.18743 6.11882 5.23974C6.00921 5.29205 5.88371 5.30033 5.76818 5.26286C5.60456 5.2058 5.41894 5.22917 5.24707 5.30617L6.11466 6.17032C6.7657 5.71315 7.62572 5.73172 8.15301 6.25832C8.6803 6.78561 8.70093 7.6422 8.24444 8.28979L8.98691 9.02951L8.53937 9.4853Z" fill="#C4C4C4"/>
<path fill-rule="evenodd" clip-rule="evenodd" d="M4.88932 6.4914C5.07356 6.67496 5.36917 6.69421 5.63248 6.56496L4.81576 5.74481C4.68583 6.00949 4.70439 6.30648 4.88932 6.4914Z" fill="#C4C4C4"/>
<path fill-rule="evenodd" clip-rule="evenodd" d="M7.50081 6.92371C7.32345 6.74566 7.04158 6.72297 6.78516 6.83847L7.58675 7.63731C7.70155 7.38225 7.67818 7.10039 7.50081 6.92371Z" fill="#C4C4C4"/>
</svg>
