<svg width="24" height="25" viewBox="0 0 24 25" fill="none" xmlns="http://www.w3.org/2000/svg">
<path d="M21.1114 20.169L21.9926 12.931C22.009 12.7967 21.998 12.6603 21.9604 12.5308C21.9228 12.4014 21.8595 12.2819 21.7746 12.1802C21.6897 12.0786 21.5852 11.9973 21.4682 11.9415C21.3511 11.8858 21.224 11.8571 21.0956 11.8571L18.8134 11.8571L19.1004 9.50238C19.1168 9.36811 19.1058 9.2317 19.0682 9.10225C19.0306 8.97281 18.9672 8.85329 18.8824 8.75168C18.7975 8.65006 18.693 8.56868 18.5759 8.51297C18.4588 8.45725 18.3318 8.42848 18.2033 8.42857L15.9212 8.42857L16.2081 6.07381C16.2133 6.03275 16.2163 5.99141 16.2172 5.95C16.216 5.69761 16.12 5.45598 15.9502 5.27796C15.7804 5.09993 15.5506 5 15.3111 5L3.78506 5C3.56546 4.99992 3.35338 5.08429 3.18863 5.23729C3.02388 5.39028 2.91779 5.60138 2.89027 5.83095L2.00904 13.069C2.00387 13.1101 2.00085 13.1514 2 13.1929C2.0012 13.4452 2.09718 13.6869 2.26698 13.8649C2.43677 14.0429 2.66656 14.1429 2.90609 14.1429L5.18825 14.1429L4.90128 16.4976C4.8849 16.6319 4.89587 16.7683 4.93347 16.8977C4.97106 17.0272 5.03442 17.1467 5.1193 17.2483C5.20419 17.3499 5.30866 17.4313 5.42575 17.487C5.54284 17.5427 5.66985 17.5715 5.79833 17.5714L8.08049 17.5714L7.79352 19.9262C7.77714 20.0605 7.78811 20.1969 7.82571 20.3263C7.86331 20.4558 7.92666 20.5753 8.01155 20.6769C8.09643 20.7785 8.20091 20.8599 8.31799 20.9156C8.43508 20.9713 8.5621 21.0001 8.69057 21L20.2166 21C20.4362 21.0001 20.6483 20.9157 20.813 20.7627C20.9778 20.6097 21.0839 20.3986 21.1114 20.169ZM3.72631 12.4286L4.42225 6.71428L14.4909 6.71429L13.7949 12.4286L3.72631 12.4286ZM6.61855 15.8571L6.82869 14.1429L14.4321 14.1429C14.6517 14.1429 14.8638 14.0586 15.0285 13.9056C15.1933 13.7526 15.2994 13.5415 15.3269 13.3119L15.7133 10.1429L17.3831 10.1429L16.6872 15.8571L6.61855 15.8571ZM9.51079 19.2857L9.72093 17.5714L17.3244 17.5714C17.544 17.5715 17.756 17.4871 17.9208 17.3341C18.0855 17.1811 18.1916 16.97 18.2192 16.7405L18.6055 13.5714L20.2754 13.5714L19.5794 19.2857L9.51079 19.2857Z" fill="#7C7C80"/>
</svg>
