<svg width="24" height="25" viewBox="0 0 24 25" fill="none" xmlns="http://www.w3.org/2000/svg">
<g clip-path="url(#clip0_4666_46101)">
<path d="M21.999 6.19154V2.75037H18.5578V3.89743H5.94014V2.75037H2.49896V6.19154H3.64602V18.8092H2.49896V22.2504H5.94014V21.1033H18.5578V22.2504H21.999V18.8092H20.8519V6.19154H21.999ZM19.7048 3.89743H20.8519V5.04448H19.7048V3.89743ZM3.64602 3.89743H4.79308V5.04448H3.64602V3.89743ZM4.79308 21.1033H3.64602V19.9562H4.79308V21.1033ZM20.8519 21.1033H19.7048V19.9562H20.8519V21.1033ZM19.7048 18.8092H18.5578V19.9562H5.94014V18.8092H4.79308V6.19154H5.94014V5.04448H18.5578V6.19154H19.7048V18.8092Z" fill="#636366"/>
<path d="M7.38129 11.6908L11.4361 7.63595L12.2471 8.44692L8.19226 12.5018L7.38129 11.6908Z" fill="#636366"/>
<path d="M12.2466 16.5575L16.3015 12.5026L17.1125 13.3136L13.0576 17.3685L12.2466 16.5575Z" fill="#636366"/>
<path d="M8.59766 15.3409L15.0854 8.85318L15.8964 9.66415L9.40863 16.1519L8.59766 15.3409Z" fill="#636366"/>
</g>
<defs>
<clipPath id="clip0_4666_46101">
<rect width="20" height="20" fill="white" transform="translate(1.99933 2.75037)"/>
</clipPath>
</defs>
</svg>
