<svg width="24" height="25" viewBox="0 0 24 25" fill="none" xmlns="http://www.w3.org/2000/svg">
<path d="M18.3857 5.04811L2.62763 10.3008C2.38601 10.3824 2.22762 10.6119 2.23651 10.8681C2.24863 11.1227 2.42722 11.34 2.67531 11.399L10.8186 13.3377L12.7572 21.481C12.8162 21.7291 13.0328 21.9085 13.2882 21.9198C13.453 21.9263 13.6066 21.8633 13.7173 21.7525C13.7787 21.6911 13.8264 21.616 13.8555 21.5287L19.1082 5.77058C19.1761 5.56532 19.1227 5.33905 18.97 5.18632C18.8172 5.03359 18.591 4.98025 18.3857 5.04811ZM13.4053 19.2668L11.8489 12.7308C11.7988 12.5207 11.6348 12.3567 11.4255 12.3074L4.8895 10.751L17.6625 6.49384L13.4053 19.2668Z" fill="#636366"/>
</svg>
