<svg width="21" height="22" viewBox="0 0 21 22" fill="none" xmlns="http://www.w3.org/2000/svg">
<path d="M8.53125 15.2742C8.53125 16.4068 8.53125 19.875 8.53125 19.875C8.53125 20.2374 8.23744 20.5312 7.875 20.5312H2.625C2.26256 20.5312 1.96875 20.2374 1.96875 19.875V10.6875C1.96875 10.5135 2.03789 10.3465 2.16096 10.2235L10.036 2.34846C10.2922 2.09218 10.7078 2.09218 10.964 2.34846L18.839 10.2235C18.9621 10.3465 19.0312 10.5135 19.0312 10.6875V19.875C19.0312 20.2374 18.7374 20.5312 18.375 20.5312H13.125C12.7626 20.5312 12.4688 20.2374 12.4688 19.875C12.4688 19.875 12.4688 16.8044 12.4688 15.2812C12.4688 14.9531 12.1406 14.625 11.8125 14.625C10.6705 14.625 9.80559 14.625 9.1875 14.625C8.85938 14.625 8.53125 14.9531 8.53125 15.2742Z" fill="#6A6D74"/>
<path fill-rule="evenodd" clip-rule="evenodd" d="M17.0625 4.125V8.71875L14.4375 6.09375V4.125C14.4375 3.76256 14.7313 3.46875 15.0938 3.46875H16.4062C16.7687 3.46875 17.0625 3.76256 17.0625 4.125Z" fill="#6A6D74"/>
</svg>
