<svg width="24" height="25" viewBox="0 0 24 25" fill="none" xmlns="http://www.w3.org/2000/svg">
<path fill-rule="evenodd" clip-rule="evenodd" d="M20.0871 15.7939H3.91171C3.50339 15.7939 3.1712 15.4617 3.1712 15.0534C3.1712 14.6451 3.50339 14.3129 3.91171 14.3129H20.0871C20.4954 14.3129 20.8276 14.6451 20.8276 15.0534C20.8276 15.4617 20.4954 15.7939 20.0871 15.7939ZM17.0212 20.5079H6.98433C5.53331 20.5079 4.35284 19.3274 4.35284 17.8765V16.9642H19.6527V17.8765C19.6527 19.3274 18.4722 20.5079 17.0212 20.5079ZM10.7559 3.92224C11.5539 3.92224 12.203 4.57138 12.203 5.36931V6.1038H9.3089V5.36935C9.3089 4.57138 9.958 3.92224 10.7559 3.92224ZM21.9993 15.0519C21.9993 13.9974 21.1415 13.1396 20.087 13.1396H4.34941V5.32388C4.34941 4.55091 4.97823 3.92212 5.75116 3.92212H7.03589C7.25288 3.92212 7.45991 4.01525 7.6039 4.17763L8.19144 4.84048C8.15628 5.01126 8.13777 5.18814 8.13777 5.36919V6.13775C7.91038 6.21826 7.74718 6.43459 7.74718 6.68958C7.74718 7.01314 8.00948 7.27544 8.33308 7.27544H13.1801C13.5037 7.27544 13.766 7.01314 13.766 6.68958C13.766 6.43459 13.6028 6.21826 13.3755 6.13775V5.36919C13.3755 3.92513 12.2007 2.75037 10.7566 2.75037C9.94804 2.75037 9.22405 3.11884 8.74327 3.69654L8.4807 3.40041C8.11448 2.98724 7.58788 2.75037 7.03585 2.75037H5.75116C4.33214 2.75037 3.17765 3.90482 3.17765 5.32388V13.2177C3.17765 13.2404 3.17925 13.2627 3.18175 13.2847C2.48839 13.5721 1.99933 14.2558 1.99933 15.0519C1.99933 15.8464 2.48648 16.529 3.17765 16.8175V17.8764C3.17765 19.9735 4.88374 21.6796 6.98089 21.6796H7.31573V22.1627C7.31573 22.4863 7.57808 22.7486 7.90163 22.7486C8.22519 22.7486 8.48749 22.4863 8.48749 22.1627V21.6796H15.5111V22.1627C15.5111 22.4863 15.7734 22.7486 16.097 22.7486C16.4206 22.7486 16.6829 22.4863 16.6829 22.1627V21.6796H17.0178C19.1148 21.6796 20.821 19.9735 20.821 17.8764V16.8175C21.5122 16.529 21.9993 15.8463 21.9993 15.0519Z" fill="#636366"/>
<path fill-rule="evenodd" clip-rule="evenodd" d="M13.5928 11.2711C13.5429 11.0306 13.348 10.8431 13.1046 10.8061C12.8629 10.7693 12.6167 10.8939 12.5019 11.1093C12.387 11.325 12.4198 11.5975 12.5844 11.7788C12.7487 11.9597 13.0167 12.0205 13.2425 11.9265C13.496 11.8211 13.649 11.5415 13.5928 11.2711Z" fill="#636366"/>
<path fill-rule="evenodd" clip-rule="evenodd" d="M11.2491 11.2711C11.1992 11.0306 11.0043 10.8431 10.7608 10.8061C10.5192 10.7693 10.273 10.8939 10.1582 11.1093C10.0432 11.325 10.076 11.5975 10.2406 11.7788C10.405 11.9598 10.6729 12.0207 10.8988 11.9265C11.1522 11.8209 11.3053 11.5418 11.2491 11.2711Z" fill="#636366"/>
<path fill-rule="evenodd" clip-rule="evenodd" d="M8.90537 11.2711C8.85545 11.0306 8.66049 10.8431 8.41709 10.8061C8.17545 10.7693 7.92928 10.8939 7.81447 11.1093C7.69951 11.325 7.73224 11.5975 7.89689 11.7788C8.06119 11.9597 8.3292 12.0205 8.55506 11.9265C8.80842 11.8211 8.9615 11.5414 8.90537 11.2711Z" fill="#636366"/>
<path fill-rule="evenodd" clip-rule="evenodd" d="M13.6014 8.98342C13.5761 8.73967 13.3988 8.53295 13.1608 8.47315C12.924 8.41358 12.6665 8.51201 12.5313 8.71588C12.3963 8.9192 12.4015 9.19369 12.5478 9.3899C12.6942 9.58631 12.954 9.67272 13.1886 9.60131C13.4522 9.52115 13.6294 9.25842 13.6014 8.98342Z" fill="#636366"/>
<path fill-rule="evenodd" clip-rule="evenodd" d="M11.2576 8.98342C11.2323 8.73967 11.055 8.53299 10.817 8.47314C10.58 8.41353 10.323 8.51221 10.1875 8.71588C10.0518 8.91955 10.0586 9.19314 10.204 9.38986C10.3493 9.58646 10.6109 9.67287 10.8448 9.60174C11.1082 9.52158 11.2855 9.25795 11.2576 8.98342Z" fill="#636366"/>
<path fill-rule="evenodd" clip-rule="evenodd" d="M8.91383 8.98342C8.88856 8.73975 8.71114 8.53295 8.47321 8.47315C8.23645 8.41358 7.97891 8.51201 7.84368 8.71588C7.70832 8.91983 7.71457 9.19291 7.8602 9.38986C8.00555 9.58647 8.26711 9.67287 8.50102 9.60174C8.76442 9.52162 8.94172 9.25779 8.91383 8.98342Z" fill="#636366"/>
</svg>
