<svg width="18" height="18" viewBox="0 0 18 18" fill="none" xmlns="http://www.w3.org/2000/svg">
<path fill-rule="evenodd" clip-rule="evenodd" d="M3.9375 0C4.24816 0 4.5 0.25184 4.5 0.5625V1.125H13.5V0.5625C13.5 0.25184 13.7518 0 14.0625 0C14.3732 0 14.625 0.25184 14.625 0.5625V1.125H15.75C16.9926 1.125 18 2.13236 18 3.375V15.75C18 16.9926 16.9926 18 15.75 18H2.25C1.00736 18 0 16.9926 0 15.75V3.375C0 2.13236 1.00736 1.125 2.25 1.125H3.375V0.5625C3.375 0.25184 3.62684 0 3.9375 0ZM1.125 4.5V15.75C1.125 16.3713 1.62868 16.875 2.25 16.875H15.75C16.3713 16.875 16.875 16.3713 16.875 15.75V4.5H1.125Z" fill="#636366"/>
<path d="M12.375 7.3125C12.375 7.00184 12.6268 6.75 12.9375 6.75H14.0625C14.3732 6.75 14.625 7.00184 14.625 7.3125V8.4375C14.625 8.74816 14.3732 9 14.0625 9H12.9375C12.6268 9 12.375 8.74816 12.375 8.4375V7.3125Z" fill="#636366"/>
</svg>
