<svg width="21" height="22" viewBox="0 0 21 22" fill="none" xmlns="http://www.w3.org/2000/svg">
<path fill-rule="evenodd" clip-rule="evenodd" d="M19.3763 0.941761C19.5697 1.06133 19.6875 1.27256 19.6875 1.5V21.1875C19.6875 21.5499 19.3937 21.8437 19.0312 21.8437H15.0938C14.7313 21.8437 14.4375 21.5499 14.4375 21.1875V19.2188H13.125V21.1875C13.125 21.5499 12.8312 21.8437 12.4688 21.8437H0.65625C0.293813 21.8437 0 21.5499 0 21.1875V13.9688C0 13.6863 0.180751 13.4355 0.448726 13.3462L7.875 10.8708V6.75C7.875 6.50143 8.01544 6.2742 8.23777 6.16303L18.7378 0.913033C18.9412 0.811318 19.1828 0.822188 19.3763 0.941761ZM7.875 12.2542L1.3125 14.4417V20.5312H7.875V12.2542ZM9.1875 20.5312H11.8125V18.5625C11.8125 18.2001 12.1063 17.9062 12.4688 17.9062H15.0938C15.4562 17.9062 15.75 18.2001 15.75 18.5625V20.5312H18.375V2.56184L9.1875 7.15559V20.5312Z" fill="#6A6D74"/>
<path d="M2.625 15.2812H3.9375V16.5938H2.625V15.2812Z" fill="#6A6D74"/>
<path d="M5.25 15.2812H6.5625V16.5938H5.25V15.2812Z" fill="#6A6D74"/>
<path d="M2.625 17.9062H3.9375V19.2188H2.625V17.9062Z" fill="#6A6D74"/>
<path d="M5.25 17.9062H6.5625V19.2188H5.25V17.9062Z" fill="#6A6D74"/>
<path d="M10.5 12.6562H11.8125V13.9688H10.5V12.6562Z" fill="#6A6D74"/>
<path d="M13.125 12.6562H14.4375V13.9688H13.125V12.6562Z" fill="#6A6D74"/>
<path d="M10.5 15.2812H11.8125V16.5938H10.5V15.2812Z" fill="#6A6D74"/>
<path d="M13.125 15.2812H14.4375V16.5938H13.125V15.2812Z" fill="#6A6D74"/>
<path d="M15.75 12.6562H17.0625V13.9688H15.75V12.6562Z" fill="#6A6D74"/>
<path d="M15.75 15.2812H17.0625V16.5938H15.75V15.2812Z" fill="#6A6D74"/>
<path d="M10.5 10.0312H11.8125V11.3438H10.5V10.0312Z" fill="#6A6D74"/>
<path d="M13.125 10.0312H14.4375V11.3438H13.125V10.0312Z" fill="#6A6D74"/>
<path d="M15.75 10.0312H17.0625V11.3438H15.75V10.0312Z" fill="#6A6D74"/>
<path d="M10.5 7.40625H11.8125V8.71875H10.5V7.40625Z" fill="#6A6D74"/>
<path d="M13.125 7.40625H14.4375V8.71875H13.125V7.40625Z" fill="#6A6D74"/>
<path d="M15.75 7.40625H17.0625V8.71875H15.75V7.40625Z" fill="#6A6D74"/>
<path d="M15.75 4.78125H17.0625V6.09375H15.75V4.78125Z" fill="#6A6D74"/>
</svg>
