<svg width="24" height="25" viewBox="0 0 24 25" fill="none" xmlns="http://www.w3.org/2000/svg">
<mask id="mask0_4666_46035" style="mask-type:alpha" maskUnits="userSpaceOnUse" x="1" y="2" width="21" height="21">
<rect x="1.99933" y="2.75037" width="20" height="20" fill="white"/>
</mask>
<g mask="url(#mask0_4666_46035)">
<path fill-rule="evenodd" clip-rule="evenodd" d="M20.8319 18.8109C20.8319 18.8881 20.7693 18.9508 20.6921 18.9508H3.31109C3.23398 18.9508 3.1712 18.8881 3.1712 18.8109V14.3541C3.1712 14.277 3.23394 14.2142 3.31109 14.2142H20.6921C20.7693 14.2142 20.832 14.277 20.832 14.3541V18.8109H20.8319ZM4.14288 12.7072C4.14288 12.2485 4.51609 11.8754 4.97472 11.8754H19.0191C19.4778 11.8754 19.851 12.2485 19.851 12.7072V13.045H4.14288V12.7072ZM10.4287 9.67533V10.5673C10.4287 10.6438 10.3664 10.7061 10.2899 10.7061H7.14304C7.06648 10.7061 7.00421 10.6438 7.00421 10.5673V9.67533C7.00421 9.59876 7.06652 9.5365 7.14304 9.5365H10.2899C10.3664 9.5365 10.4287 9.59876 10.4287 9.67533ZM16.9912 9.67533V10.5673C16.9912 10.6438 16.9289 10.7061 16.8524 10.7061H13.7055C13.629 10.7061 13.5667 10.6438 13.5667 10.5673V9.67533C13.5667 9.59876 13.629 9.5365 13.7055 9.5365H16.8524C16.9289 9.5365 16.9912 9.59876 16.9912 9.67533ZM5.05597 6.87535C5.05597 6.42707 5.42066 6.06238 5.86894 6.06238H18.1284C18.5767 6.06238 18.9414 6.42707 18.9414 6.87535V10.7061H18.1616V9.67531C18.1616 8.95382 17.5746 8.36683 16.8532 8.36683H13.7063C12.9848 8.36683 12.3978 8.95382 12.3978 9.67531V10.7061H11.5995V9.67531C11.5995 8.95382 11.0125 8.36683 10.291 8.36683H7.14421C6.42269 8.36683 5.83574 8.95382 5.83574 9.67531V10.7061H5.05597V6.87535ZM21.023 13.0896V12.7087C21.023 12.007 20.6597 11.3889 20.1116 11.0315V6.8765C20.1116 5.7833 19.2223 4.89392 18.1291 4.89392H5.8696C4.7764 4.89392 3.88702 5.7833 3.88702 6.8765V11.0315C3.33894 11.3889 2.9757 12.007 2.9757 12.7086V13.0895C2.41448 13.2374 1.99933 13.749 1.99933 14.356V18.8129C1.99933 19.514 2.55331 20.0881 3.24659 20.1208V20.6482C3.24659 20.9712 3.50839 21.233 3.83136 21.233C4.15433 21.233 4.41616 20.9712 4.41616 20.6482V20.1223H19.5825V20.6482C19.5825 20.9712 19.8443 21.233 20.1673 21.233C20.4903 21.233 20.7521 20.9712 20.7521 20.6482V20.1208C21.4454 20.0881 21.9993 19.514 21.9993 18.8128V14.356C21.9993 13.749 21.5842 13.2374 21.023 13.0896Z" fill="#636366"/>
</g>
</svg>
