<svg
    xmlns="http://www.w3.org/2000/svg"
    viewBox="0 0 16 16"
    id="vector">
    <defs>
        <clipPath id="clip_path">
            <path d="M 0 0 L 16 0 L 16 16 L 0 16 Z"/>
        </clipPath>
        <clipPath id="clip_path_1">
            <path d="M 0 0 L 16 0 L 16 16 L 0 16 Z"/>
        </clipPath>
        <clipPath id="clip_path_2">
            <path d="M 0 0 L 16 0 L 16 16 L 0 16 Z"/>
        </clipPath>
        <clipPath id="clip_path_3">
            <path d="M 0 0 L 16 0 L 16 16 L 0 16 Z"/>
        </clipPath>
        <clipPath id="clip_path_4">
            <path d="M 0 0 L 16 0 L 16 16 L 0 16 Z"/>
        </clipPath>
    </defs>
    <g id="group">
        <path
            id="path"
            clip-path="url(#clip_path)"
            d="M 9 14 L 6.333 14 C 6.149 14 6 13.851 6 13.667 C 6 13.483 6.149 13.334 6.333 13.334 L 9 13.334 C 9.551 13.334 10 12.885 10 12.334 L 10 9 C 10 8.816 10.149 8.667 10.333 8.667 C 10.517 8.667 10.667 8.816 10.667 9 L 10.667 12.334 C 10.667 13.252 9.919 14 9 14 Z"
            fill="#4a4a4a"/>
        <path
            id="path_1"
            clip-path="url(#clip_path_1)"
            d="M 15.667 7.333 L 9 7.333 C 8.816 7.333 8.667 7.184 8.667 7 C 8.667 6.816 8.816 6.667 9 6.667 L 15.667 6.667 C 15.851 6.667 16 6.816 16 7 C 16 7.184 15.851 7.333 15.667 7.333 Z"
            fill="#4a4a4a"/>
        <path
            id="path_2"
            clip-path="url(#clip_path_2)"
            d="M 5.333 16 C 5.187 16 5.043 15.975 4.908 15.927 L 0.915 14.596 C 0.368 14.414 0 13.906 0 13.333 L 0 1.333 C 0 0.598 0.598 0 1.333 0 C 1.481 0 1.625 0.025 1.759 0.073 L 5.752 1.404 C 6.299 1.585 6.667 2.093 6.667 2.667 L 6.667 14.667 C 6.667 15.402 6.069 16 5.333 16 Z M 1.333 0.667 C 0.965 0.667 0.667 0.966 0.667 1.333 L 0.667 13.333 C 0.667 13.619 0.851 13.872 1.125 13.964 L 5.125 15.297 C 5.563 15.453 6 15.103 6 14.667 L 6 2.667 C 6 2.381 5.816 2.127 5.541 2.037 L 1.541 0.703 C 1.473 0.679 1.403 0.667 1.333 0.667 Z"
            fill="#4a4a4a"/>
        <path
            id="path_3"
            clip-path="url(#clip_path_3)"
            d="M 10.333 5.333 C 10.149 5.333 10 5.184 10 5 L 10 1.667 C 10 1.115 9.551 0.667 9 0.667 L 1.333 0.667 C 1.149 0.667 1 0.517 1 0.333 C 1 0.149 1.149 0 1.333 0 L 9 0 C 9.919 0 10.667 0.748 10.667 1.667 L 10.667 5 C 10.667 5.184 10.517 5.333 10.333 5.333 Z"
            fill="#4a4a4a"/>
        <path
            id="path_4"
            clip-path="url(#clip_path_4)"
            d="M 13 10 C 12.915 10 12.829 9.967 12.764 9.902 C 12.634 9.773 12.634 9.561 12.764 9.431 L 15.195 7 L 12.764 4.57 C 12.634 4.44 12.634 4.229 12.764 4.098 C 12.894 3.969 13.105 3.969 13.235 4.098 L 15.902 6.765 C 16.032 6.895 16.032 7.106 15.902 7.237 L 13.235 9.903 C 13.171 9.967 13.085 10 13 10 Z"
            fill="#4a4a4a"/>
    </g>
</svg>
