<svg width="155" height="156" viewBox="0 0 155 156" fill="none" xmlns="http://www.w3.org/2000/svg">
<path d="M129.156 139.686C128.887 139.903 128.829 140.026 128.708 140.089C119.778 142.399 111.142 141.481 103.084 136.535C101.046 135.29 99.3612 133.552 98.0648 131.473C95.2479 127.04 95.595 121.6 98.9116 117.704C100.628 115.664 102.635 114.021 105.319 113.386C106.358 114.146 107.367 114.937 108.401 115.574C110.094 116.606 111.92 116.992 113.837 116.393C115.268 115.983 116.161 115.055 116.129 114.072C116.087 112.782 115.199 111.929 114.083 111.63C112.533 111.212 110.927 110.978 109.355 110.836C108.338 110.752 107.268 110.914 106.257 111.013C103.178 107.043 104.837 102.269 110.134 99.7407C110.761 100.105 111.419 100.499 112.075 100.832C114.541 102.011 117.069 102.238 119.519 101.021C120.457 100.554 121.295 99.8714 121.224 98.6124C121.163 97.6606 120.275 96.8071 118.911 96.4488C116.742 95.9122 114.599 96.1742 112.494 96.6509C111.762 96.8407 111.031 97.0306 110.331 97.2509C105.375 91.2981 106.111 82.6603 112.91 80.0285C112.468 79.6632 112.149 79.2969 111.84 79.2378C111.469 79.1792 111.015 79.3977 110.684 79.6152C107.649 81.7578 105.617 84.5072 105.651 88.4083C105.653 91.3267 106.447 94.0547 107.823 96.6862C108.019 97.0534 108.216 97.4205 108.382 97.8186C108.414 97.8491 108.386 97.9414 108.362 98.1567C108.063 98.4047 107.736 98.7451 107.345 99.0245C102.694 102.531 101.755 105.794 103.876 111.523C103.392 111.772 102.849 112.084 102.304 112.333C99.1893 113.924 96.8361 116.245 95.3413 119.452C92.8969 124.662 93.9157 130.521 98.025 135.006C100.255 137.447 102.925 139.239 105.949 140.537C113.271 143.646 120.701 144.358 128.278 141.997C128.675 141.901 129.069 141.745 129.466 141.65C129.527 141.649 129.62 141.679 129.9 141.769C129.143 143.065 128.096 143.964 127.081 144.893C126.127 145.822 125.08 146.721 124.006 147.712C124.92 148.412 125.653 148.283 126.349 147.94C127.134 147.504 127.983 147.129 128.609 146.541C130.278 144.931 131.946 143.259 133.486 141.466C134.67 140.044 134.297 138.971 132.622 138.492C129.055 137.506 125.459 136.55 121.863 135.594C121.275 135.445 120.69 135.418 119.919 135.332C120.051 136.591 120.797 136.831 121.481 137.071C124.026 137.851 126.482 138.723 129.156 139.686ZM119.38 98.6263C117.043 100.487 114.369 100.477 112.313 98.6797C114.633 98.1707 116.797 97.6321 119.38 98.6263ZM114.246 113.81C112.047 115.209 109.946 114.856 108.189 112.811C110.334 112.611 112.267 112.504 114.246 113.81Z" fill="#CCCCCC"/>
<circle cx="58.1548" cy="58.9966" r="57.1548" fill="white" stroke="#F26922" stroke-width="2" stroke-linecap="round" stroke-linejoin="round" stroke-dasharray="322 20"/>
<mask id="mask0_15847_135147" style="mask-type:alpha" maskUnits="userSpaceOnUse" x="24" y="23" width="69" height="70">
<rect x="24.0322" y="23.9082" width="68.2445" height="68.2445" fill="white"/>
</mask>
<g mask="url(#mask0_15847_135147)">
<mask id="mask1_15847_135147" style="mask-type:alpha" maskUnits="userSpaceOnUse" x="33" y="72" width="50" height="21">
<path fill-rule="evenodd" clip-rule="evenodd" d="M33.8223 72.0371H82.8621V92.1515H33.8223V72.0371Z" fill="white"/>
</mask>
<g mask="url(#mask1_15847_135147)">
<path fill-rule="evenodd" clip-rule="evenodd" d="M78.086 72.817C77.3552 72.3797 76.52 72.1488 75.6679 72.1488H71.1579C70.3374 72.1488 69.5199 72.2557 68.727 72.4677L61.1202 74.502L55.143 76.1021C53.7123 76.4922 52.6748 77.7315 52.5426 79.2086C52.5311 79.393 52.5311 79.5774 52.5426 79.7619L39.1056 72.5015C38.376 72.0828 37.5194 71.9408 36.6931 72.1017C36.3829 72.1569 36.0819 72.2557 35.7992 72.3959C35.1667 72.6986 34.6409 73.187 34.2934 73.7959C33.986 74.3338 33.8241 74.9421 33.8223 75.5609C33.8177 76.8209 34.4865 77.9871 35.5758 78.6203L57.0164 91.4454C57.7605 91.9067 58.6189 92.1515 59.4944 92.1515H76.0728C76.6653 92.1515 77.2518 92.0394 77.8028 91.8223L82.8621 89.8218V75.6787L78.086 72.817Z" fill="#ECECF1"/>
</g>
<mask id="mask2_15847_135147" style="mask-type:alpha" maskUnits="userSpaceOnUse" x="24" y="23" width="69" height="70">
<path fill-rule="evenodd" clip-rule="evenodd" d="M24.0322 92.1527H92.2767V23.9082H24.0322V92.1527Z" fill="white"/>
</mask>
<g mask="url(#mask2_15847_135147)">
<path fill-rule="evenodd" clip-rule="evenodd" d="M82.8643 92.1539H92.2773V70.9746H82.8643V92.1539Z" fill="#155AA9"/>
<path fill-rule="evenodd" clip-rule="evenodd" d="M33.4453 43.9109V23.9082H24.0322V47.4408H33.4453V43.9109Z" fill="#155AA9"/>
<path fill-rule="evenodd" clip-rule="evenodd" d="M68.7445 33.3223H45.2119V61.5614H68.7445H92.2771V33.3223H68.7445Z" fill="#EF7733"/>
<path fill-rule="evenodd" clip-rule="evenodd" d="M81.687 38.0273H68.744H55.8011C55.8011 41.2763 53.1669 43.9105 49.918 43.9105V50.9703C53.1669 50.9703 55.8011 53.6044 55.8011 56.8534H68.744H81.687C81.687 53.6044 84.3211 50.9703 87.5701 50.9703V43.9105C84.3211 43.9105 81.687 41.2763 81.687 38.0273" fill="#155AA9"/>
<path fill-rule="evenodd" clip-rule="evenodd" d="M73.4501 47.4409C73.4501 50.0401 71.3428 52.1474 68.7436 52.1474C66.1445 52.1474 64.0371 50.0401 64.0371 47.4409C64.0371 44.8417 66.1445 42.7344 68.7436 42.7344C71.3428 42.7344 73.4501 44.8417 73.4501 47.4409" fill="#ECECF1"/>
<path fill-rule="evenodd" clip-rule="evenodd" d="M62.5669 38.0278L57.8604 33.3212H70.8976L64.2411 26.6648C62.4761 24.8998 60.0816 23.9082 57.5852 23.9082H42.7923C42.0621 23.9088 41.3411 24.0788 40.6872 24.4046L38.0496 25.7237C37.3441 26.0764 36.5616 26.2465 35.7739 26.2178L33.4453 26.1334V43.9109H36.9752L37.987 44.5814C40.1167 46.005 42.6543 46.6916 45.2116 46.5348V38.7855C47.5247 39.3768 49.9814 38.809 51.8009 37.2631L57.9782 43.4404C59.3588 44.821 61.5976 44.821 62.9789 43.4404C64.3595 42.0592 64.3595 39.8203 62.9789 38.4397L62.5669 38.0278Z" fill="#ECECF1"/>
<path fill-rule="evenodd" clip-rule="evenodd" d="M57.8599 33.3238L54.6592 30.123H55.8358L59.0365 33.3238H57.8599Z" fill="#D3CEC7"/>
<path fill-rule="evenodd" clip-rule="evenodd" d="M42.3652 37.4043C43.2034 38.0644 44.175 38.5361 45.2125 38.7855Z" fill="#EBE5DD"/>
<path fill-rule="evenodd" clip-rule="evenodd" d="M42.3642 37.4049L41.6816 36.8516V38.0282L42.3642 38.5815" fill="#D3CEC7"/>
<path fill-rule="evenodd" clip-rule="evenodd" d="M42.3652 37.4043C43.2034 38.0644 44.175 38.5361 45.2125 38.7855V39.9621C44.175 39.7127 43.2034 39.241 42.3652 38.5809" fill="#D3CEC7"/>
<path fill-rule="evenodd" clip-rule="evenodd" d="M56.4089 81.5637L68.6342 78.293L69.1444 79.6471L57.5855 82.7403C57.046 82.8702 56.5002 82.9724 55.9499 83.046C54.7169 83.0408 53.5753 82.395 52.9365 81.3401C53.4887 81.6821 54.124 81.8654 54.7732 81.8693C55.3236 81.7958 55.8694 81.6936 56.4089 81.5637" fill="#D7D2CC"/>
</g>
</g>
</svg>
