<svg width="147" height="151" viewBox="0 0 147 151" fill="none" xmlns="http://www.w3.org/2000/svg">
<path d="M24.7932 139.929C26.6393 141.921 29.9895 141.495 30.8292 144.813C30.0764 144.761 29.5781 144.772 29.2069 144.634C24.6467 143.046 20.0017 141.438 15.4627 139.765C14.7204 139.49 13.7021 138.876 13.5427 138.25C13.2556 137.052 14.3899 136.659 15.3651 136.362C18.4499 135.374 21.5558 134.301 24.6936 133.281C24.8751 135.264 24.8751 135.264 19.9888 137.695C29.8401 139.926 38.7527 133.272 38.9267 123.359C37.9301 123.381 36.9653 123.455 35.9686 123.477C33.0847 123.479 30.529 122.707 28.3223 120.715C26.7416 119.284 25.9135 117.546 26.4953 115.393C27.1301 113.209 28.8366 112.328 30.9463 111.998C35.4625 111.231 39.2067 113.381 40.7892 117.696C40.9698 118.236 41.2564 118.713 41.6173 119.434C46.7686 116.844 50.7528 113.152 52.7852 107.891C55.9821 99.7676 50.7833 94.2363 45.0882 91.9603C44.3988 91.6533 43.6142 91.5477 42.4476 91.1668C44.186 90.3387 45.5433 90.6771 46.8477 91.0474C51.9485 92.4543 56.0019 97.5198 56.3021 102.821C56.4527 106.193 55.6701 109.331 53.8376 112.163C51.1365 116.311 47.6504 119.632 43.1243 121.702C42.6685 121.904 42.2446 122.159 41.6828 122.424C41.3146 126.973 40.3525 131.374 36.9937 134.906C33.6772 138.269 29.2032 138.866 24.7932 139.929ZM38.84 120.454C38.3388 115.778 35.1139 113.172 31.2233 114.139C30.2692 114.352 29.22 115.127 28.7858 115.965C28.1822 117.121 28.9887 118.223 30.0177 118.975C32.6166 121.02 35.5219 121.293 38.84 120.454Z" fill="#CCCCCC"/>
<circle cx="88.155" cy="58.9948" r="57.155" fill="white" stroke="#F26922" stroke-width="2" stroke-linecap="round" stroke-linejoin="round" stroke-dasharray="322 20"/>
<mask id="mask0_15859_135178" style="mask-type:alpha" maskUnits="userSpaceOnUse" x="53" y="23" width="69" height="70">
<rect x="53.1807" y="23.8984" width="68.2448" height="68.2448" fill="white"/>
</mask>
<g mask="url(#mask0_15859_135178)">
<mask id="mask1_15859_135178" style="mask-type:alpha" maskUnits="userSpaceOnUse" x="72" y="23" width="47" height="26">
<path fill-rule="evenodd" clip-rule="evenodd" d="M72.4082 23.8984H118.761V48.9462H72.4082V23.8984Z" fill="white"/>
</mask>
<g mask="url(#mask1_15859_135178)">
<path fill-rule="evenodd" clip-rule="evenodd" d="M91.5374 25.5707L73.2856 43.812C72.1157 44.985 72.1157 46.8962 73.2856 48.0692C74.4594 49.2385 76.3756 49.2385 77.5454 48.0692L79.6247 45.991L95.5833 30.0417L111.542 45.9912L113.621 48.0694C114.795 49.2386 116.707 49.2386 117.881 48.0694C119.055 46.8963 119.055 44.9852 117.881 43.8121L112.953 38.8866L106.928 32.8658L99.6294 25.5707C98.9142 24.8559 98.0554 24.3703 97.142 24.1141C96.1236 23.8266 95.0432 23.8266 94.0249 24.1141C93.1154 24.3705 92.2524 24.856 91.5374 25.5707Z" fill="#EF7733"/>
</g>
<path fill-rule="evenodd" clip-rule="evenodd" d="M106.928 25.9667V32.8654L112.952 38.8862V25.9667C112.952 24.9956 112.159 24.2031 111.188 24.2031H108.692C107.724 24.2031 106.928 24.9955 106.928 25.9667Z" fill="#EF7733"/>
<path fill-rule="evenodd" clip-rule="evenodd" d="M67.02 75.82L76.8212 68.1704C77.3115 67.7877 77.9287 67.6054 78.5483 67.6598L85.4863 68.2714C85.7308 68.2929 85.9698 68.3494 86.1978 68.4397C87.8972 69.1123 95.3867 72.0692 96.5829 72.4158C97.0707 72.5571 97.0541 73.0234 96.8336 73.5617C96.2979 74.8697 94.9239 75.6324 93.5204 75.4641L87.2738 74.715C86.3998 74.6105 85.5391 74.9936 85.032 75.7131C84.3257 76.7157 85.0679 78.0943 86.2939 78.0565L94.1262 77.816L104.081 75.5453L110.684 74.7271C112.063 74.5561 113.428 75.1267 114.276 76.2271C114.857 76.9817 114.481 78.0843 113.56 78.3271L104.363 80.7506L85.2957 88.6388C85.1799 88.6869 85.0524 88.7004 84.929 88.6782L70.1319 86.0099L63.6624 87.1564L60.96 77.3658L67.02 75.82Z" fill="#ECECF1"/>
<mask id="mask2_15859_135178" style="mask-type:alpha" maskUnits="userSpaceOnUse" x="55" y="74" width="11" height="19">
<path fill-rule="evenodd" clip-rule="evenodd" d="M55.7754 74.9434H65.0954V92.009H55.7754V74.9434Z" fill="white"/>
</mask>
<g mask="url(#mask2_15859_135178)">
<path fill-rule="evenodd" clip-rule="evenodd" d="M61.6853 75.4415L65.0761 89.1683C65.1624 89.518 64.9502 89.872 64.6009 89.9605L56.5913 91.9887C56.1773 92.0936 55.7754 91.7806 55.7754 91.3535V75.5985C55.7754 75.2368 56.0688 74.9434 56.4306 74.9434H61.0494C61.3507 74.9435 61.613 75.1489 61.6853 75.4415Z" fill="#155AA9"/>
</g>
<path fill-rule="evenodd" clip-rule="evenodd" d="M95.5817 30.043L79.623 45.9923V62.0619C79.623 63.7207 80.9795 65.0726 82.6352 65.0726H108.528C110.184 65.0726 111.54 63.717 111.54 62.0619V45.9923L95.5817 30.043Z" fill="#ECECF1"/>
<path fill-rule="evenodd" clip-rule="evenodd" d="M97.8028 45.5731H93.3621C92.1357 45.5731 91.1416 44.5791 91.1416 43.3526V38.9119C91.1416 37.6854 92.1357 36.6914 93.3621 36.6914H97.8028C99.0292 36.6914 100.023 37.6854 100.023 38.9119V43.3526C100.023 44.5791 99.0292 45.5731 97.8028 45.5731Z" fill="#155AA9"/>
<path fill-rule="evenodd" clip-rule="evenodd" d="M100.023 40.392H96.3226V36.6914H94.8423V40.392H91.1416V41.8723H94.8423V45.5731H96.3226V41.8723H100.023V40.392Z" fill="#ECECF1"/>
<path fill-rule="evenodd" clip-rule="evenodd" d="M90.8135 65.0703H100.351V48.9453H90.8135V65.0703Z" fill="#EF7733"/>
<path fill-rule="evenodd" clip-rule="evenodd" d="M97.6582 57.775H99.3923V56.041H97.6582V57.775Z" fill="#155AA9"/>
</g>
</svg>
