<svg width="64" height="64" viewBox="0 0 64 64" fill="none" xmlns="http://www.w3.org/2000/svg">
<path d="M63.8325 31.2278C63.7776 31.107 62.6149 28.5582 60.7765 26.3024C61.6115 23.5137 61.7104 20.7122 61.714 20.5805C61.7323 20.0404 61.5163 19.5204 61.1227 19.1522C61.0257 19.0607 58.8498 17.1509 56.2901 15.7703C55.9935 12.8754 55.0139 10.2497 54.9662 10.1252C54.7759 9.62174 54.3785 9.22437 53.875 9.034C53.7505 8.98638 51.1248 7.88177 48.23 7.58515C46.8493 5.02356 44.9378 2.97283 44.848 2.87571C44.4781 2.48209 43.9306 2.20372 43.4198 2.28609C43.2879 2.28972 40.4864 2.38859 37.6978 3.22358C35.4419 1.38523 32.893 0.222497 32.7722 0.167498C32.5268 0.0558742 32.2632 0 31.9996 0C31.7359 0 31.4722 0.0558742 31.2268 0.167498C31.1059 0.222372 28.5572 1.38511 26.3014 3.22346C23.5127 2.38847 20.7112 2.28959 20.5795 2.28597C20.0356 2.20722 19.5193 2.48184 19.1512 2.87559C19.0615 2.97258 17.1499 5.02343 15.7693 7.58502C12.8744 7.88164 10.2487 8.98625 10.1242 9.03388C9.62073 9.22425 9.22336 9.62162 9.03299 10.1251C8.98536 10.2496 7.88076 12.8753 7.58414 15.7702C5.02254 17.1508 2.97182 19.0624 2.8747 19.1521C2.48283 19.522 2.26683 20.042 2.28508 20.5803C2.28871 20.7122 2.38758 23.5137 3.22257 26.3023C1.38422 28.5581 0.221485 31.107 0.166611 31.2277C-0.054886 31.7184 -0.054886 32.2824 0.166611 32.7731C0.221485 32.8939 1.38422 35.4426 3.22257 37.6985C2.38758 40.4872 2.28871 43.2887 2.28508 43.4204C2.26683 43.9588 2.48283 44.4788 2.8747 44.8486C2.9717 44.9384 5.02254 46.85 7.58414 48.2306C7.88076 51.1254 8.98536 53.7511 9.03299 53.8756C9.22336 54.3791 9.62073 54.7765 10.1261 54.9669C10.2506 55.0145 12.8744 55.9941 15.7693 56.2907C17.1499 58.8506 19.0596 61.0263 19.1512 61.1233C19.5192 61.5169 20.043 61.7642 20.5795 61.7147C20.7113 61.711 23.5128 61.6122 26.2996 60.7772C28.5574 62.6136 31.1061 63.7783 31.2269 63.8331C31.4712 63.9441 31.7356 63.9998 31.9997 63.9998C32.264 63.9998 32.5284 63.9441 32.7724 63.8331C32.8933 63.7783 35.442 62.6136 37.6978 60.7772C40.4866 61.6122 43.288 61.711 43.4198 61.7147C43.9709 61.7604 44.4781 61.5169 44.848 61.1233C44.9395 61.0263 46.8493 58.9754 48.23 56.4157C51.1248 56.1191 53.7486 55.0145 53.8731 54.9669C54.3785 54.7765 54.7759 54.3791 54.9662 53.8756C55.0139 53.7511 56.1185 51.1254 56.4151 48.2306C58.9749 46.85 61.0257 44.9403 61.1227 44.8486C61.5163 44.4806 61.7324 43.9607 61.714 43.4204C61.7104 43.2885 61.6115 40.4871 60.7765 37.6985C62.6149 35.4426 63.7776 32.8938 63.8325 32.7731C64.054 32.2824 64.054 31.7184 63.8325 31.2278Z" fill="#F4F4F4"/>
<path d="M32.7726 63.8334C32.8935 63.7785 35.4422 62.6139 37.698 60.7774C40.4868 61.6124 43.2882 61.7113 43.42 61.7149C43.9711 61.7607 44.4783 61.5172 44.8482 61.1235C44.9397 61.0265 46.8495 58.9757 48.2302 56.416C51.125 56.1194 53.7488 55.0147 53.8733 54.9671C54.3787 54.7767 54.7761 54.3794 54.9664 53.8759C55.0141 53.7514 56.1187 51.1257 56.4153 48.2308C58.9751 46.8502 61.0259 44.9405 61.1228 44.8489C61.5165 44.4809 61.7326 43.9609 61.7142 43.4207C61.7106 43.2888 61.6117 40.4873 60.7767 37.6987C62.6151 35.4429 63.7778 32.8941 63.8327 32.7733C64.0542 32.2826 64.0542 31.7186 63.8327 31.2279C63.7778 31.1071 62.6151 28.5584 60.7767 26.3025C61.6117 23.5138 61.7106 20.7123 61.7142 20.5806C61.7325 20.0405 61.5165 19.5205 61.1228 19.1524C61.0259 19.0609 58.85 17.151 56.2903 15.7704C55.9937 12.8756 55.0141 10.2499 54.9664 10.1254C54.7761 9.62187 54.3787 9.2245 53.8752 9.03413C53.7507 8.9865 51.125 7.88189 48.2302 7.58527C46.8495 5.02368 44.9379 2.97296 44.8482 2.87584C44.4783 2.48222 43.9308 2.20384 43.42 2.28622C43.2881 2.28984 40.4866 2.38872 37.698 3.22371C35.4423 1.38523 32.8935 0.222497 32.7726 0.167498C32.5272 0.0558742 32.2636 0 32 0V64C32.2644 64 32.5286 63.9444 32.7726 63.8334Z" fill="#E1E6F0"/>
<path d="M57.5889 36.2881C58.8266 34.9716 59.8136 33.2705 60.3262 32.2964C59.8135 31.3223 58.8266 29.6213 57.5889 28.3047C57.0981 27.7811 56.948 27.0266 57.2008 26.3565C57.8416 24.6646 58.1016 22.7128 58.2024 21.6178C57.3564 20.9147 55.6678 19.7191 54.0198 18.9775C53.3662 18.6827 52.9394 18.0418 52.9157 17.324C52.8608 15.5058 52.3554 13.6125 52.0294 12.5652C50.9785 12.2393 49.076 11.7321 47.2688 11.6772C46.551 11.6534 45.9102 11.2249 45.6153 10.5731C44.8737 8.92335 43.6781 7.2365 42.9749 6.39051C41.88 6.49126 39.9281 6.75125 38.2363 7.39212C37.5734 7.64662 36.8154 7.50012 36.288 7.004C34.9716 5.76627 33.2705 4.77928 32.2963 4.26666C31.3222 4.77941 29.6213 5.76627 28.3046 7.004C27.7792 7.49649 27.0193 7.64299 26.3564 7.39212C24.6646 6.75125 22.7127 6.49126 21.6177 6.39051C20.9146 7.2365 19.719 8.92335 18.9774 10.5731C18.6827 11.2249 18.0418 11.6534 17.3239 11.6772C15.5057 11.7321 13.6125 12.2374 12.5651 12.5634C12.2392 13.6144 11.732 15.5169 11.6771 17.3241C11.6534 18.0418 11.2249 18.6827 10.573 18.9776C8.92329 19.7192 7.23644 20.9148 6.39045 21.6179C6.4912 22.7129 6.75119 24.6648 7.39206 26.3566C7.64468 27.0267 7.49456 27.7811 7.00394 28.3048C5.76621 29.6213 4.77922 31.3224 4.2666 32.2965C4.77934 33.2706 5.76621 34.9716 7.00394 36.2882C7.49468 36.8118 7.64481 37.5663 7.39206 38.2364C6.75119 39.9283 6.4912 41.8801 6.39045 42.9751C7.23644 43.6782 8.92329 44.8739 10.573 45.6155C11.2249 45.9102 11.6534 46.5511 11.6771 47.2689C11.732 49.0872 12.2374 50.9804 12.5634 52.0278C13.6143 52.3536 15.5168 52.8609 17.3259 52.9176C18.0419 52.9396 18.6827 53.3681 18.9775 54.0199C19.7191 55.6678 20.9148 57.3564 21.6179 58.2024C22.7129 58.1017 24.6628 57.8417 26.3548 57.2008C27.0342 56.9454 27.7864 57.1044 28.3011 57.5872C29.6195 58.8249 31.3224 59.8119 32.2965 60.3264C33.2706 59.8119 34.9734 58.8268 36.2899 57.5891C36.8118 57.0966 37.5716 56.9501 38.2363 57.2009C39.9281 57.8418 41.88 58.1018 42.9749 58.2025C43.6781 57.3566 44.8737 55.668 45.6153 54.02C45.91 53.3681 46.5509 52.9396 47.2669 52.9177C49.0741 52.861 50.9766 52.3538 52.0276 52.0279C52.3534 50.9769 52.8607 49.0763 52.9156 47.2691C52.9393 46.5513 53.3661 45.9105 54.0197 45.6156C55.6676 44.874 57.3563 43.6784 58.2022 42.9753C58.1015 41.8803 57.8415 39.9284 57.2006 38.2366C56.948 37.5662 57.0983 36.8117 57.5889 36.2881Z" fill="url(#paint0_linear_5751_44845)"/>
<mask id="mask0_5751_44845" style="mask-type:alpha" maskUnits="userSpaceOnUse" x="4" y="4" width="29" height="58">
<rect x="4.2666" y="4.26666" width="28.4444" height="56.8889" fill="#C4C4C4"/>
</mask>
<g mask="url(#mask0_5751_44845)">
<path d="M57.5889 36.2881C58.8266 34.9716 59.8136 33.2705 60.3262 32.2964C59.8135 31.3223 58.8266 29.6213 57.5889 28.3047C57.0981 27.7811 56.948 27.0266 57.2008 26.3565C57.8416 24.6646 58.1016 22.7128 58.2024 21.6178C57.3564 20.9147 55.6678 19.7191 54.0198 18.9775C53.3662 18.6827 52.9394 18.0418 52.9157 17.324C52.8608 15.5058 52.3554 13.6125 52.0294 12.5652C50.9785 12.2393 49.076 11.7321 47.2688 11.6772C46.551 11.6534 45.9102 11.2249 45.6153 10.5731C44.8737 8.92335 43.6781 7.2365 42.975 6.39051C41.88 6.49126 39.9281 6.75125 38.2363 7.39212C37.5734 7.64662 36.8154 7.50012 36.288 7.004C34.9716 5.76627 33.2705 4.77928 32.2963 4.26666C31.3222 4.77941 29.6213 5.76627 28.3046 7.004C27.7792 7.49649 27.0193 7.64299 26.3564 7.39212C24.6646 6.75125 22.7127 6.49126 21.6177 6.39051C20.9146 7.2365 19.719 8.92335 18.9774 10.5731C18.6827 11.2249 18.0418 11.6534 17.3239 11.6772C15.5057 11.7321 13.6125 12.2374 12.5651 12.5634C12.2392 13.6144 11.732 15.5169 11.6771 17.3241C11.6534 18.0418 11.2249 18.6827 10.573 18.9776C8.92329 19.7192 7.23644 20.9148 6.39045 21.6179C6.4912 22.7129 6.75119 24.6648 7.39206 26.3566C7.64468 27.0267 7.49456 27.7811 7.00394 28.3048C5.76621 29.6213 4.77922 31.3224 4.2666 32.2965C4.77934 33.2706 5.76621 34.9716 7.00394 36.2882C7.49468 36.8118 7.64481 37.5663 7.39206 38.2364C6.75119 39.9283 6.4912 41.8801 6.39045 42.9751C7.23644 43.6782 8.92329 44.8739 10.573 45.6155C11.2249 45.9102 11.6534 46.5511 11.6771 47.2689C11.732 49.0872 12.2374 50.9804 12.5634 52.0278C13.6143 52.3536 15.5168 52.8609 17.3259 52.9176C18.0419 52.9396 18.6827 53.3681 18.9775 54.0198C19.7191 55.6678 20.9148 57.3564 21.6179 58.2024C22.7129 58.1017 24.6628 57.8417 26.3548 57.2008C27.0342 56.9454 27.7864 57.1044 28.3012 57.5872C29.6195 58.8249 31.3224 59.8119 32.2965 60.3264C33.2706 59.8119 34.9734 58.8268 36.2899 57.5891C36.8118 57.0966 37.5717 56.9501 38.2363 57.2009C39.9281 57.8418 41.88 58.1018 42.975 58.2025C43.6781 57.3566 44.8737 55.668 45.6153 54.02C45.91 53.3681 46.5509 52.9396 47.2669 52.9177C49.0741 52.861 50.9766 52.3537 52.0276 52.0279C52.3534 50.9769 52.8607 49.0763 52.9156 47.2691C52.9393 46.5513 53.3661 45.9105 54.0197 45.6156C55.6677 44.874 57.3563 43.6784 58.2022 42.9753C58.1015 41.8803 57.8415 39.9284 57.2006 38.2366C56.948 37.5662 57.0983 36.8117 57.5889 36.2881Z" fill="#56962B"/>
</g>
<path d="M53.0508 42.0232L53.0509 42.0233L57.5374 46.6534C57.5374 46.6534 57.5375 46.6534 57.5375 46.6534C57.756 46.879 57.8809 47.1867 57.8809 47.5116C57.8809 47.8365 57.7559 48.1443 57.5374 48.3699L45.202 61.1044L43.1515 63.2212C42.701 63.6863 41.9772 63.6863 41.5267 63.2212L33.4844 54.9187C33.0265 54.4459 33.0265 53.6747 33.4844 53.202L37.9694 48.5718C38.4199 48.1068 39.1437 48.1068 39.5942 48.5718L42.0303 51.0867L42.3392 51.4056L42.6481 51.0867L45.8198 47.8118L51.426 42.0232C51.8765 41.5582 52.6003 41.5582 53.0508 42.0232Z" fill="#F17423" stroke="#F4F4F4" stroke-width="0.86"/>
<g clip-path="url(#clip0_5751_44845)">
<g filter="url(#filter0_d_5751_44845)">
<path d="M35.9692 12.6305L34.0457 12.351L33.1859 10.6078C33.1624 10.5601 33.1237 10.5214 33.076 10.498C32.9563 10.4389 32.8109 10.4881 32.751 10.6078L31.8912 12.351L29.9677 12.6305C29.9146 12.6381 29.8662 12.6631 29.829 12.701C29.7842 12.7471 29.7594 12.8092 29.7603 12.8735C29.7611 12.9379 29.7875 12.9993 29.8336 13.0442L31.2252 14.401L30.8965 16.3169C30.8887 16.3615 30.8937 16.4073 30.9107 16.4492C30.9277 16.4911 30.9561 16.5274 30.9927 16.554C31.0293 16.5806 31.0726 16.5964 31.1177 16.5996C31.1629 16.6028 31.208 16.5933 31.248 16.5722L32.9684 15.6677L34.6889 16.5722C34.7359 16.5972 34.7904 16.6056 34.8427 16.5965C34.9745 16.5737 35.0631 16.4487 35.0404 16.3169L34.7116 14.401L36.1033 13.0442C36.1412 13.0071 36.1662 12.9586 36.1737 12.9055C36.1942 12.773 36.1018 12.6502 35.9692 12.6305Z" fill="#FCB931"/>
</g>
</g>
<g clip-path="url(#clip1_5751_44845)">
<g filter="url(#filter1_d_5751_44845)">
<path d="M43.9007 14.4249L42.362 14.2013L41.6741 12.8067C41.6553 12.7686 41.6244 12.7376 41.5862 12.7189C41.4904 12.6716 41.3741 12.711 41.3262 12.8067L40.6383 14.2013L39.0995 14.4249C39.0571 14.431 39.0183 14.451 38.9886 14.4813C38.9527 14.5182 38.9329 14.5678 38.9336 14.6193C38.9343 14.6708 38.9554 14.7199 38.9923 14.7558L40.1056 15.8413L39.8426 17.374C39.8364 17.4097 39.8403 17.4463 39.8539 17.4799C39.8676 17.5134 39.8903 17.5424 39.9196 17.5637C39.9488 17.585 39.9835 17.5976 40.0196 17.6002C40.0557 17.6027 40.0918 17.5952 40.1238 17.5783L41.5001 16.8546L42.8765 17.5783C42.9141 17.5983 42.9577 17.6049 42.9995 17.5977C43.105 17.5795 43.1759 17.4795 43.1577 17.374L42.8947 15.8413L44.008 14.7558C44.0383 14.7261 44.0583 14.6873 44.0644 14.6449C44.0807 14.5389 44.0068 14.4407 43.9007 14.4249Z" fill="#FCB931"/>
</g>
</g>
<g clip-path="url(#clip2_5751_44845)">
<g filter="url(#filter2_d_5751_44845)">
<path d="M26.8378 14.4249L25.299 14.2013L24.6111 12.8067C24.5923 12.7686 24.5614 12.7376 24.5232 12.7189C24.4275 12.6716 24.3111 12.711 24.2632 12.8067L23.5753 14.2013L22.0365 14.4249C21.9941 14.431 21.9553 14.451 21.9256 14.4813C21.8897 14.5182 21.8699 14.5678 21.8706 14.6193C21.8713 14.6708 21.8924 14.7199 21.9293 14.7558L23.0426 15.8413L22.7796 17.374C22.7734 17.4097 22.7773 17.4463 22.791 17.4799C22.8046 17.5134 22.8273 17.5424 22.8566 17.5637C22.8859 17.585 22.9205 17.5976 22.9566 17.6002C22.9927 17.6027 23.0288 17.5952 23.0608 17.5783L24.4371 16.8546L25.8135 17.5783C25.8511 17.5983 25.8947 17.6049 25.9365 17.5977C26.042 17.5795 26.1129 17.4795 26.0947 17.374L25.8317 15.8413L26.945 14.7558C26.9753 14.7261 26.9953 14.6873 27.0014 14.6449C27.0178 14.5389 26.9438 14.4407 26.8378 14.4249Z" fill="#FCB931"/>
</g>
</g>
<g filter="url(#filter3_d_5751_44845)">
<path d="M13.0646 36V32.808H12.6446V30.948H13.0646V27.996H15.2846C16.0366 27.996 16.7046 28.08 17.2886 28.248C17.8806 28.416 18.3766 28.668 18.7766 29.004C19.1846 29.34 19.4926 29.76 19.7006 30.264C19.9166 30.76 20.0246 31.336 20.0246 31.992C20.0246 32.648 19.9166 33.228 19.7006 33.732C19.4926 34.228 19.1846 34.644 18.7766 34.98C18.3766 35.316 17.8806 35.572 17.2886 35.748C16.7046 35.916 16.0366 36 15.2846 36H13.0646ZM15.6206 33.72C16.2206 33.72 16.6846 33.58 17.0126 33.3C17.3406 33.012 17.5046 32.576 17.5046 31.992C17.5046 31.408 17.3406 30.976 17.0126 30.696C16.6846 30.416 16.2206 30.276 15.6206 30.276V30.948H16.7246V32.808H15.6206V33.72ZM22.8178 27.996H24.7378L27.7738 36H25.2538L24.9898 35.28H22.5658L22.3018 36H19.7818L22.8178 27.996ZM24.3178 33.516L23.7778 32.112L23.2378 33.516H24.3178ZM21.8578 27.528C21.8578 26.952 21.9738 26.54 22.2058 26.292C22.4378 26.044 22.7378 25.92 23.1058 25.92C23.2498 25.92 23.3858 25.94 23.5138 25.98C23.6498 26.02 23.7698 26.064 23.8738 26.112C23.9858 26.16 24.0818 26.204 24.1618 26.244C24.2498 26.284 24.3258 26.304 24.3898 26.304C24.5738 26.304 24.6658 26.176 24.6658 25.92H25.6858C25.6858 26.496 25.5698 26.908 25.3378 27.156C25.1058 27.404 24.8058 27.528 24.4378 27.528C24.2938 27.528 24.1538 27.508 24.0178 27.468C23.8898 27.428 23.7698 27.388 23.6578 27.348C23.5538 27.3 23.4578 27.256 23.3698 27.216C23.2818 27.176 23.2098 27.156 23.1538 27.156C22.9698 27.156 22.8778 27.28 22.8778 27.528H21.8578ZM29.8759 27.996H33.0079C33.4079 27.996 33.7719 28.044 34.0999 28.14C34.4359 28.228 34.7199 28.364 34.9519 28.548C35.1919 28.724 35.3759 28.948 35.5039 29.22C35.6399 29.484 35.7079 29.796 35.7079 30.156C35.7079 30.412 35.6759 30.632 35.6119 30.816C35.5479 30.992 35.4799 31.14 35.4079 31.26C35.3199 31.404 35.2199 31.524 35.1079 31.62C35.2839 31.732 35.4439 31.876 35.5879 32.052C35.7079 32.204 35.8159 32.396 35.9119 32.628C36.0159 32.86 36.0679 33.144 36.0679 33.48C36.0679 33.864 35.9999 34.212 35.8639 34.524C35.7279 34.836 35.5319 35.104 35.2759 35.328C35.0279 35.544 34.7199 35.712 34.3519 35.832C33.9919 35.944 33.5879 36 33.1399 36H29.8759V27.996ZM32.6359 34.116C33.2439 34.116 33.5479 33.884 33.5479 33.42C33.5479 32.956 33.2439 32.724 32.6359 32.724H32.3479V34.116H32.6359ZM33.2359 30.432C33.2359 30.064 33.0359 29.88 32.6359 29.88H32.3479V30.984H32.6359C33.0359 30.984 33.2359 30.8 33.2359 30.432ZM38.7384 27.996H40.6584L43.6944 36H41.1744L40.9104 35.28H38.4864L38.2224 36H35.7024L38.7384 27.996ZM40.2384 33.516L39.6984 32.112L39.1584 33.516H40.2384ZM39.1344 27.528L40.1304 25.668H41.8944L40.4544 27.528H39.1344ZM43.6341 27.996H45.7341L47.9421 31.08V27.996H50.4502V36H48.3381L46.1421 32.928V36H43.6341V27.996Z" fill="white"/>
</g>
<defs>
<filter id="filter0_d_5751_44845" x="28.7603" y="10.473" width="8.4165" height="8.12726" filterUnits="userSpaceOnUse" color-interpolation-filters="sRGB">
<feFlood flood-opacity="0" result="BackgroundImageFix"/>
<feColorMatrix in="SourceAlpha" type="matrix" values="0 0 0 0 0 0 0 0 0 0 0 0 0 0 0 0 0 0 127 0" result="hardAlpha"/>
<feOffset dy="1"/>
<feGaussianBlur stdDeviation="0.5"/>
<feColorMatrix type="matrix" values="0 0 0 0 1 0 0 0 0 1 0 0 0 0 1 0 0 0 0.1 0"/>
<feBlend mode="normal" in2="BackgroundImageFix" result="effect1_dropShadow_5751_44845"/>
<feBlend mode="normal" in="SourceGraphic" in2="effect1_dropShadow_5751_44845" result="shape"/>
</filter>
<filter id="filter1_d_5751_44845" x="37.9336" y="12.6989" width="7.1333" height="6.90179" filterUnits="userSpaceOnUse" color-interpolation-filters="sRGB">
<feFlood flood-opacity="0" result="BackgroundImageFix"/>
<feColorMatrix in="SourceAlpha" type="matrix" values="0 0 0 0 0 0 0 0 0 0 0 0 0 0 0 0 0 0 127 0" result="hardAlpha"/>
<feOffset dy="1"/>
<feGaussianBlur stdDeviation="0.5"/>
<feColorMatrix type="matrix" values="0 0 0 0 1 0 0 0 0 1 0 0 0 0 1 0 0 0 0.15 0"/>
<feBlend mode="normal" in2="BackgroundImageFix" result="effect1_dropShadow_5751_44845"/>
<feBlend mode="normal" in="SourceGraphic" in2="effect1_dropShadow_5751_44845" result="shape"/>
</filter>
<filter id="filter2_d_5751_44845" x="20.8706" y="12.6989" width="7.1333" height="6.90179" filterUnits="userSpaceOnUse" color-interpolation-filters="sRGB">
<feFlood flood-opacity="0" result="BackgroundImageFix"/>
<feColorMatrix in="SourceAlpha" type="matrix" values="0 0 0 0 0 0 0 0 0 0 0 0 0 0 0 0 0 0 127 0" result="hardAlpha"/>
<feOffset dy="1"/>
<feGaussianBlur stdDeviation="0.5"/>
<feColorMatrix type="matrix" values="0 0 0 0 0 0 0 0 0 0 0 0 0 0 0 0 0 0 0.1 0"/>
<feBlend mode="normal" in2="BackgroundImageFix" result="effect1_dropShadow_5751_44845"/>
<feBlend mode="normal" in="SourceGraphic" in2="effect1_dropShadow_5751_44845" result="shape"/>
</filter>
<filter id="filter3_d_5751_44845" x="8.64453" y="25.668" width="45.8057" height="18.332" filterUnits="userSpaceOnUse" color-interpolation-filters="sRGB">
<feFlood flood-opacity="0" result="BackgroundImageFix"/>
<feColorMatrix in="SourceAlpha" type="matrix" values="0 0 0 0 0 0 0 0 0 0 0 0 0 0 0 0 0 0 127 0" result="hardAlpha"/>
<feOffset dy="4"/>
<feGaussianBlur stdDeviation="2"/>
<feComposite in2="hardAlpha" operator="out"/>
<feColorMatrix type="matrix" values="0 0 0 0 0 0 0 0 0 0 0 0 0 0 0 0 0 0 0.25 0"/>
<feBlend mode="normal" in2="BackgroundImageFix" result="effect1_dropShadow_5751_44845"/>
<feBlend mode="normal" in="SourceGraphic" in2="effect1_dropShadow_5751_44845" result="shape"/>
</filter>
<linearGradient id="paint0_linear_5751_44845" x1="8.53327" y1="27.0222" x2="65.4222" y2="27.0222" gradientUnits="userSpaceOnUse">
<stop stop-color="#377D42"/>
<stop offset="0.885417" stop-color="#56962B"/>
</linearGradient>
<clipPath id="clip0_5751_44845">
<rect width="7.7576" height="7.7576" fill="white" transform="translate(29.0884 9.95557)"/>
</clipPath>
<clipPath id="clip1_5751_44845">
<rect width="6.20608" height="6.20608" fill="white" transform="translate(38.3965 12.283)"/>
</clipPath>
<clipPath id="clip2_5751_44845">
<rect width="6.20608" height="6.20608" fill="white" transform="translate(21.3335 12.283)"/>
</clipPath>
</defs>
</svg>
