<svg
    xmlns="http://www.w3.org/2000/svg"
    viewBox="0 0 16 17"
    id="vector">
    <defs>
        <clipPath id="clip_path">
            <path d="M 0 0.5 L 16 0.5 L 16 16.5 L 0 16.5 Z"/>
        </clipPath>
        <clipPath id="clip_path_1">
            <path d="M 0 0.5 L 16 0.5 L 16 16.5 L 0 16.5 Z"/>
        </clipPath>
        <clipPath id="clip_path_2">
            <path d="M 0 0.5 L 16 0.5 L 16 16.5 L 0 16.5 Z"/>
        </clipPath>
        <clipPath id="clip_path_3">
            <path d="M 0 0.5 L 16 0.5 L 16 16.5 L 0 16.5 Z"/>
        </clipPath>
        <clipPath id="clip_path_4">
            <path d="M 0 0.5 L 16 0.5 L 16 16.5 L 0 16.5 Z"/>
        </clipPath>
        <clipPath id="clip_path_5">
            <path d="M 0 0.5 L 16 0.5 L 16 16.5 L 0 16.5 Z"/>
        </clipPath>
        <clipPath id="clip_path_6">
            <path d="M 0 0.5 L 16 0.5 L 16 16.5 L 0 16.5 Z"/>
        </clipPath>
        <clipPath id="clip_path_7">
            <path d="M 0 0.5 L 16 0.5 L 16 16.5 L 0 16.5 Z"/>
        </clipPath>
    </defs>
    <g id="group">
        <path
            id="path"
            clip-path="url(#clip_path)"
            d="M 10.813 10.469 C 10.64 10.469 10.5 10.609 10.5 10.781 L 10.5 12.938 C 10.5 13.799 9.799 14.5 8.938 14.5 L 5.564 14.5 C 5.391 14.5 5.251 14.64 5.251 14.812 L 5.251 15.434 L 4.505 14.688 C 4.456 14.577 4.346 14.5 4.218 14.5 L 2.188 14.5 C 1.326 14.5 0.625 13.799 0.625 12.938 L 0.625 8.125 C 0.625 7.263 1.326 6.563 2.188 6.563 L 5.344 6.563 C 5.516 6.563 5.656 6.423 5.656 6.25 C 5.656 6.077 5.516 5.938 5.344 5.938 L 2.188 5.938 C 0.981 5.938 0 6.919 0 8.125 L 0 12.938 C 0 14.144 0.981 15.125 2.188 15.125 L 4.058 15.125 L 5.341 16.409 C 5.401 16.468 5.481 16.5 5.563 16.5 C 5.603 16.5 5.643 16.492 5.682 16.476 C 5.799 16.428 5.875 16.314 5.875 16.188 L 5.876 15.125 L 8.938 15.125 C 10.144 15.125 11.125 14.144 11.125 12.938 L 11.125 10.781 C 11.125 10.609 10.985 10.469 10.813 10.469 Z"
            fill="#242933"/>
        <path
            id="path_1"
            clip-path="url(#clip_path_1)"
            d="M 11.458 0.5 L 10.667 0.5 C 8.163 0.5 6.125 2.538 6.125 5.042 C 6.125 7.547 8.163 9.584 10.667 9.584 L 11.458 9.584 C 11.849 9.584 12.236 9.534 12.611 9.436 L 13.779 10.604 C 13.839 10.664 13.919 10.695 14 10.695 C 14.04 10.695 14.081 10.688 14.12 10.672 C 14.236 10.623 14.313 10.509 14.313 10.383 L 14.313 8.575 C 14.807 8.174 15.218 7.668 15.506 7.103 C 15.834 6.461 16 5.768 16 5.042 C 16 2.538 13.962 0.5 11.458 0.5 Z M 13.812 8.173 C 13.734 8.232 13.688 8.324 13.688 8.423 L 13.688 9.629 L 12.923 8.864 C 12.863 8.805 12.784 8.773 12.702 8.773 C 12.671 8.773 12.64 8.778 12.61 8.787 C 12.238 8.901 11.851 8.959 11.458 8.959 L 10.667 8.959 C 8.507 8.959 6.75 7.202 6.75 5.042 C 6.75 2.882 8.507 1.125 10.667 1.125 L 11.458 1.125 C 13.618 1.125 15.375 2.882 15.375 5.042 C 15.375 6.284 14.805 7.425 13.812 8.173 Z"
            fill="#242933"/>
        <path
            id="path_2"
            clip-path="url(#clip_path_2)"
            d="M 12.47 3.92 C 12.425 3.265 11.897 2.738 11.243 2.693 C 10.872 2.667 10.518 2.792 10.247 3.045 C 9.98 3.295 9.827 3.647 9.827 4.013 C 9.827 4.185 9.967 4.325 10.139 4.325 C 10.312 4.325 10.452 4.185 10.452 4.013 C 10.452 3.817 10.531 3.636 10.674 3.502 C 10.817 3.369 11.004 3.303 11.2 3.316 C 11.545 3.34 11.822 3.618 11.846 3.962 C 11.87 4.311 11.642 4.618 11.303 4.694 C 11.029 4.755 10.838 4.994 10.838 5.274 L 10.838 6.024 C 10.838 6.197 10.977 6.337 11.15 6.337 C 11.323 6.337 11.463 6.197 11.462 6.024 L 11.462 5.298 C 12.092 5.146 12.515 4.57 12.47 3.92 Z"
            fill="#242933"/>
        <path
            id="path_3"
            clip-path="url(#clip_path_3)"
            d="M 11.371 7.039 C 11.313 6.981 11.232 6.948 11.15 6.948 C 11.068 6.948 10.987 6.981 10.929 7.039 C 10.871 7.097 10.837 7.178 10.837 7.26 C 10.837 7.343 10.871 7.423 10.929 7.481 C 10.987 7.54 11.068 7.573 11.15 7.573 C 11.232 7.573 11.313 7.54 11.371 7.481 C 11.429 7.423 11.462 7.343 11.462 7.26 C 11.462 7.178 11.429 7.097 11.371 7.039 Z"
            fill="#242933"/>
        <path
            id="path_4"
            clip-path="url(#clip_path_4)"
            d="M 8.594 10.188 L 2 10.188 C 1.827 10.188 1.688 10.327 1.688 10.5 C 1.688 10.673 1.827 10.813 2 10.813 L 8.594 10.813 C 8.766 10.813 8.906 10.673 8.906 10.5 C 8.906 10.327 8.766 10.188 8.594 10.188 Z"
            fill="#242933"/>
        <path
            id="path_5"
            clip-path="url(#clip_path_5)"
            d="M 8.815 12.029 C 8.757 11.971 8.676 11.938 8.594 11.938 C 8.512 11.938 8.431 11.971 8.373 12.029 C 8.315 12.087 8.281 12.168 8.281 12.25 C 8.281 12.332 8.315 12.413 8.373 12.471 C 8.431 12.529 8.512 12.563 8.594 12.563 C 8.676 12.563 8.757 12.529 8.815 12.471 C 8.873 12.413 8.906 12.332 8.906 12.25 C 8.906 12.168 8.873 12.087 8.815 12.029 Z"
            fill="#242933"/>
        <path
            id="path_6"
            clip-path="url(#clip_path_6)"
            d="M 7.365 11.938 L 2 11.938 C 1.827 11.938 1.688 12.077 1.688 12.25 C 1.688 12.423 1.827 12.563 2 12.563 L 7.365 12.563 C 7.537 12.563 7.677 12.423 7.677 12.25 C 7.677 12.077 7.537 11.938 7.365 11.938 Z"
            fill="#242933"/>
        <path
            id="path_7"
            clip-path="url(#clip_path_7)"
            d="M 6.563 8.438 L 2 8.438 C 1.827 8.438 1.688 8.577 1.688 8.75 C 1.688 8.923 1.827 9.063 2 9.063 L 6.563 9.063 C 6.735 9.063 6.875 8.923 6.875 8.75 C 6.875 8.577 6.735 8.438 6.563 8.438 Z"
            fill="#242933"/>
    </g>
</svg>
