<svg width="16" height="17" viewBox="0 0 16 17" fill="none" xmlns="http://www.w3.org/2000/svg">
<path fill-rule="evenodd" clip-rule="evenodd" d="M14.7629 0.574675C14.9103 0.665778 15 0.826712 15 1V16C15 16.2761 14.7761 16.5 14.5 16.5H11.5C11.2239 16.5 11 16.2761 11 16V14.5H10V16C10 16.2761 9.77614 16.5 9.5 16.5H0.5C0.223858 16.5 0 16.2761 0 16V10.5C0 10.2848 0.137715 10.0937 0.341886 10.0257L6 8.13962V5C6 4.81061 6.107 4.63748 6.27639 4.55279L14.2764 0.552787C14.4314 0.47529 14.6155 0.483572 14.7629 0.574675ZM6 9.19371L1 10.8604V15.5H6V9.19371ZM7 15.5H9V14C9 13.7239 9.22386 13.5 9.5 13.5H11.5C11.7761 13.5 12 13.7239 12 14V15.5H14V1.80902L7 5.30902V15.5Z" fill="#242933"/>
<path d="M2 11.5H3V12.5H2V11.5Z" fill="#242933"/>
<path d="M4 11.5H5V12.5H4V11.5Z" fill="#242933"/>
<path d="M2 13.5H3V14.5H2V13.5Z" fill="#242933"/>
<path d="M4 13.5H5V14.5H4V13.5Z" fill="#242933"/>
<path d="M8 9.5H9V10.5H8V9.5Z" fill="#242933"/>
<path d="M10 9.5H11V10.5H10V9.5Z" fill="#242933"/>
<path d="M8 11.5H9V12.5H8V11.5Z" fill="#242933"/>
<path d="M10 11.5H11V12.5H10V11.5Z" fill="#242933"/>
<path d="M12 9.5H13V10.5H12V9.5Z" fill="#242933"/>
<path d="M12 11.5H13V12.5H12V11.5Z" fill="#242933"/>
<path d="M8 7.5H9V8.5H8V7.5Z" fill="#242933"/>
<path d="M10 7.5H11V8.5H10V7.5Z" fill="#242933"/>
<path d="M12 7.5H13V8.5H12V7.5Z" fill="#242933"/>
<path d="M8 5.5H9V6.5H8V5.5Z" fill="#242933"/>
<path d="M10 5.5H11V6.5H10V5.5Z" fill="#242933"/>
<path d="M12 5.5H13V6.5H12V5.5Z" fill="#242933"/>
<path d="M12 3.5H13V4.5H12V3.5Z" fill="#242933"/>
</svg>
