<svg width="16" height="17" viewBox="0 0 16 17" fill="none" xmlns="http://www.w3.org/2000/svg">
<path fill-rule="evenodd" clip-rule="evenodd" d="M7.64645 1.64645C7.84171 1.45118 8.15829 1.45118 8.35355 1.64645L14.3536 7.64645C14.4473 7.74021 14.5 7.86739 14.5 8V15C14.5 15.2761 14.2761 15.5 14 15.5H9.5C9.22386 15.5 9 15.2761 9 15V11H7V15C7 15.2761 6.77614 15.5 6.5 15.5H2C1.72386 15.5 1.5 15.2761 1.5 15V8C1.5 7.86739 1.55268 7.74021 1.64645 7.64645L7.64645 1.64645ZM2.5 8.20711V14.5H6V10.5C6 10.2239 6.22386 10 6.5 10H9.5C9.77614 10 10 10.2239 10 10.5V14.5H13.5V8.20711L8 2.70711L2.5 8.20711Z" fill="#242933"/>
<path fill-rule="evenodd" clip-rule="evenodd" d="M13 3V6.5L11 4.5V3C11 2.72386 11.2239 2.5 11.5 2.5H12.5C12.7761 2.5 13 2.72386 13 3Z" fill="#242933"/>
</svg>
