<svg
    xmlns="http://www.w3.org/2000/svg"
    viewBox="0 0 16 16"
    id="vector">
    <path
        id="path"
        d="M 14.818 2.545 C 13.674 2.545 12.742 1.614 12.742 0.47 L 12.742 0 L 3.258 0 L 3.258 0.47 C 3.258 1.614 2.326 2.545 1.182 2.545 L 0.712 2.545 L 0.712 5.668 C 0.712 7.913 1.388 10.074 2.667 11.918 C 3.946 13.762 5.734 15.152 7.835 15.938 L 8 16 L 8.165 15.938 C 10.267 15.152 12.054 13.762 13.333 11.918 C 14.612 10.074 15.288 7.913 15.288 5.668 L 15.288 2.545 L 14.818 2.545 Z M 14.348 5.668 L 14.348 5.668 C 14.348 7.721 13.73 9.696 12.561 11.382 C 11.425 13.02 9.851 14.267 8 14.995 C 6.149 14.267 4.575 13.02 3.439 11.382 C 2.27 9.696 1.651 7.721 1.651 5.668 L 1.651 3.448 C 2.939 3.246 3.958 2.226 4.16 0.939 L 11.84 0.939 C 12.042 2.226 13.061 3.246 14.348 3.448 L 14.348 5.668 Z"
        fill="#4a4a4a"/>
    <path
        id="path_1"
        d="M 10.096 4.412 L 6.987 7.521 L 5.904 6.438 L 3.912 8.431 L 6.987 11.506 L 12.088 6.405 L 10.096 4.412 Z M 5.24 8.431 L 5.904 7.767 L 6.987 8.849 L 10.096 5.74 L 10.76 6.405 L 6.987 10.178 L 5.24 8.431 Z"
        fill="#4a4a4a"/>
</svg>
