<svg width="8" height="8" viewBox="0 0 8 8" fill="none" xmlns="http://www.w3.org/2000/svg">
<path fill-rule="evenodd" clip-rule="evenodd" d="M4.00063 0C4.13324 0 4.26042 0.0526785 4.35419 0.146447C4.44795 0.240215 4.50063 0.367392 4.50063 0.5V6.293L6.64663 4.146C6.69312 4.09951 6.74831 4.06264 6.80905 4.03748C6.86979 4.01232 6.93489 3.99937 7.00063 3.99937C7.06638 3.99937 7.13148 4.01232 7.19222 4.03748C7.25295 4.06264 7.30814 4.09951 7.35463 4.146C7.40112 4.19249 7.438 4.24768 7.46316 4.30842C7.48831 4.36916 7.50126 4.43426 7.50126 4.5C7.50126 4.56574 7.48831 4.63084 7.46316 4.69158C7.438 4.75232 7.40112 4.80751 7.35463 4.854L4.35463 7.854C4.30819 7.90056 4.25301 7.93751 4.19227 7.96271C4.13152 7.98792 4.0664 8.00089 4.00063 8.00089C3.93486 8.00089 3.86974 7.98792 3.809 7.96271C3.74825 7.93751 3.69308 7.90056 3.64663 7.854L0.646632 4.854C0.600144 4.80751 0.563267 4.75232 0.538108 4.69158C0.512949 4.63084 0.5 4.56574 0.5 4.5C0.5 4.43426 0.512949 4.36916 0.538108 4.30842C0.563267 4.24768 0.600144 4.19249 0.646632 4.146C0.740518 4.05211 0.867856 3.99937 1.00063 3.99937C1.06638 3.99937 1.13148 4.01232 1.19222 4.03748C1.25295 4.06264 1.30814 4.09951 1.35463 4.146L3.50063 6.293V0.5C3.50063 0.367392 3.55331 0.240215 3.64708 0.146447C3.74085 0.0526785 3.86802 0 4.00063 0Z" fill="#46842F"/>
</svg>
