<svg
    xmlns="http://www.w3.org/2000/svg"
    viewBox="0 0 16 17"
    id="vector">
    <path
        id="path"
        d="M 15.924 8.318 L 8.182 0.576 C 8.134 0.527 8.068 0.5 8 0.5 C 7.932 0.5 7.866 0.527 7.818 0.576 L 0.076 8.318 C 0.04 8.354 0.015 8.4 0.005 8.45 C -0.005 8.5 0 8.552 0.02 8.599 C 0.039 8.646 0.072 8.686 0.115 8.715 C 0.157 8.743 0.207 8.758 0.258 8.758 L 1.548 8.758 L 1.548 14.952 L 1.29 14.952 C 1.222 14.952 1.156 14.979 1.108 15.027 C 1.059 15.076 1.032 15.141 1.032 15.21 L 1.032 16.242 C 1.032 16.31 1.059 16.376 1.108 16.424 C 1.156 16.473 1.222 16.5 1.29 16.5 L 14.71 16.5 C 14.778 16.5 14.844 16.473 14.892 16.424 C 14.941 16.376 14.968 16.31 14.968 16.242 L 14.968 15.21 C 14.968 15.141 14.941 15.076 14.892 15.027 C 14.844 14.979 14.778 14.952 14.71 14.952 L 14.452 14.952 L 14.452 8.758 L 15.742 8.758 C 15.793 8.758 15.843 8.743 15.885 8.715 C 15.928 8.686 15.961 8.646 15.98 8.599 C 16 8.552 16.005 8.5 15.995 8.45 C 15.985 8.4 15.96 8.354 15.924 8.318 Z M 14.452 15.984 L 1.548 15.984 L 1.548 15.468 L 14.452 15.468 L 14.452 15.984 Z M 6.71 14.952 L 3.613 14.952 L 3.613 10.306 L 6.71 10.306 L 6.71 14.952 Z M 7.226 14.952 L 7.226 10.048 C 7.226 9.98 7.199 9.914 7.15 9.866 C 7.102 9.818 7.036 9.79 6.968 9.79 L 3.355 9.79 C 3.286 9.79 3.221 9.818 3.172 9.866 C 3.124 9.914 3.097 9.98 3.097 10.048 L 3.097 14.952 L 2.064 14.952 L 2.064 8.607 L 8 2.671 L 13.935 8.607 L 13.935 14.952 L 7.226 14.952 Z M 14.3 8.242 L 8.182 2.124 C 8.134 2.076 8.068 2.048 8 2.048 C 7.932 2.048 7.866 2.076 7.818 2.124 L 1.7 8.242 L 0.881 8.242 L 8 1.123 L 15.119 8.242 L 14.3 8.242 Z"
        fill="#242933"/>
</svg>
