<svg width="17" height="16" viewBox="0 0 17 16" fill="none" xmlns="http://www.w3.org/2000/svg">
<path d="M8.959 8.00045L12.4052 4.55094C12.4659 4.48984 12.5001 4.40714 12.5 4.32095C12.4999 4.23476 12.4657 4.1521 12.4048 4.09108C12.283 3.96984 12.0684 3.96923 11.9453 4.0917L8.50006 7.54121L5.05361 4.09078C4.93114 3.96984 4.71652 3.97046 4.59467 4.09139C4.56443 4.12151 4.54048 4.15736 4.52424 4.19684C4.508 4.23631 4.49978 4.27863 4.50007 4.32132C4.50007 4.40827 4.53375 4.4897 4.59467 4.55002L8.04082 8.00015L4.59498 11.4506C4.53417 11.5118 4.50012 11.5946 4.50029 11.6809C4.50046 11.7671 4.53484 11.8498 4.5959 11.9107C4.65499 11.9692 4.73857 12.0029 4.82491 12.0029H4.82674C4.91339 12.0026 4.99697 11.9686 5.05483 11.9095L8.50006 8.46L11.9465 11.9104C12.0074 11.9711 12.0889 12.0047 12.1752 12.0047C12.2179 12.0049 12.2602 11.9965 12.2997 11.9803C12.3391 11.964 12.375 11.9401 12.4052 11.9099C12.4354 11.8797 12.4593 11.8438 12.4756 11.8044C12.4919 11.7649 12.5002 11.7226 12.5001 11.6799C12.5001 11.5933 12.4664 11.5115 12.4052 11.4512L8.959 8.00045Z" fill="#242933"/>
</svg>
