<svg
    xmlns="http://www.w3.org/2000/svg"
    viewBox="0 0 16 17"
    id="vector">
    <defs>
        <clipPath id="clip_path">
            <path d="M 0 0.5 L 16 0.5 L 16 16.5 L 0 16.5 Z"/>
        </clipPath>
        <clipPath id="clip_path_1">
            <path d="M 0 0.5 L 16 0.5 L 16 16.5 L 0 16.5 Z"/>
        </clipPath>
        <clipPath id="clip_path_2">
            <path d="M 0 0.5 L 16 0.5 L 16 16.5 L 0 16.5 Z"/>
        </clipPath>
    </defs>
    <g id="group">
        <path
            id="path"
            clip-path="url(#clip_path)"
            d="M 15.622 7.987 C 15.383 7.766 15.057 7.629 14.728 7.612 C 14.355 7.593 14.005 7.726 13.745 7.986 L 11.966 9.747 C 11.931 9.686 11.891 9.628 11.845 9.575 C 11.627 9.315 11.307 9.172 10.944 9.172 L 8.454 9.172 C 7.984 9.172 7.526 9.111 7.092 8.991 C 5.961 8.678 4.881 8.907 3.967 9.652 C 3.596 9.955 3.325 10.285 3.153 10.526 L 2.707 10.092 C 2.648 10.035 2.569 10.003 2.487 10.003 C 2.486 10.003 2.485 10.003 2.485 10.003 C 2.4 10.004 2.318 10.039 2.259 10.1 L 0.088 12.354 C 0.03 12.414 -0.002 12.495 0 12.579 C 0.002 12.662 0.037 12.742 0.098 12.8 L 3.769 16.296 C 3.83 16.354 3.908 16.383 3.986 16.383 C 4.068 16.383 4.15 16.351 4.212 16.288 L 6.362 14.081 C 6.421 14.021 6.454 13.939 6.452 13.854 C 6.45 13.771 6.416 13.691 6.356 13.633 L 6.169 13.452 L 6.597 13.404 C 6.857 13.373 7.12 13.358 7.381 13.358 L 11.171 13.358 C 11.786 13.358 12.309 13.223 12.725 12.958 C 12.728 12.956 12.732 12.953 12.735 12.951 C 12.884 12.848 13.019 12.725 13.137 12.586 L 15.69 9.582 C 16.127 9.069 16.1 8.427 15.622 7.987 Z M 3.978 15.626 L 0.761 12.562 L 2.494 10.763 L 5.692 13.867 L 3.978 15.626 Z M 15.21 9.175 L 12.657 12.179 C 12.576 12.274 12.483 12.359 12.381 12.431 C 12.069 12.628 11.662 12.729 11.171 12.729 L 7.381 12.729 C 7.096 12.729 6.808 12.745 6.526 12.778 L 5.584 12.884 L 3.611 10.97 C 3.748 10.767 4 10.438 4.365 10.14 C 5.124 9.52 5.985 9.338 6.925 9.598 C 7.413 9.733 7.928 9.801 8.454 9.801 L 10.944 9.801 C 11.392 9.801 11.511 10.189 11.511 10.418 C 11.511 10.585 11.457 10.744 11.364 10.854 C 11.262 10.974 11.118 11.034 10.934 11.034 L 8.767 11.034 C 8.593 11.034 8.452 11.175 8.452 11.349 C 8.452 11.523 8.593 11.664 8.767 11.664 L 10.934 11.664 C 11.3 11.664 11.623 11.521 11.844 11.262 C 12.027 11.046 12.131 10.763 12.14 10.46 L 14.189 8.432 C 14.482 8.14 14.939 8.213 15.195 8.449 C 15.328 8.571 15.506 8.828 15.21 9.175 Z"
            fill="#000000"/>
        <path
            id="path_1"
            clip-path="url(#clip_path_1)"
            d="M 7.785 11.265 C 7.745 11.096 7.576 10.991 7.407 11.031 C 7.237 11.071 7.132 11.24 7.172 11.409 L 7.175 11.422 C 7.209 11.567 7.338 11.665 7.481 11.665 C 7.505 11.665 7.529 11.662 7.553 11.657 C 7.723 11.617 7.828 11.447 7.788 11.278 L 7.785 11.265 Z"
            fill="#000000"/>
        <path
            id="path_2"
            clip-path="url(#clip_path_2)"
            d="M 2.127 7.266 L 5.194 7.266 C 5.361 7.266 5.516 7.211 5.641 7.12 C 5.767 7.211 5.922 7.266 6.089 7.266 L 9.156 7.266 C 9.323 7.266 9.477 7.211 9.603 7.12 C 9.729 7.211 9.883 7.266 10.05 7.266 L 13.117 7.266 C 13.537 7.266 13.879 6.924 13.879 6.503 L 13.879 5.073 C 13.879 4.431 13.52 3.873 12.982 3.598 C 13.242 3.283 13.399 2.88 13.399 2.441 C 13.399 1.44 12.585 0.625 11.584 0.625 C 10.583 0.625 9.768 1.44 9.768 2.441 C 9.768 2.88 9.925 3.283 10.186 3.598 C 9.953 3.717 9.754 3.889 9.603 4.098 C 9.452 3.889 9.253 3.717 9.02 3.598 C 9.281 3.283 9.438 2.88 9.438 2.441 C 9.438 1.44 8.623 0.625 7.622 0.625 C 6.621 0.625 5.807 1.44 5.807 2.441 C 5.807 2.88 5.964 3.283 6.224 3.598 C 5.992 3.717 5.793 3.889 5.641 4.098 C 5.49 3.889 5.291 3.717 5.059 3.598 C 5.319 3.283 5.476 2.88 5.476 2.441 C 5.476 1.44 4.662 0.625 3.661 0.625 C 2.66 0.625 1.845 1.44 1.845 2.441 C 1.845 2.88 2.002 3.283 2.263 3.598 C 1.725 3.873 1.365 4.431 1.365 5.074 L 1.365 6.503 C 1.365 6.924 1.707 7.266 2.127 7.266 Z M 11.584 1.254 C 12.238 1.254 12.77 1.786 12.77 2.441 C 12.77 3.095 12.238 3.627 11.584 3.627 C 10.93 3.627 10.398 3.095 10.398 2.441 C 10.398 1.786 10.93 1.254 11.584 1.254 Z M 10.766 4.061 C 11.012 4.185 11.29 4.256 11.584 4.256 C 11.878 4.256 12.155 4.185 12.401 4.061 C 12.89 4.146 13.25 4.567 13.25 5.073 L 13.25 6.503 C 13.25 6.577 13.19 6.636 13.117 6.636 L 10.05 6.636 C 9.977 6.636 9.918 6.577 9.918 6.503 L 9.918 5.073 C 9.918 4.568 10.277 4.146 10.766 4.061 Z M 7.622 1.254 C 8.276 1.254 8.808 1.786 8.808 2.441 C 8.808 3.095 8.276 3.627 7.622 3.627 C 6.968 3.627 6.436 3.095 6.436 2.441 C 6.436 1.786 6.968 1.254 7.622 1.254 Z M 6.805 4.061 C 7.051 4.185 7.328 4.256 7.622 4.256 C 7.916 4.256 8.194 4.185 8.44 4.061 C 8.929 4.146 9.288 4.567 9.288 5.073 L 9.288 6.503 C 9.288 6.577 9.229 6.636 9.156 6.636 L 6.089 6.636 C 6.016 6.636 5.956 6.577 5.956 6.503 L 5.956 5.073 C 5.956 4.568 6.316 4.146 6.805 4.061 Z M 3.661 1.254 C 4.315 1.254 4.847 1.786 4.847 2.441 C 4.847 3.095 4.315 3.627 3.661 3.627 C 3.007 3.627 2.475 3.095 2.475 2.441 C 2.475 1.786 3.007 1.254 3.661 1.254 Z M 1.995 5.073 C 1.995 4.568 2.354 4.146 2.843 4.061 C 3.089 4.185 3.367 4.256 3.661 4.256 C 3.955 4.256 4.232 4.185 4.478 4.061 C 4.968 4.146 5.327 4.567 5.327 5.073 L 5.327 6.503 C 5.327 6.577 5.267 6.636 5.194 6.636 L 2.127 6.636 C 2.054 6.636 1.995 6.577 1.995 6.503 L 1.995 5.073 Z"
            fill="#000000"/>
    </g>
</svg>
