<svg width="17" height="16" viewBox="0 0 17 16" fill="none" xmlns="http://www.w3.org/2000/svg">
<path d="M0.968788 13.1562H3.31253V14.5625C3.31253 14.8213 3.52241 15.0312 3.78128 15.0312H16.0313C16.2901 15.0312 16.5 14.8213 16.5 14.5625V2.375C16.5 2.11612 16.2901 1.90625 16.0313 1.90625H13.6875V1.4375C13.6875 1.17862 13.4776 0.96875 13.2188 0.96875C12.9599 0.96875 12.75 1.17862 12.75 1.4375V1.90625H10.375V1.4375C10.375 1.17862 10.1651 0.96875 9.90627 0.96875C9.64739 0.96875 9.43752 1.17862 9.43752 1.4375V1.90625H7.09377V1.4375C7.09377 1.17862 6.8839 0.96875 6.62502 0.96875C6.36615 0.96875 6.15628 1.17862 6.15628 1.4375V1.90625H3.78128C3.52241 1.90625 3.31253 2.11612 3.31253 2.375V5.18749C3.31253 8.64217 1.87675 11.2999 0.668695 12.3274C0.51707 12.4537 0.460852 12.6615 0.528008 12.8471C0.595226 13.0326 0.771414 13.1562 0.968788 13.1562ZM15.5625 14.0937H4.25003V13.1562H13.2188C13.3284 13.1562 13.4346 13.1178 13.5189 13.0476C14.0823 12.5782 14.9552 11.4608 15.5625 10.0296V14.0937ZM4.25003 2.84375H6.15628V3.31249C6.15628 3.57137 6.36615 3.78124 6.62502 3.78124C6.8839 3.78124 7.09377 3.57137 7.09377 3.31249V2.84375H9.43752V3.31249C9.43752 3.57137 9.64739 3.78124 9.90627 3.78124C10.1651 3.78124 10.375 3.57137 10.375 3.31249V2.84375H12.75V3.31249C12.75 3.57137 12.9599 3.78124 13.2188 3.78124C13.4776 3.78124 13.6875 3.57137 13.6875 3.31249V2.84375H15.5625V4.71874H4.25003V2.84375ZM4.242 5.65593H15.5542C15.4486 8.62951 14.3073 10.9691 13.0349 12.2187H2.035C3.47666 10.3818 4.16466 7.99005 4.242 5.65593Z" fill="white"/>
</svg>
