<svg
    xmlns="http://www.w3.org/2000/svg"
    viewBox="0 0 16 16"
    id="vector">
    <defs>
        <clipPath id="clip_path">
            <path d="M 0 0 L 16 0 L 16 16 L 0 16 Z"/>
        </clipPath>
        <clipPath id="clip_path_1">
            <path d="M 0 0 L 16 0 L 16 16 L 0 16 Z"/>
        </clipPath>
    </defs>
    <g id="group">
        <path
            id="path"
            clip-path="url(#clip_path)"
            d="M 8.502 16 L 7.498 16 C 6.686 16 6.025 15.339 6.025 14.527 L 6.025 14.187 C 5.68 14.077 5.344 13.938 5.022 13.771 L 4.781 14.012 C 4.198 14.596 3.264 14.579 2.698 14.012 L 1.988 13.302 C 1.421 12.735 1.405 11.802 1.988 11.219 L 2.229 10.978 C 2.062 10.656 1.923 10.32 1.813 9.975 L 1.473 9.975 C 0.661 9.975 0 9.314 0 8.502 L 0 7.498 C 0 6.686 0.661 6.025 1.473 6.025 L 1.813 6.025 C 1.923 5.68 2.062 5.344 2.229 5.022 L 1.988 4.781 C 1.405 4.199 1.421 3.265 1.988 2.698 L 2.698 1.988 C 3.266 1.42 4.199 1.406 4.781 1.988 L 5.022 2.229 C 5.344 2.062 5.68 1.923 6.025 1.813 L 6.025 1.473 C 6.025 0.661 6.686 0 7.498 0 L 8.502 0 C 9.314 0 9.975 0.661 9.975 1.473 L 9.975 1.813 C 10.32 1.923 10.656 2.062 10.978 2.229 L 11.219 1.988 C 11.802 1.404 12.736 1.421 13.302 1.988 L 14.012 2.698 C 14.579 3.265 14.595 4.198 14.012 4.781 L 13.771 5.022 C 13.938 5.344 14.077 5.68 14.187 6.025 L 14.527 6.025 C 15.339 6.025 16 6.686 16 7.498 L 16 8.502 C 16 9.314 15.339 9.975 14.527 9.975 L 14.187 9.975 C 14.077 10.32 13.938 10.656 13.771 10.978 L 14.012 11.219 C 14.595 11.802 14.579 12.735 14.012 13.302 L 13.302 14.012 C 12.734 14.58 11.8 14.594 11.219 14.012 L 10.978 13.771 C 10.656 13.938 10.32 14.077 9.975 14.187 L 9.975 14.527 C 9.975 15.339 9.314 16 8.502 16 Z M 5.179 12.787 C 5.626 13.051 6.108 13.251 6.611 13.381 C 6.818 13.434 6.963 13.621 6.963 13.835 L 6.963 14.527 C 6.963 14.822 7.203 15.063 7.498 15.063 L 8.502 15.063 C 8.797 15.063 9.037 14.822 9.037 14.527 L 9.037 13.835 C 9.037 13.621 9.182 13.434 9.389 13.381 C 9.892 13.251 10.374 13.051 10.821 12.787 C 11.006 12.678 11.24 12.707 11.392 12.859 L 11.882 13.349 C 12.093 13.56 12.432 13.556 12.639 13.349 L 13.349 12.639 C 13.555 12.434 13.562 12.094 13.349 11.882 L 12.859 11.391 C 12.707 11.24 12.678 11.005 12.787 10.821 C 13.051 10.374 13.251 9.892 13.381 9.389 C 13.435 9.182 13.621 9.037 13.835 9.037 L 14.527 9.037 C 14.822 9.037 15.063 8.797 15.063 8.502 L 15.063 7.498 C 15.063 7.203 14.822 6.963 14.527 6.963 L 13.835 6.963 C 13.621 6.963 13.435 6.818 13.381 6.611 C 13.251 6.108 13.051 5.626 12.787 5.179 C 12.678 4.995 12.707 4.76 12.859 4.609 L 13.349 4.118 C 13.561 3.907 13.555 3.567 13.349 3.361 L 12.639 2.651 C 12.433 2.445 12.094 2.439 11.882 2.651 L 11.392 3.142 C 11.24 3.293 11.006 3.322 10.821 3.213 C 10.374 2.949 9.892 2.749 9.389 2.619 C 9.182 2.566 9.038 2.379 9.038 2.165 L 9.038 1.473 C 9.038 1.178 8.797 0.938 8.502 0.938 L 7.498 0.938 C 7.203 0.938 6.963 1.178 6.963 1.473 L 6.963 2.165 C 6.963 2.379 6.818 2.566 6.611 2.619 C 6.108 2.749 5.626 2.949 5.179 3.213 C 4.994 3.322 4.76 3.293 4.609 3.141 L 4.118 2.651 C 3.907 2.439 3.567 2.444 3.361 2.651 L 2.651 3.361 C 2.445 3.567 2.439 3.906 2.651 4.118 L 3.141 4.609 C 3.293 4.76 3.322 4.995 3.213 5.179 C 2.949 5.626 2.749 6.108 2.619 6.611 C 2.566 6.818 2.379 6.963 2.165 6.963 L 1.473 6.963 C 1.178 6.963 0.938 7.203 0.938 7.498 L 0.938 8.502 C 0.938 8.797 1.178 9.037 1.473 9.037 L 2.165 9.037 C 2.379 9.037 2.566 9.182 2.619 9.389 C 2.749 9.892 2.949 10.374 3.213 10.821 C 3.322 11.005 3.293 11.24 3.141 11.391 L 2.651 11.882 C 2.439 12.093 2.445 12.433 2.651 12.639 L 3.361 13.349 C 3.567 13.555 3.906 13.561 4.118 13.349 L 4.609 12.859 C 4.72 12.747 4.952 12.652 5.179 12.787 Z"
            fill="#4a4a4a"/>
        <path
            id="path_1"
            clip-path="url(#clip_path_1)"
            d="M 8 11.481 C 6.08 11.481 4.519 9.919 4.519 8 C 4.519 6.08 6.08 4.519 8 4.519 C 9.92 4.519 11.481 6.08 11.481 8 C 11.481 9.919 9.92 11.481 8 11.481 Z M 8 5.456 C 6.597 5.456 5.456 6.597 5.456 8 C 5.456 9.402 6.597 10.544 8 10.544 C 9.403 10.544 10.544 9.402 10.544 8 C 10.544 6.597 9.403 5.456 8 5.456 Z"
            fill="#4a4a4a"/>
    </g>
</svg>
