<svg
    xmlns="http://www.w3.org/2000/svg"
    viewBox="0 0 18 19"
    id="vector">
    <path
        id="path"
        d="M 16.313 4.438 L 13.5 4.438 L 13.5 3.453 C 13.5 3.376 13.437 3.313 13.359 3.313 L 12.375 3.313 C 12.298 3.313 12.234 3.376 12.234 3.453 L 12.234 4.438 L 9.633 4.438 L 9.633 3.453 C 9.633 3.376 9.569 3.313 9.492 3.313 L 8.508 3.313 C 8.431 3.313 8.367 3.376 8.367 3.453 L 8.367 4.438 L 5.766 4.438 L 5.766 3.453 C 5.766 3.376 5.702 3.313 5.625 3.313 L 4.641 3.313 C 4.563 3.313 4.5 3.376 4.5 3.453 L 4.5 4.438 L 1.688 4.438 C 1.376 4.438 1.125 4.689 1.125 5 L 1.125 15.125 C 1.125 15.436 1.376 15.688 1.688 15.688 L 16.313 15.688 C 16.624 15.688 16.875 15.436 16.875 15.125 L 16.875 5 C 16.875 4.689 16.624 4.438 16.313 4.438 Z M 15.609 14.422 L 2.391 14.422 L 2.391 5.703 L 4.5 5.703 L 4.5 6.688 C 4.5 6.765 4.563 6.828 4.641 6.828 L 5.625 6.828 C 5.702 6.828 5.766 6.765 5.766 6.688 L 5.766 5.703 L 8.367 5.703 L 8.367 6.688 C 8.367 6.765 8.431 6.828 8.508 6.828 L 9.492 6.828 C 9.569 6.828 9.633 6.765 9.633 6.688 L 9.633 5.703 L 12.234 5.703 L 12.234 6.688 C 12.234 6.765 12.298 6.828 12.375 6.828 L 13.359 6.828 C 13.437 6.828 13.5 6.765 13.5 6.688 L 13.5 5.703 L 15.609 5.703 L 15.609 14.422 Z M 7.313 9.219 L 4.078 9.219 C 4.001 9.219 3.938 9.282 3.938 9.359 L 3.938 10.203 C 3.938 10.28 4.001 10.344 4.078 10.344 L 7.313 10.344 C 7.39 10.344 7.453 10.28 7.453 10.203 L 7.453 9.359 C 7.453 9.282 7.39 9.219 7.313 9.219 Z M 7.313 11.609 L 4.078 11.609 C 4.001 11.609 3.938 11.673 3.938 11.75 L 3.938 12.594 C 3.938 12.671 4.001 12.734 4.078 12.734 L 7.313 12.734 C 7.39 12.734 7.453 12.671 7.453 12.594 L 7.453 11.75 C 7.453 11.673 7.39 11.609 7.313 11.609 Z M 12.73 8.491 L 10.909 11.017 L 9.981 9.732 C 9.928 9.658 9.844 9.616 9.754 9.616 L 8.789 9.616 C 8.675 9.616 8.608 9.746 8.675 9.839 L 10.681 12.62 C 10.706 12.656 10.74 12.685 10.78 12.706 C 10.819 12.726 10.863 12.736 10.907 12.736 C 10.951 12.736 10.995 12.726 11.035 12.706 C 11.074 12.685 11.108 12.656 11.134 12.62 L 14.034 8.6 C 14.101 8.507 14.034 8.377 13.92 8.377 L 12.955 8.377 C 12.867 8.375 12.783 8.419 12.73 8.491 Z"
        fill="#4a4a4a"/>
</svg>
