<svg
    xmlns="http://www.w3.org/2000/svg"
    viewBox="0 0 16 16"
    id="vector">
    <path
        id="path"
        d="M 14.667 1.067 L 1.333 1.067 C 0.597 1.068 0.001 1.664 0 2.4 L 0 11.467 C 0.001 12.203 0.597 12.799 1.333 12.8 L 6.667 12.8 L 6.667 12.267 L 1.333 12.267 C 0.891 12.267 0.533 11.909 0.533 11.467 L 0.533 2.4 C 0.533 1.958 0.891 1.6 1.333 1.6 L 14.667 1.6 C 15.108 1.6 15.467 1.958 15.467 2.4 L 15.467 11.467 C 15.467 11.909 15.108 12.267 14.667 12.267 L 14.4 12.267 L 14.4 12.8 L 14.667 12.8 C 15.403 12.799 15.999 12.203 16 11.467 L 16 2.4 C 15.999 1.664 15.403 1.068 14.667 1.067 Z"
        fill="#000000"/>
    <path
        id="path_1"
        d="M 14.667 10.933 L 14.667 2.4 C 14.667 2.253 14.547 2.133 14.4 2.133 L 1.6 2.133 C 1.453 2.133 1.333 2.253 1.333 2.4 L 1.333 11.467 C 1.333 11.614 1.453 11.733 1.6 11.733 L 8.533 11.733 L 8.533 11.2 L 1.867 11.2 L 1.867 2.667 L 14.133 2.667 L 14.133 10.933 L 14.667 10.933 Z"
        fill="#000000"/>
    <path
        id="path_2"
        d="M 2.4 3.2 L 2.933 3.2 L 2.933 3.733 L 2.4 3.733 L 2.4 3.2 Z"
        fill="#000000"/>
    <path
        id="path_3"
        d="M 2.4 4.267 L 3.467 4.267 L 3.467 4.8 L 2.4 4.8 L 2.4 4.267 Z"
        fill="#000000"/>
    <path
        id="path_4"
        d="M 2.4 5.333 L 3.467 5.333 L 3.467 5.867 L 2.4 5.867 L 2.4 5.333 Z"
        fill="#000000"/>
    <path
        id="path_5"
        d="M 2.4 6.4 L 3.467 6.4 L 3.467 6.933 L 2.4 6.933 L 2.4 6.4 Z"
        fill="#000000"/>
    <path
        id="path_6"
        d="M 2.4 7.467 L 3.467 7.467 L 3.467 8 L 2.4 8 L 2.4 7.467 Z"
        fill="#000000"/>
    <path
        id="path_7"
        d="M 2.4 8.533 L 3.467 8.533 L 3.467 9.066 L 2.4 9.066 L 2.4 8.533 Z"
        fill="#000000"/>
    <path
        id="path_8"
        d="M 2.4 9.6 L 3.467 9.6 L 3.467 10.133 L 2.4 10.133 L 2.4 9.6 Z"
        fill="#000000"/>
    <path
        id="path_9"
        d="M 13.6 7.467 L 5.6 7.467 L 5.6 6.777 L 6.092 6.285 L 6.445 6.815 C 6.489 6.881 6.56 6.925 6.64 6.933 L 6.667 6.933 C 6.737 6.933 6.805 6.905 6.855 6.855 L 8 5.71 L 8.611 6.322 C 8.664 6.375 8.737 6.404 8.812 6.4 C 8.887 6.396 8.957 6.362 9.005 6.304 L 10.133 4.95 L 11.262 6.304 C 11.31 6.362 11.38 6.396 11.455 6.4 C 11.53 6.404 11.603 6.376 11.655 6.322 L 12.267 5.71 L 12.611 6.055 C 12.665 6.111 12.742 6.139 12.819 6.133 C 12.896 6.127 12.967 6.088 13.013 6.026 L 13.813 4.959 L 13.387 4.639 L 12.771 5.46 L 12.455 5.144 C 12.351 5.04 12.182 5.04 12.078 5.144 L 11.485 5.738 L 10.338 4.362 C 10.285 4.304 10.211 4.271 10.133 4.271 C 10.055 4.271 9.98 4.304 9.928 4.362 L 8.781 5.738 L 8.188 5.144 C 8.083 5.04 7.915 5.04 7.81 5.144 L 6.707 6.247 L 6.354 5.718 C 6.31 5.651 6.238 5.608 6.159 5.601 C 6.079 5.593 6 5.621 5.944 5.677 L 5.6 6.023 L 5.6 4.267 L 5.067 4.267 L 5.067 7.733 C 5.067 7.88 5.186 8 5.333 8 L 13.6 8 L 13.6 7.467 Z"
        fill="#000000"/>
    <path
        id="path_10"
        d="M 5.067 3.2 L 6.667 3.2 L 6.667 3.733 L 5.067 3.733 L 5.067 3.2 Z"
        fill="#000000"/>
    <path
        id="path_11"
        d="M 7.2 3.2 L 7.733 3.2 L 7.733 3.733 L 7.2 3.733 L 7.2 3.2 Z"
        fill="#000000"/>
    <path
        id="path_12"
        d="M 5.067 8.533 L 6.133 8.533 L 6.133 9.066 L 5.067 9.066 L 5.067 8.533 Z"
        fill="#000000"/>
    <path
        id="path_13"
        d="M 6.667 8.533 L 7.2 8.533 L 7.2 9.066 L 6.667 9.066 L 6.667 8.533 Z"
        fill="#000000"/>
    <path
        id="path_14"
        d="M 5.067 9.6 L 6.133 9.6 L 6.133 10.133 L 5.067 10.133 L 5.067 9.6 Z"
        fill="#000000"/>
    <path
        id="path_15"
        d="M 6.667 9.6 L 7.2 9.6 L 7.2 10.133 L 6.667 10.133 L 6.667 9.6 Z"
        fill="#000000"/>
    <path
        id="path_16"
        d="M 8.267 8.533 L 8.8 8.533 L 8.8 9.066 L 8.267 9.066 L 8.267 8.533 Z"
        fill="#000000"/>
    <path
        id="path_17"
        d="M 11.467 8.533 L 12.533 8.533 L 12.533 9.066 L 11.467 9.066 L 11.467 8.533 Z"
        fill="#000000"/>
    <path
        id="path_18"
        d="M 13.067 8.533 L 13.6 8.533 L 13.6 9.066 L 13.067 9.066 L 13.067 8.533 Z"
        fill="#000000"/>
    <path
        id="path_19"
        d="M 11.467 9.6 L 12.533 9.6 L 12.533 10.133 L 11.467 10.133 L 11.467 9.6 Z"
        fill="#000000"/>
    <path
        id="path_20"
        d="M 13.067 9.6 L 13.6 9.6 L 13.6 10.133 L 13.067 10.133 L 13.067 9.6 Z"
        fill="#000000"/>
    <path
        id="path_21"
        d="M 13.2 10.944 C 12.967 10.905 12.729 10.971 12.55 11.124 C 12.544 11.128 12.539 11.133 12.534 11.137 C 12.23 10.865 11.771 10.865 11.467 11.137 C 11.246 10.948 10.943 10.888 10.667 10.979 L 10.667 9.629 C 10.672 9.23 10.391 8.886 10.001 8.811 C 9.768 8.771 9.53 8.836 9.35 8.988 C 9.17 9.14 9.066 9.364 9.067 9.6 L 9.067 12.862 L 8.359 12.438 C 8.143 12.307 7.875 12.297 7.65 12.411 L 7.607 12.432 C 7.376 12.548 7.223 12.776 7.202 13.034 C 7.182 13.292 7.298 13.541 7.509 13.692 L 9.178 14.884 C 9.224 14.916 9.278 14.933 9.333 14.933 L 13.6 14.933 C 13.747 14.933 13.867 14.814 13.867 14.667 L 13.867 11.762 C 13.872 11.364 13.591 11.019 13.2 10.944 Z M 13.333 14.4 L 9.419 14.4 L 7.819 13.257 C 7.76 13.216 7.728 13.147 7.733 13.075 C 7.739 13.004 7.781 12.94 7.845 12.908 L 7.887 12.887 C 7.949 12.856 8.024 12.859 8.083 12.895 L 9.195 13.562 C 9.277 13.611 9.38 13.613 9.464 13.566 C 9.548 13.519 9.6 13.43 9.6 13.333 L 9.6 9.6 C 9.6 9.522 9.634 9.447 9.694 9.396 C 9.755 9.345 9.835 9.323 9.913 9.337 C 10.046 9.37 10.138 9.492 10.133 9.629 L 10.133 11.733 C 10.133 11.88 10.253 12 10.4 12 C 10.547 12 10.667 11.88 10.667 11.733 C 10.667 11.586 10.786 11.467 10.933 11.467 C 11.081 11.467 11.2 11.586 11.2 11.733 C 11.2 11.88 11.319 12 11.467 12 C 11.614 12 11.733 11.88 11.733 11.733 C 11.733 11.586 11.853 11.467 12 11.467 C 12.147 11.467 12.267 11.586 12.267 11.733 C 12.267 11.88 12.386 12 12.533 12 C 12.681 12 12.8 11.88 12.8 11.733 C 12.8 11.654 12.835 11.579 12.895 11.529 C 12.956 11.478 13.036 11.457 13.113 11.471 C 13.246 11.503 13.338 11.625 13.333 11.762 L 13.333 14.4 Z"
        fill="#000000"/>
    <path
        id="path_22"
        d="M 4 3.2 L 4.533 3.2 L 4.533 10.667 L 4 10.667 L 4 3.2 Z"
        fill="#000000"/>
</svg>
