<svg
    xmlns="http://www.w3.org/2000/svg"
    viewBox="0 0 16 16"
    id="vector">
    <path
        id="path"
        d="M 7.886 7.707 C 8.945 7.707 9.862 7.327 10.611 6.578 C 11.36 5.829 11.74 4.912 11.74 3.853 C 11.74 2.795 11.36 1.878 10.611 1.129 C 9.861 0.38 8.945 0 7.886 0 C 6.827 0 5.91 0.38 5.161 1.129 C 4.412 1.878 4.032 2.795 4.032 3.853 C 4.032 4.912 4.412 5.829 5.161 6.578 C 5.911 7.327 6.827 7.707 7.886 7.707 Z M 5.824 1.792 C 6.399 1.217 7.074 0.938 7.886 0.938 C 8.698 0.938 9.373 1.217 9.948 1.792 C 10.523 2.367 10.802 3.041 10.802 3.853 C 10.802 4.666 10.523 5.34 9.948 5.915 C 9.373 6.49 8.698 6.77 7.886 6.77 C 7.074 6.77 6.399 6.49 5.824 5.915 C 5.249 5.34 4.97 4.666 4.97 3.853 C 4.97 3.041 5.249 2.367 5.824 1.792 Z"
        fill="#4a4a4a"/>
    <path
        id="path_1"
        d="M 14.629 12.303 C 14.607 11.991 14.564 11.651 14.499 11.292 C 14.434 10.93 14.351 10.588 14.251 10.276 C 14.147 9.953 14.007 9.633 13.833 9.328 C 13.652 9.01 13.441 8.734 13.203 8.507 C 12.954 8.268 12.65 8.077 12.298 7.938 C 11.947 7.799 11.558 7.729 11.142 7.729 C 10.979 7.729 10.821 7.796 10.516 7.994 C 10.328 8.117 10.108 8.258 9.863 8.415 C 9.654 8.549 9.37 8.674 9.019 8.787 C 8.677 8.898 8.329 8.954 7.987 8.954 C 7.644 8.954 7.296 8.898 6.954 8.787 C 6.604 8.674 6.319 8.549 6.11 8.415 C 5.867 8.26 5.648 8.118 5.457 7.994 C 5.152 7.795 4.994 7.729 4.831 7.729 C 4.415 7.729 4.026 7.799 3.676 7.938 C 3.324 8.077 3.019 8.268 2.77 8.507 C 2.533 8.734 2.321 9.01 2.14 9.328 C 1.967 9.633 1.826 9.952 1.723 10.276 C 1.623 10.588 1.539 10.93 1.474 11.292 C 1.41 11.651 1.366 11.991 1.345 12.303 C 1.323 12.609 1.313 12.927 1.313 13.248 C 1.313 14.084 1.578 14.76 2.102 15.258 C 2.619 15.75 3.303 16 4.135 16 L 11.839 16 C 12.671 16 13.355 15.75 13.872 15.258 C 14.396 14.76 14.661 14.084 14.661 13.248 C 14.661 12.926 14.65 12.608 14.629 12.303 Z M 13.226 14.579 C 12.884 14.904 12.43 15.062 11.839 15.062 L 4.135 15.062 C 3.543 15.062 3.09 14.904 2.748 14.579 C 2.413 14.26 2.25 13.825 2.25 13.248 C 2.25 12.948 2.26 12.652 2.28 12.368 C 2.299 12.089 2.338 11.783 2.397 11.458 C 2.455 11.136 2.528 10.835 2.616 10.562 C 2.7 10.3 2.814 10.04 2.956 9.791 C 3.091 9.553 3.247 9.348 3.419 9.184 C 3.579 9.03 3.782 8.904 4.021 8.81 C 4.242 8.722 4.49 8.674 4.759 8.667 C 4.792 8.685 4.851 8.718 4.945 8.78 C 5.138 8.905 5.36 9.049 5.606 9.205 C 5.883 9.382 6.239 9.541 6.665 9.679 C 7.101 9.82 7.545 9.891 7.987 9.891 C 8.428 9.891 8.872 9.82 9.307 9.679 C 9.734 9.541 10.091 9.382 10.368 9.205 C 10.619 9.045 10.835 8.905 11.028 8.78 C 11.123 8.718 11.181 8.685 11.214 8.667 C 11.483 8.674 11.732 8.722 11.953 8.81 C 12.191 8.904 12.394 9.03 12.555 9.184 C 12.726 9.348 12.882 9.553 13.018 9.791 C 13.159 10.04 13.274 10.3 13.358 10.562 C 13.445 10.835 13.519 11.136 13.576 11.458 C 13.635 11.784 13.674 12.09 13.694 12.368 L 13.694 12.369 C 13.714 12.652 13.724 12.948 13.724 13.248 C 13.724 13.825 13.561 14.26 13.226 14.579 Z"
        fill="#4a4a4a"/>
</svg>
