<svg width="16" height="16" viewBox="0 0 16 16" fill="none" xmlns="http://www.w3.org/2000/svg">
<path fill-rule="evenodd" clip-rule="evenodd" d="M3.01935 3.00057C4.90823 1.12223 7.97071 1.1222 9.85962 3.00051C11.7485 4.87879 11.7486 7.92414 9.85968 9.80252C7.9708 11.6808 4.90833 11.6809 3.01941 9.80258C3.01938 9.80255 3.01938 9.80255 3.01935 9.80252C1.13047 7.93787 1.11935 4.90362 2.99448 3.02531C3.00276 3.01704 3.01104 3.00881 3.01935 3.00057ZM6.4395 12.8003C7.86963 12.8003 9.25882 12.3258 10.3871 11.452L14.6436 15.6847C14.9615 15.9901 15.4682 15.9813 15.7753 15.6651C16.0749 15.3567 16.0749 14.8677 15.7753 14.5593L11.5188 10.3266C13.6994 7.53522 13.1916 3.51458 10.3846 1.34615C7.57757 -0.822257 3.53434 -0.317315 1.35372 2.47402C-0.826881 5.26536 -0.319099 9.286 2.48794 11.4544C3.61803 12.3274 5.00847 12.801 6.4395 12.8003Z" fill="white"/>
</svg>
