<svg width="64" height="65" viewBox="0 0 64 65" fill="none" xmlns="http://www.w3.org/2000/svg">
<path d="M14.239 50.1409C13.937 49.7917 13.5884 49.4767 13.2009 49.2056C12.1682 48.4815 10.9346 48.0989 9.63468 48.0989C6.3822 48.0989 3.73644 50.5386 3.73644 53.5379C3.73644 53.6292 3.73927 53.7205 3.74398 53.8114C1.55958 54.5652 0 56.5108 0 58.7847C0 61.7116 2.58286 64.0932 5.75682 64.0932H16.7999C19.9738 64.0932 22.5567 61.7116 22.5567 58.7847C22.5567 57.5671 22.098 56.3772 21.2649 55.4343C20.8602 54.976 20.3764 54.5855 19.8386 54.2773C19.8618 54.1097 19.874 53.9388 19.874 53.7667C19.874 51.6359 17.9945 49.9026 15.6838 49.9026C15.1842 49.9026 14.6955 49.9853 14.239 50.1409Z" fill="#E8EFF6"/>
<path d="M43.4042 44.3181C43.8411 43.813 44.3452 43.3574 44.9058 42.9653C46.3995 41.9179 48.1839 41.3646 50.0641 41.3646C54.7686 41.3646 58.5955 44.8933 58.5955 49.2316C58.5955 49.3637 58.5914 49.4958 58.5846 49.6272C61.7442 50.7175 64 53.5317 64 56.8208C64 61.0543 60.2641 64.4992 55.6731 64.4992H39.7001C35.1092 64.4992 31.3733 61.0543 31.3733 56.8208C31.3733 55.0596 32.0368 53.3385 33.2418 51.9747C33.8271 51.3118 34.5269 50.7469 35.3048 50.3011C35.2713 50.0587 35.2536 49.8115 35.2536 49.5626C35.2536 46.4805 37.9722 43.9735 41.3145 43.9735C42.0371 43.9735 42.7439 44.0931 43.4042 44.3181Z" fill="#E8EDF8"/>
<path d="M29.9575 44.2307C30.6693 45.6194 31.0663 47.2554 31.0663 48.9676C31.0497 52.9055 26.7141 62.5601 26.2175 63.6253C26.0188 64.044 25.6217 64.31 25.1915 64.31C24.7614 64.31 24.3639 64.0437 24.1489 63.6062C23.669 62.5601 19.3663 52.9052 19.3496 48.9676C19.3496 47.2554 19.7467 45.6196 20.4582 44.2307H25.1915H29.9575Z" fill="#FFAD0D"/>
<path d="M12.0834 30.6519C4.75768 37.4073 8.63935 45.2504 8.66067 45.6124C8.81874 46.0555 9.21487 46.3925 9.70818 46.5002C10.2007 46.609 10.7194 46.4742 11.0779 46.1436C15.686 42.5848 18.5611 40.3641 18.3313 40.5416L13.3532 29.4807L12.0831 30.6519H12.0834Z" fill="url(#paint0_linear_7679_46121)"/>
<path d="M31.958 40.5339C32.1853 40.7139 39.5193 46.5235 39.0442 46.147C39.8124 46.8554 41.1213 46.5661 41.4618 45.6157C41.4831 45.2545 45.321 37.3703 38.0391 30.6552L36.7687 29.484L31.958 40.5339Z" fill="url(#paint1_linear_7679_46121)"/>
<path d="M33.962 40.8472C33.4258 42.3691 32.8688 43.8719 32.3531 45.2987C32.1673 45.8503 31.6107 46.2116 30.9709 46.2307H19.3361C18.6967 46.2116 18.1394 45.8503 17.9539 45.2987C17.4382 43.8719 16.8815 42.3689 16.345 40.8472C16.0355 39.9529 19.8519 39.0589 19.5219 38.1458H30.7852C30.4549 39.0589 34.2715 39.9532 33.962 40.8472Z" fill="url(#paint2_linear_7679_46121)"/>
<path d="M34.5436 10.1389C37.1635 14.267 38.3807 18.4712 38.2775 23.1701C38.1742 28.6677 35.8843 35.4969 33.9659 40.8424H25.178L16.3486 40.8427C14.4302 35.4971 12.1198 28.6483 12.0373 23.1698C11.934 18.4712 13.1513 14.267 15.7711 10.1389L18.6178 8.92151C20.4537 10.5384 22.8056 11.3755 25.1572 11.3755C27.5089 11.3755 29.8608 10.5384 31.6967 8.92151L34.5436 10.1389Z" fill="#E8EDF8"/>
<path d="M34.5368 10.1456C34.3719 10.2978 33.8769 10.7164 33.7119 10.8686C31.2982 13.0183 28.2451 14.0835 25.1507 14.0835C22.0564 14.0835 19.0032 13.018 16.5899 10.8686C16.4249 10.7164 15.9296 10.2978 15.7646 10.1456C17.9305 6.74047 21.0249 3.5444 24.1605 0.881096C24.4288 0.633732 24.7792 0.500732 25.1507 0.500732C25.522 0.500732 25.873 0.633988 26.1412 0.881351C29.2763 3.54466 32.3502 6.75937 34.5368 10.1456Z" fill="url(#paint3_linear_7679_46121)"/>
<path d="M26.5908 34.1287C26.6115 34.8706 25.9516 35.4791 25.1468 35.4603C24.3424 35.4794 23.6819 34.8706 23.7026 34.1287C23.6821 33.3869 24.3421 32.7781 25.1466 32.7969C25.951 32.7778 26.6115 33.3866 26.5908 34.1287Z" fill="#5A5A5A"/>
<path d="M26.666 19.4655C26.5124 19.2878 26.3346 19.1272 26.1375 18.9894C25.6118 18.6207 24.984 18.426 24.3224 18.426C22.667 18.426 21.3207 19.6676 21.3207 21.1942C21.3207 21.2407 21.3221 21.2871 21.3246 21.3333C20.2129 21.717 19.4189 22.7072 19.4189 23.8646C19.4189 25.3542 20.7336 26.5662 22.3489 26.5662H27.9693C29.5846 26.5662 30.899 25.3542 30.899 23.8646C30.899 23.2448 30.6659 22.6393 30.2418 22.1594C30.0358 21.9263 29.7894 21.7272 29.5157 21.5705C29.5276 21.4852 29.5339 21.3982 29.5339 21.3106C29.5339 20.2262 28.5772 19.3442 27.4013 19.3442C27.1468 19.3442 26.8983 19.3863 26.666 19.4655Z" fill="#155AA9"/>
<path d="M24.6213 24.781L22.7967 23.0985C22.7696 23.0734 22.7696 23.0329 22.7967 23.0078L23.313 22.5315C23.3401 22.5065 23.3844 22.5065 23.4115 22.5315L24.6714 23.693L26.914 21.6311C26.9411 21.6061 26.9851 21.6061 27.0122 21.6311L27.528 22.1082C27.5551 22.1333 27.5551 22.1738 27.528 22.1989L24.7196 24.781C24.6924 24.8058 24.6484 24.806 24.6213 24.781Z" fill="#E8EDF8"/>
<path d="M47.6123 13.1169C47.4644 12.9459 47.2937 12.7916 47.1039 12.6588C46.5981 12.3042 45.9939 12.1168 45.3573 12.1168C43.7644 12.1168 42.4686 13.3116 42.4686 14.7806C42.4686 14.8253 42.47 14.87 42.4723 14.9145C41.4025 15.2837 40.6387 16.2365 40.6387 17.3502C40.6387 18.7837 41.9036 19.9501 43.4581 19.9501H48.8665C50.4209 19.9501 51.6859 18.7837 51.6859 17.3502C51.6859 16.7539 51.4612 16.1711 51.0532 15.7093C50.855 15.4849 50.6181 15.2936 50.3547 15.1427C50.3661 15.0606 50.3721 14.9769 50.3721 14.8926C50.3721 13.849 49.4516 13.0002 48.3199 13.0002C48.0752 13.0002 47.8359 13.0407 47.6123 13.1169Z" fill="#E8EFF6"/>
<defs>
<linearGradient id="paint0_linear_7679_46121" x1="9.91857" y1="36.1378" x2="15.7127" y2="44.4641" gradientUnits="userSpaceOnUse">
<stop offset="0.2" stop-color="#124EB0"/>
<stop offset="0.5" stop-color="#0F5AD7"/>
<stop offset="0.8" stop-color="#0C66FF"/>
</linearGradient>
<linearGradient id="paint1_linear_7679_46121" x1="40.9333" y1="34.6095" x2="35.7931" y2="43.1163" gradientUnits="userSpaceOnUse">
<stop offset="0.2" stop-color="#124EB0"/>
<stop offset="0.5" stop-color="#0F5AD7"/>
<stop offset="0.8" stop-color="#0C66FF"/>
</linearGradient>
<linearGradient id="paint2_linear_7679_46121" x1="24.8741" y1="37.4193" x2="25.0494" y2="53.7321" gradientUnits="userSpaceOnUse">
<stop offset="0.2" stop-color="#124EB0"/>
<stop offset="0.5" stop-color="#0F5AD7"/>
<stop offset="0.8" stop-color="#0C66FF"/>
</linearGradient>
<linearGradient id="paint3_linear_7679_46121" x1="25.148" y1="-5.21007" x2="25.148" y2="12.1008" gradientUnits="userSpaceOnUse">
<stop offset="0.2" stop-color="#124EB0"/>
<stop offset="0.5" stop-color="#0F5AD7"/>
<stop offset="0.8" stop-color="#0C66FF"/>
</linearGradient>
</defs>
</svg>
