<svg width="98" height="20" viewBox="0 0 98 20" fill="none" xmlns="http://www.w3.org/2000/svg">
<path d="M95.9863 0H2.0137C0.901564 0 0 0.895431 0 2V18C0 19.1046 0.901564 20 2.0137 20H95.9863C97.0984 20 98 19.1046 98 18V2C98 0.895431 97.0984 0 95.9863 0Z" fill="white"/>
<path d="M35.2545 6.14062C35.0448 6.16197 34.8314 6.16846 34.6246 6.20558C32.5841 6.57584 31.2269 8.712 32.0403 10.7285C32.746 12.4786 33.9039 13.9327 35.1179 15.3506C35.2086 15.4573 35.2891 15.4351 35.3687 15.3376C35.4594 15.2272 35.555 15.1214 35.6457 15.0109C36.6042 13.8343 37.5196 12.628 38.1935 11.2629C38.5324 10.5763 38.7776 9.8738 38.6597 9.07946C38.4107 7.40726 36.9721 6.15732 35.2545 6.14062ZM35.2432 12.0387C33.6417 12.0341 32.5841 10.7238 32.6159 9.40886C32.6178 7.97706 33.8083 6.80507 35.261 6.81527C36.6679 6.82547 37.8874 7.92506 37.8819 9.4358C37.8772 10.9177 36.6978 12.0433 35.2432 12.0387Z" fill="#FF6C00"/>
<path d="M30.8832 11.2681C30.6717 10.7614 30.5182 10.2148 29.9613 9.91141C30.0296 9.87335 30.068 9.84922 30.1092 9.82975C30.6614 9.57082 31.0161 9.15788 31.0864 8.54728C31.1687 7.82815 30.9759 7.08021 30.1822 6.77581C29.8817 6.65983 29.5523 6.57909 29.2312 6.56239C28.5292 6.52527 27.8234 6.53548 27.1196 6.53455C26.7779 6.53455 26.7311 6.5893 26.7302 6.92428C26.7283 8.83402 26.7264 10.7437 26.7246 12.6535C26.7237 13.3012 26.7798 13.3504 27.4397 13.2817C27.4528 13.2808 27.4669 13.2789 27.48 13.278C27.6484 13.2613 27.7382 13.1815 27.7346 13.0015C27.7289 12.7101 27.7336 12.4187 27.7336 12.1283L27.7355 10.4283C28.0238 10.4283 28.2821 10.4283 28.5395 10.4292C29.235 10.431 29.542 10.6324 29.8069 11.2745C30.0053 11.7561 30.1934 12.2415 30.3871 12.7249C30.623 13.3142 30.6642 13.3383 31.3054 13.2891C31.3185 13.2882 31.3325 13.2863 31.3465 13.2854C31.6321 13.2604 31.6667 13.2103 31.56 12.9421C31.3381 12.3825 31.1144 11.8239 30.8832 11.2681ZM29.2649 9.49008C28.7997 9.57081 28.3148 9.53648 27.8385 9.54208C27.8056 9.54208 27.7439 9.45115 27.7429 9.40195C27.7374 8.79322 27.742 8.18355 27.7392 7.57388C27.7382 7.45881 27.7842 7.41795 27.8974 7.42168C28.0884 7.42728 28.2802 7.42355 28.4712 7.42355C28.4712 7.41795 28.4721 7.41335 28.4721 7.40868C28.7099 7.42448 28.9514 7.42075 29.1844 7.46068C29.731 7.55435 30.0296 7.87175 30.0577 8.35428C30.0876 8.88228 29.7713 9.40195 29.2649 9.49008Z" fill="#0059AE"/>
<path d="M48.1559 9.2302C48.6173 8.60013 49.0797 7.97093 49.5402 7.34087C49.704 7.1172 49.5617 6.91773 49.4897 6.71173C49.4269 6.53354 49.28 6.57251 49.148 6.57159C47.8358 6.56973 46.5235 6.56881 45.2112 6.56695C44.776 6.56602 44.6964 6.48343 44.7076 7.07267C44.7133 7.378 44.746 7.416 45.0465 7.416C46.003 7.41787 46.9606 7.41787 47.9172 7.41973C47.9958 7.41973 48.0745 7.42807 48.1961 7.4346C48.1372 7.52273 48.1035 7.5784 48.0651 7.6304C47.3303 8.6326 46.5946 9.63387 45.8599 10.6361C45.3975 11.2652 44.9416 11.899 44.4718 12.5235C44.2949 12.7583 44.4306 12.9587 44.5036 13.1693C44.5673 13.3531 44.7311 13.3104 44.8687 13.3104C46.311 13.3132 47.7534 13.3141 49.1958 13.3151C49.5496 13.3151 49.5945 13.2715 49.602 12.9216C49.6029 12.8678 49.602 12.813 49.5945 12.7592C49.559 12.4975 49.5225 12.466 49.2585 12.466C48.1989 12.4651 47.1394 12.4641 46.0798 12.4623C46.0022 12.4623 45.9235 12.4557 45.8065 12.4502C45.8701 12.3565 45.9076 12.2952 45.9507 12.2368C46.6854 11.2337 47.4211 10.2315 48.1559 9.2302Z" fill="#0059AE"/>
<path d="M24.9155 6.81126C24.5636 6.65169 24.2004 6.5459 23.8119 6.54126C23.1146 6.53291 22.4173 6.52734 21.72 6.52734C21.3512 6.52734 21.3063 6.57745 21.3025 6.9366C21.3016 6.9978 21.3025 7.05813 21.3025 7.1194L21.2969 12.6268C21.2959 13.294 21.3811 13.3645 22.0579 13.2736C22.2394 13.2495 22.32 13.1585 22.3172 12.9767C22.3125 12.5841 22.3162 12.1907 22.3172 11.7981L22.3181 10.5064C22.7795 10.5064 23.2101 10.5269 23.6379 10.5009C23.9607 10.4814 24.294 10.4424 24.5991 10.3403C25.1991 10.1399 25.6072 9.7232 25.7532 9.09966C25.8496 8.68666 25.8365 8.2682 25.7448 7.85153C25.6381 7.369 25.3732 7.02006 24.9155 6.81126ZM24.7461 8.73033C24.6759 9.28613 24.3529 9.59606 23.7867 9.63226C23.3055 9.66386 22.8217 9.63786 22.3293 9.63693L22.3312 7.45713C22.3462 7.44413 22.3556 7.4284 22.3658 7.4284C22.8637 7.43393 23.3664 7.3996 23.8578 7.459C24.5982 7.54806 24.8331 8.03806 24.7461 8.73033Z" fill="#0059AE"/>
<path d="M43.1881 6.932C42.7856 6.7 42.3532 6.56637 41.8861 6.56081C41.2028 6.55245 40.5196 6.54781 39.8363 6.54689C39.431 6.54596 39.3767 6.60349 39.3767 7.00527C39.3748 8.90113 39.373 10.796 39.3711 12.6918C39.3702 13.2959 39.4347 13.3535 40.0581 13.3015C40.3464 13.2773 40.3885 13.2365 40.3894 12.9553C40.3913 12.2381 40.3904 11.5207 40.3932 10.8025C40.3932 10.7171 40.4053 10.6308 40.4129 10.5259C40.8668 10.5259 41.3039 10.5464 41.7382 10.5204C42.0546 10.5019 42.3812 10.4647 42.678 10.3617C43.3304 10.1362 43.7618 9.68153 43.8564 8.98553C43.8985 8.67467 43.8929 8.35087 43.8574 8.03813C43.8049 7.57787 43.6149 7.17787 43.1881 6.932ZM42.8371 8.65333C42.7828 9.33353 42.4056 9.64907 41.7064 9.67413C41.522 9.6806 41.3376 9.675 41.1542 9.67413C40.9632 9.67413 40.7723 9.6704 40.5813 9.675C40.4578 9.6778 40.3923 9.6416 40.3932 9.50427C40.3979 8.86213 40.396 8.22 40.397 7.57787C40.397 7.486 40.4025 7.39687 40.5336 7.39967C40.9969 7.4108 41.464 7.383 41.9217 7.43867C42.634 7.5268 42.8942 7.9388 42.8371 8.65333Z" fill="#0059AE"/>
<path d="M55.1802 6.57906C55.0529 6.56143 54.9209 6.57535 54.7917 6.57535C54.6139 6.57535 54.4875 6.64959 54.3883 6.80268C53.999 7.40775 53.6002 8.00628 53.2043 8.60662C53.1229 8.73008 53.0396 8.85162 52.9357 9.00568C52.8645 8.90268 52.8177 8.83675 52.7738 8.76902C52.4162 8.21595 52.0614 7.66202 51.702 7.11075C51.3248 6.53081 51.3229 6.52895 50.6153 6.57535C50.5208 6.58184 50.386 6.61432 50.3504 6.67835C50.3167 6.73775 50.3701 6.86948 50.4206 6.94655C51.0356 7.88188 51.6618 8.81082 52.2729 9.74895C52.3488 9.86588 52.3965 10.0217 52.3975 10.1609C52.4077 10.9933 52.3975 11.8267 52.4022 12.6599C52.405 13.2473 52.2674 13.3243 53.0686 13.3049C53.3475 13.2984 53.4195 13.2251 53.4205 12.9514C53.4224 12.0104 53.4195 11.0685 53.428 10.1275C53.4289 10.0199 53.4655 9.90022 53.5225 9.80928C53.8034 9.36848 54.0972 8.93608 54.3865 8.50088C54.7244 7.99235 55.066 7.48568 55.3983 6.97342C55.4526 6.88995 55.5228 6.73122 55.4882 6.69322C55.4226 6.62082 55.2897 6.59484 55.1802 6.57906Z" fill="#0059AE"/>
<path d="M62.6008 7.12088C63.0894 7.61921 63.3337 8.29195 63.3337 9.16608V13.2973H61.5824V9.38141C61.5824 8.47941 61.0526 7.99501 60.2383 7.99501C59.3285 7.99501 58.7454 8.54715 58.7454 9.66348V13.2973H56.9941V3.87769H58.7454V7.32228C59.1666 6.68941 59.8452 6.38038 60.7681 6.38038C61.515 6.38038 62.1253 6.62258 62.6008 7.12088Z" fill="#FF6C00"/>
<path d="M68.0575 13.4855C67.0533 13.4855 66.1978 13.1487 65.5061 12.4629C64.8135 11.7762 64.4746 10.929 64.4746 9.93325C64.4746 8.93759 64.8144 8.10332 65.5061 7.41665C66.1987 6.72999 67.0533 6.38013 68.0575 6.38013C69.0617 6.38013 69.9175 6.72999 70.6089 7.41665C71.3016 8.10332 71.6547 8.93759 71.6547 9.93325C71.6547 10.929 71.3016 11.7771 70.6089 12.4629C69.9175 13.1496 69.0617 13.4855 68.0575 13.4855ZM68.0575 11.7901C68.5871 11.7901 69.0214 11.6147 69.3745 11.2649C69.7275 10.9151 69.9041 10.4706 69.9041 9.93232C69.9041 9.39412 69.7275 8.94965 69.3745 8.59979C69.0214 8.24999 68.5871 8.07459 68.0575 8.07459C67.5279 8.07459 67.0935 8.24999 66.7406 8.59979C66.4009 8.94965 66.2249 9.39412 66.2249 9.93232C66.2249 10.4706 66.4018 10.9151 66.7406 11.2649C67.0935 11.6157 67.5279 11.7901 68.0575 11.7901Z" fill="#FF6C00"/>
<path d="M82.9625 9.15285V13.2981H81.2112V9.27352C81.2112 8.46619 80.7904 7.99479 80.0715 7.99479C79.27 7.99479 78.8089 8.53299 78.8089 9.51572V13.2971H77.0576V9.27352C77.0576 8.46619 76.6361 7.99479 75.9172 7.99479C75.1433 7.99479 74.6419 8.53299 74.6419 9.51572V13.2971H72.8906V6.56851H74.6419V7.28212C75.0486 6.67612 75.6729 6.38013 76.5287 6.38013C77.357 6.38013 77.9813 6.70305 78.3746 7.34892C78.823 6.70305 79.5016 6.38013 80.397 6.38013C81.9583 6.38013 82.9625 7.47045 82.9625 9.15285Z" fill="#FF6C00"/>
<path d="M85.936 10.6474C86.1676 11.4955 86.8046 11.9122 87.8503 11.9122C88.5155 11.9122 89.0317 11.683 89.37 11.2394L90.7816 12.0467C90.1164 13.0025 89.1264 13.4869 87.8228 13.4869C86.6965 13.4869 85.8004 13.1501 85.1218 12.4773C84.4432 11.8045 84.1035 10.9564 84.1035 9.93381C84.1035 8.92421 84.4432 8.07694 85.1077 7.40421C85.7735 6.71748 86.6421 6.38159 87.6866 6.38159C88.678 6.38159 89.5049 6.71841 90.1433 7.40421C90.795 8.09088 91.1206 8.92514 91.1206 9.93381C91.1206 10.163 91.0937 10.3913 91.0535 10.6474H85.936ZM89.37 9.30094C89.1673 8.38594 88.4887 7.94241 87.6872 7.94241C86.7502 7.94241 86.1132 8.44074 85.9091 9.30188H89.37V9.30094Z" fill="#FF6C00"/>
<path d="M16.7398 12.8523L16.0565 12.0097C15.9797 11.9151 15.8543 11.9151 15.7776 12.0097L12.7599 15.7317L11.1565 13.7543C11.0797 13.6596 10.9543 13.6596 10.8776 13.7543L10.1943 14.5969C10.1175 14.6925 10.1175 14.8465 10.1943 14.9411L12.6204 17.9264C12.6972 18.021 12.8226 18.021 12.8994 17.9264L16.7398 13.1966C16.8174 13.1019 16.8174 12.9479 16.7398 12.8523Z" fill="#0059AE"/>
<path d="M9.78987 12.8867C9.88626 12.7679 10.0004 12.6714 10.1231 12.5869C9.50533 11.6145 8.9521 10.5955 8.51406 9.51081C8.0105 8.26174 8.09568 6.92268 8.75369 5.74142C9.44351 4.5026 10.6397 3.64703 12.0344 3.39369C12.2141 3.36121 12.4257 3.34451 12.6484 3.32688C12.7485 3.31945 12.8478 3.3111 12.947 3.30183C15.2683 3.35472 17.1899 5.03061 17.5278 7.30968C17.6607 8.20608 17.4604 9.08761 16.8361 10.3524C16.7724 10.4805 16.7041 10.6057 16.6377 10.7319C16.8305 10.8313 17.0055 10.9677 17.1468 11.1421L17.6036 11.7054C17.744 11.4474 17.8816 11.1876 18.0117 10.9241C18.6024 9.72888 19.0282 8.50394 18.8232 7.12128C18.3917 4.20751 15.8869 2.03145 12.8946 2.00269C12.5286 2.03887 12.1588 2.05094 11.7985 2.11589C8.24449 2.76175 5.88111 6.48101 7.29818 9.99334C7.8149 11.2739 8.47573 12.4598 9.21892 13.5929L9.78987 12.8867Z" fill="#FF6C00"/>
<path d="M12.8786 6.42065L10.7323 7.70961L10.7305 10.2494L12.4546 10.2503L12.4555 8.64308H13.3719L13.371 10.2503L15.0221 10.2513L15.023 7.71141L12.8786 6.42065Z" fill="#FF6C00"/>
<path d="M10.0312 7.75435L12.8786 5.62378L15.7268 7.75435" fill="#FF6C00"/>
</svg>
