<svg width="24" height="25" viewBox="0 0 24 25" fill="none" xmlns="http://www.w3.org/2000/svg">
<path d="M20.4947 4.95822L15.0005 20.8304C14.9487 20.9799 14.8511 21.1092 14.7214 21.1998C14.5918 21.2904 14.4368 21.3377 14.2787 21.335C14.1206 21.3322 13.9673 21.2796 13.8409 21.1845C13.7145 21.0894 13.6214 20.9568 13.5749 20.8057L11.3666 13.6286C11.3306 13.5116 11.2666 13.4053 11.1801 13.3188C11.0936 13.2323 10.9872 13.1683 10.8703 13.1323L3.69319 10.9239C3.54202 10.8774 3.40942 10.7843 3.31436 10.6579C3.21929 10.5315 3.16662 10.3783 3.16387 10.2201C3.16112 10.062 3.20844 9.90704 3.29906 9.77741C3.38968 9.64778 3.51896 9.55011 3.66842 9.49837L19.5406 4.00415C19.6736 3.95811 19.8169 3.95043 19.9541 3.98198C20.0912 4.01353 20.2168 4.08304 20.3163 4.18256C20.4158 4.28209 20.4853 4.40761 20.5169 4.54477C20.5484 4.68194 20.5407 4.82522 20.4947 4.95822V4.95822Z" stroke="black" stroke-opacity="0.65" stroke-width="1.5" stroke-linecap="round" stroke-linejoin="round"/>
</svg>
