<svg width="20" height="21" viewBox="0 0 20 21" fill="none" xmlns="http://www.w3.org/2000/svg">
<path d="M8.33333 2.50977V4.3931L10 5.50143V4.17643H18.3333V16.6764H14.1667V18.3431H20V2.50977H8.33333ZM6.25 5.00977L0 9.17643V18.3431H12.5V9.17643L6.25 5.00977ZM11.6667 5.8431V6.6181L13.0083 7.50977H13.3333V5.8431H11.6667ZM15 5.8431V7.50977H16.6667V5.8431H15ZM6.25 7.0931L10.8333 10.0098V16.6764H8.33333V11.6764H4.16667V16.6764H1.66667V10.0098L6.25 7.0931ZM15 9.17643V10.8431H16.6667V9.17643H15ZM15 12.5098V14.1764H16.6667V12.5098H15Z" fill="#4A4A4A"/>
</svg>
