<svg width="24" height="24" viewBox="0 0 24 24" fill="none" xmlns="http://www.w3.org/2000/svg">
<path d="M19.5 3C17.8425 3 16.5 4.3425 16.5 6H15V7.5H19.5V6H18C18 5.10675 18.6068 4.5 19.5 4.5C20.3932 4.5 21 5.10675 21 6V10.5H0.75V12H1.641L2.7885 17.6955V17.7188C2.87561 18.1012 3.0592 18.4549 3.32178 18.7462C3.58436 19.0375 3.91717 19.2568 4.2885 19.383L3.75 21H5.25L5.742 19.5H18.258L18.75 21H20.25L19.7108 19.383C20.496 19.143 21.1057 18.513 21.2812 17.7188V17.6955L22.3597 12H23.25V10.5H22.5V6C22.5 4.3425 21.1575 3 19.5 3ZM3.16425 12H20.859L19.8045 17.4142C19.7167 17.739 19.4415 18 19.0545 18H5.016C4.614 18 4.34175 17.7338 4.266 17.3903L3.16425 12Z" fill="black" fill-opacity="0.65"/>
</svg>
