<svg width="16" height="17" viewBox="0 0 16 17" fill="none" xmlns="http://www.w3.org/2000/svg">
<path fill-rule="evenodd" clip-rule="evenodd" d="M12.1658 9.43977C12.6952 8.36708 13 7.36191 13 6.5C13 3.73858 10.7614 1.5 8 1.5C5.23858 1.5 3 3.73858 3 6.5C3 7.36191 3.3048 8.36708 3.83423 9.43977C4.35825 10.5015 5.06754 11.5601 5.79425 12.51C6.51868 13.457 7.24558 14.2768 7.79232 14.8605C7.86497 14.938 7.93434 15.0113 8 15.0801C8.06566 15.0113 8.13503 14.938 8.20768 14.8605C8.75442 14.2768 9.48132 13.457 10.2058 12.51C10.9325 11.5601 11.6418 10.5015 12.1658 9.43977ZM8 16.5C8 16.5 14 10.8137 14 6.5C14 3.18629 11.3137 0.5 8 0.5C4.68629 0.5 2 3.18629 2 6.5C2 10.8137 8 16.5 8 16.5Z" fill="#242933"/>
<path fill-rule="evenodd" clip-rule="evenodd" d="M8 8.5C9.10457 8.5 10 7.60457 10 6.5C10 5.39543 9.10457 4.5 8 4.5C6.89543 4.5 6 5.39543 6 6.5C6 7.60457 6.89543 8.5 8 8.5ZM8 9.5C9.65685 9.5 11 8.15685 11 6.5C11 4.84315 9.65685 3.5 8 3.5C6.34315 3.5 5 4.84315 5 6.5C5 8.15685 6.34315 9.5 8 9.5Z" fill="#242933"/>
</svg>
