<svg width="20" height="21" viewBox="0 0 20 21" fill="none" xmlns="http://www.w3.org/2000/svg">
<g clip-path="url(#clip0_14823_134481)">
<path d="M10 20.8438C7.32891 20.8438 4.81766 19.8036 2.92891 17.9148C1.04016 16.0261 0 13.5148 0 10.8438C0 8.17266 1.0402 5.66145 2.92891 3.77266C4.81762 1.88387 7.32891 0.84375 10 0.84375C12.6711 0.84375 15.1823 1.88391 17.0711 3.77266C18.9598 5.66141 20 8.17266 20 10.8438C20 13.5148 18.9598 16.0261 17.0711 17.9148C15.1824 19.8036 12.6711 20.8438 10 20.8438ZM10 2.09375C5.17523 2.09375 1.25 6.01898 1.25 10.8438C1.25 15.6685 5.17523 19.5938 10 19.5938C14.8248 19.5938 18.75 15.6685 18.75 10.8438C18.75 6.01898 14.8248 2.09375 10 2.09375Z" fill="#242933"/>
<path d="M10 10.2188C9.13844 10.2188 8.4375 9.51781 8.4375 8.65625C8.4375 7.79469 9.13844 7.09375 10 7.09375C10.8616 7.09375 11.5625 7.79469 11.5625 8.65625C11.5625 9.00141 11.8423 9.28125 12.1875 9.28125C12.5327 9.28125 12.8125 9.00141 12.8125 8.65625C12.8125 7.32027 11.8759 6.19969 10.625 5.91461V5.21875C10.625 4.87359 10.3452 4.59375 10 4.59375C9.6548 4.59375 9.375 4.87359 9.375 5.21875V5.91461C8.12414 6.19969 7.1875 7.32027 7.1875 8.65625C7.1875 10.2071 8.44918 11.4688 10 11.4688C10.8616 11.4688 11.5625 12.1697 11.5625 13.0312C11.5625 13.8928 10.8616 14.5938 10 14.5938C9.13844 14.5938 8.4375 13.8928 8.4375 13.0312C8.4375 12.6861 8.1577 12.4062 7.8125 12.4062C7.4673 12.4062 7.1875 12.6861 7.1875 13.0312C7.1875 14.3672 8.12414 15.4878 9.375 15.7729V16.4688C9.375 16.8139 9.6548 17.0938 10 17.0938C10.3452 17.0938 10.625 16.8139 10.625 16.4688V15.7729C11.8759 15.4878 12.8125 14.3672 12.8125 13.0312C12.8125 11.4804 11.5508 10.2188 10 10.2188Z" fill="#242933"/>
</g>
<defs>
<clipPath id="clip0_14823_134481">
<rect width="20" height="20" fill="white" transform="translate(0 0.84375)"/>
</clipPath>
</defs>
</svg>
