<svg width="16" height="17" viewBox="0 0 16 17" fill="none" xmlns="http://www.w3.org/2000/svg">
<path fill-rule="evenodd" clip-rule="evenodd" d="M8.51496 1.51896C8.34401 1.50635 8.17225 1.5 8 1.5V0.5C8.19685 0.5 8.39314 0.507262 8.58852 0.521672L8.51496 1.51896ZM10.5193 1.96905C10.1985 1.84533 9.86912 1.7454 9.53371 1.67008L9.75282 0.694382C10.1361 0.780463 10.5126 0.894665 10.8792 1.03605L10.5193 1.96905ZM11.889 2.67971C11.7458 2.58402 11.5994 2.49388 11.4503 2.40939L11.9432 1.5393C12.1136 1.63586 12.2809 1.73888 12.4446 1.84824C12.6082 1.9576 12.7674 2.0727 12.9219 2.19322L12.3066 2.98158C12.1715 2.87612 12.0322 2.77541 11.889 2.67971ZM13.7231 4.46934C13.5252 4.18829 13.3068 3.92218 13.0697 3.67321L13.794 2.98368C14.0649 3.26821 14.3145 3.57233 14.5407 3.89353L13.7231 4.46934ZM14.4672 5.82122C14.4012 5.66208 14.3296 5.50583 14.2526 5.35271L15.1458 4.90311C15.2339 5.0781 15.3157 5.25667 15.391 5.43853C15.4664 5.62039 15.5348 5.80453 15.5962 5.99054L14.6467 6.30423C14.5929 6.14147 14.5331 5.98035 14.4672 5.82122ZM14.9979 8.32822C14.9895 7.98455 14.9557 7.64197 14.8969 7.30326L15.8822 7.13231C15.9494 7.51939 15.988 7.91092 15.9976 8.30367L14.9979 8.32822ZM14.8655 9.86563C14.8991 9.6967 14.9264 9.52699 14.9474 9.35687L15.9398 9.47929C15.9159 9.67372 15.8847 9.86766 15.8463 10.0607C15.8079 10.2538 15.7625 10.4449 15.7102 10.6337L14.7464 10.367C14.7922 10.2018 14.8319 10.0346 14.8655 9.86563ZM13.914 12.245C14.0979 11.9546 14.2602 11.651 14.3995 11.3367L15.3137 11.7419C15.1545 12.1011 14.969 12.4481 14.7588 12.78L13.914 12.245ZM12.9497 13.4497C13.0715 13.328 13.1885 13.202 13.3005 13.0722L14.0577 13.7254C13.9297 13.8737 13.796 14.0177 13.6569 14.1569L12.9497 13.4497Z" fill="#242933"/>
<path fill-rule="evenodd" clip-rule="evenodd" d="M8 1.5C6.84885 1.5 5.71545 1.7839 4.70022 2.32655C3.68499 2.8692 2.81926 3.65386 2.17971 4.61101C1.54017 5.56816 1.14654 6.66827 1.03371 7.81388C0.920876 8.95949 1.09232 10.1153 1.53285 11.1788C1.97337 12.2423 2.66939 13.1808 3.55925 13.9111C4.44911 14.6414 5.50533 15.1409 6.63437 15.3655C7.76341 15.5901 8.93041 15.5327 10.032 15.1986C11.1336 14.8644 12.1358 14.2637 12.9497 13.4497L13.6569 14.1569C12.7266 15.0871 11.5812 15.7736 10.3223 16.1555C9.06332 16.5374 7.72961 16.6029 6.43928 16.3463C5.14895 16.0896 3.94183 15.5187 2.92486 14.6841C1.90788 13.8495 1.11243 12.7769 0.608966 11.5615C0.105504 10.346 -0.0904279 9.02514 0.0385242 7.71586C0.167476 6.40659 0.617333 5.14933 1.34825 4.05544C2.07916 2.96155 3.06857 2.0648 4.22883 1.44463C5.38909 0.824457 6.68439 0.5 8 0.5V1.5Z" fill="#242933"/>
<path fill-rule="evenodd" clip-rule="evenodd" d="M7.5 3.5C7.77614 3.5 8 3.72386 8 4V9.20984L11.2481 11.0659C11.4878 11.2029 11.5711 11.5083 11.4341 11.7481C11.2971 11.9878 10.9917 12.0711 10.7519 11.9341L7.25193 9.93412C7.09615 9.8451 7 9.67943 7 9.5V4C7 3.72386 7.22386 3.5 7.5 3.5Z" fill="#242933"/>
</svg>
