<svg width="16" height="16" viewBox="0 0 16 16" fill="none" xmlns="http://www.w3.org/2000/svg">
<path d="M3.38108 15.3426L3.38118 15.343C3.38074 15.3432 3.38034 15.3434 3.37997 15.3435C3.37863 15.3429 3.37671 15.3417 3.37434 15.3399C3.36818 15.335 3.3626 15.3278 3.35925 15.3193C3.35652 15.3123 3.35373 15.301 3.35708 15.282L3.35713 15.2817L4.18713 10.5517L4.23341 10.2879L4.03952 10.1032L0.516865 6.74755C0.516836 6.74752 0.516806 6.74749 0.516776 6.74746C0.507321 6.73841 0.503661 6.73056 0.501698 6.72224C0.499229 6.71178 0.499131 6.69748 0.503593 6.6825C0.508071 6.66747 0.514813 6.65936 0.517641 6.65674C0.51774 6.65665 0.517829 6.65656 0.517918 6.65646C0.518575 6.65578 0.519246 6.65509 0.524264 6.65438L0.524996 6.65428L5.423 5.95828L5.68141 5.92156L5.79902 5.68855L7.98295 1.36169C7.98698 1.35369 7.99039 1.34956 7.99205 1.34776C7.99377 1.3459 7.99488 1.34518 7.99532 1.34492C7.99622 1.34437 7.99778 1.34375 8.00015 1.34375C8.00253 1.34375 8.00408 1.34437 8.00499 1.34492C8.00543 1.34518 8.00654 1.3459 8.00825 1.34776C8.00992 1.34956 8.01332 1.35369 8.01736 1.36169L10.2013 5.68855L10.3189 5.92156L10.5773 5.95828L15.4753 6.65428L15.476 6.65438C15.4811 6.65509 15.4817 6.65578 15.4823 6.65644C15.4824 6.65653 15.4825 6.65662 15.4826 6.6567C15.4854 6.65928 15.4921 6.66731 15.4965 6.68221C15.5009 6.69705 15.5008 6.71122 15.4983 6.72159C15.4964 6.72983 15.4927 6.73778 15.483 6.74703L15.4827 6.74727L11.9607 10.1033L11.7669 10.288L11.8132 10.5517L12.6432 15.2817L12.6432 15.282C12.6466 15.301 12.6438 15.3123 12.6411 15.3193C12.6377 15.3278 12.6321 15.335 12.626 15.3399C12.6236 15.3417 12.6217 15.3429 12.6203 15.3435C12.6196 15.3432 12.6188 15.3429 12.6179 15.3424L8.22715 13.0865L7.9986 12.9691L7.77008 13.0866L3.38108 15.3426Z" stroke="#DBDBDB"/>
</svg>
