<svg width="22" height="22" viewBox="0 0 22 22" fill="none" xmlns="http://www.w3.org/2000/svg">
<path d="M2.75 5.50065H19.25M5.5 1.83398L2.75 5.50065V18.334C2.75 18.8202 2.94315 19.2865 3.28697 19.6303C3.63079 19.9742 4.0971 20.1673 4.58333 20.1673H17.4167C17.9029 20.1673 18.3692 19.9742 18.713 19.6303C19.0568 19.2865 19.25 18.8202 19.25 18.334V5.50065L16.5 1.83398H5.5Z" stroke="#4A4A4A" stroke-width="2" stroke-linecap="round" stroke-linejoin="round"/>
<path d="M14.6666 9.16797C14.6666 10.1404 14.2803 11.0731 13.5927 11.7607C12.9051 12.4483 11.9724 12.8346 11 12.8346C10.0275 12.8346 9.09489 12.4483 8.40725 11.7607C7.71962 11.0731 7.33331 10.1404 7.33331 9.16797" stroke="#4A4A4A" stroke-width="2" stroke-linecap="round" stroke-linejoin="round"/>
</svg>
