<svg
    xmlns="http://www.w3.org/2000/svg"
    viewBox="0 0 18 18"
    id="vector">
    <path
        id="path"
        d="M 9.4 13.5 L 10.75 13.5 C 14.202 13.5 17 10.702 17 7.25 C 17 3.798 14.202 1 10.75 1 L 7.25 1 C 3.798 1 1 3.798 1 7.25 C 1 11.28 3.298 13.69 5.715 15.143 C 6.928 15.872 8.15 16.343 9.073 16.631 C 9.187 16.667 9.296 16.7 9.4 16.73 L 9.4 13.5 Z M 10.4 18 C 10.4 18 10.018 17.936 9.4 17.768 C 6.795 17.063 0 14.525 0 7.25 C 0 3.246 3.246 0 7.25 0 L 10.75 0 C 14.754 0 18 3.246 18 7.25 C 18 11.254 14.754 14.5 10.75 14.5 L 10.4 14.5 L 10.4 18 Z"
        fill="#242933"
        fill-rule="evenodd"/>
    <path
        id="path_1"
        d="M 10.845 3.241 C 11.361 3.583 11.748 4.138 11.748 4.881 C 11.748 5.67 11.431 6.25 10.915 6.605 C 10.711 6.743 10.487 6.846 10.25 6.912 L 10.25 7.678 C 10.25 7.877 10.171 8.068 10.03 8.208 C 9.89 8.349 9.699 8.428 9.5 8.428 C 9.301 8.428 9.11 8.349 8.97 8.208 C 8.829 8.068 8.75 7.877 8.75 7.678 L 8.75 6.279 C 8.75 6.089 8.822 5.906 8.952 5.767 C 9.082 5.628 9.26 5.544 9.45 5.531 C 9.727 5.513 9.937 5.457 10.063 5.37 C 10.115 5.336 10.156 5.289 10.184 5.234 C 10.213 5.174 10.248 5.067 10.248 4.88 C 10.248 4.724 10.188 4.604 10.015 4.489 C 9.819 4.359 9.504 4.263 9.126 4.252 C 8.752 4.24 8.388 4.313 8.12 4.442 C 7.853 4.572 7.754 4.718 7.726 4.825 C 7.702 4.921 7.659 5.011 7.6 5.089 C 7.541 5.168 7.467 5.234 7.382 5.285 C 7.297 5.335 7.203 5.368 7.106 5.382 C 7.008 5.396 6.909 5.39 6.814 5.366 C 6.718 5.341 6.628 5.298 6.55 5.239 C 6.471 5.18 6.405 5.106 6.354 5.021 C 6.304 4.936 6.271 4.842 6.257 4.745 C 6.244 4.647 6.249 4.548 6.274 4.452 C 6.446 3.782 6.947 3.344 7.466 3.093 C 7.987 2.84 8.598 2.734 9.173 2.752 C 9.745 2.77 10.354 2.914 10.845 3.241 L 10.845 3.241 Z"
        fill="#242933"
        fill-rule="evenodd"/>
    <path
        id="path_2"
        d="M 10.5 10.5 C 10.5 10.765 10.395 11.02 10.207 11.207 C 10.02 11.395 9.765 11.5 9.5 11.5 C 9.235 11.5 8.98 11.395 8.793 11.207 C 8.605 11.02 8.5 10.765 8.5 10.5 C 8.5 10.235 8.605 9.98 8.793 9.793 C 8.98 9.605 9.235 9.5 9.5 9.5 C 9.765 9.5 10.02 9.605 10.207 9.793 C 10.395 9.98 10.5 10.235 10.5 10.5 L 10.5 10.5 Z"
        fill="#242933"/>
</svg>
