<svg width="16" height="17" viewBox="0 0 16 17" fill="none" xmlns="http://www.w3.org/2000/svg">
<path d="M11.5337 7.5H15.4662C15.6781 7.5 15.7939 7.74721 15.6582 7.91005L13.692 10.2695C13.592 10.3895 13.4078 10.3895 13.3079 10.2695L11.3416 7.91005C11.2059 7.74721 11.3217 7.5 11.5337 7.5Z" fill="#007AFF"/>
<path d="M0.533681 9.5H4.46616C4.67812 9.5 4.79391 9.25279 4.65822 9.08995L2.69198 6.73047C2.59203 6.61053 2.40781 6.61053 2.30787 6.73047L0.341625 9.08995C0.205932 9.25279 0.321722 9.5 0.533681 9.5Z" fill="#007AFF"/>
<path fill-rule="evenodd" clip-rule="evenodd" d="M7.99992 3.5C6.44743 3.5 5.06049 4.20697 4.14261 5.31839C3.96677 5.53131 3.65161 5.56137 3.43869 5.38552C3.22578 5.20968 3.19572 4.89453 3.37156 4.68161C4.47126 3.35003 6.13654 2.5 7.99992 2.5C10.9416 2.5 13.3879 4.6165 13.901 7.40967C13.9065 7.4397 13.9118 7.46981 13.9169 7.5H12.9C12.437 5.21778 10.4185 3.5 7.99992 3.5ZM3.09984 9.5C3.56285 11.7822 5.58129 13.5 7.99992 13.5C9.55241 13.5 10.9394 12.793 11.8572 11.6816C12.0331 11.4687 12.3482 11.4386 12.5611 11.6145C12.7741 11.7903 12.8041 12.1055 12.6283 12.3184C11.5286 13.65 9.8633 14.5 7.99992 14.5C5.05822 14.5 2.6119 12.3835 2.09884 9.59033C2.09332 9.5603 2.08803 9.53019 2.08296 9.5H3.09984Z" fill="#007AFF"/>
</svg>
