<svg width="20" height="21" viewBox="0 0 20 21" fill="none" xmlns="http://www.w3.org/2000/svg">
<g clip-path="url(#clip0_14823_134391)">
<path d="M16.6393 4.32113C15.1124 2.11137 12.6926 0.84375 10.0008 0.84375C7.30895 0.84375 4.88915 2.11137 3.36231 4.32113C1.84297 6.51973 1.49215 9.3032 2.422 11.7624C2.67071 12.4339 3.06606 13.0864 3.59426 13.6978L9.4684 20.5976C9.60126 20.7537 9.79591 20.8438 10.0008 20.8438C10.2057 20.8438 10.4003 20.7538 10.5332 20.5976L16.4057 13.6997C16.9362 13.0848 17.3311 12.433 17.5777 11.7668C18.5094 9.3032 18.1586 6.51973 16.6393 4.32113ZM16.2682 11.2771C16.078 11.7911 15.7675 12.2992 15.3458 12.788C15.3446 12.7892 15.3434 12.7904 15.3425 12.7918L10.0008 19.0659L4.65579 12.7878C4.23434 12.2995 3.92383 11.7913 3.73176 11.2724C2.96278 9.23863 3.25462 6.93723 4.51266 5.11648C5.77465 3.28992 7.77512 2.24234 10.0008 2.24234C12.2264 2.24234 14.2266 3.28988 15.4887 5.11648C16.747 6.93723 17.039 9.23863 16.2682 11.2771Z" fill="#242933"/>
<path d="M10.0001 4.99219C7.84086 4.99219 6.08398 6.74883 6.08398 8.90828C6.08398 11.0677 7.84063 12.8244 10.0001 12.8244C12.1595 12.8244 13.9162 11.0677 13.9162 8.90828C13.9162 6.74906 12.1593 4.99219 10.0001 4.99219ZM10.0001 11.4257C8.61195 11.4257 7.48258 10.2964 7.48258 8.90824C7.48258 7.52012 8.61195 6.39074 10.0001 6.39074C11.3882 6.39074 12.5176 7.52012 12.5176 8.90824C12.5176 10.2964 11.3882 11.4257 10.0001 11.4257Z" fill="#242933"/>
</g>
<defs>
<clipPath id="clip0_14823_134391">
<rect width="20" height="20" fill="white" transform="translate(0 0.84375)"/>
</clipPath>
</defs>
</svg>
