<svg width="17" height="16" viewBox="0 0 17 16" fill="none" xmlns="http://www.w3.org/2000/svg">
<mask id="path-1-inside-1_14074_1968" fill="white">
<path fill-rule="evenodd" clip-rule="evenodd" d="M8.57812 15C12.4441 15 15.5781 11.866 15.5781 8C15.5781 4.13401 12.4441 1 8.57812 1C4.71213 1 1.57812 4.13401 1.57812 8C1.57812 11.866 4.71213 15 8.57812 15ZM8.57812 16C12.9964 16 16.5781 12.4183 16.5781 8C16.5781 3.58172 12.9964 0 8.57812 0C4.15985 0 0.578125 3.58172 0.578125 8C0.578125 12.4183 4.15985 16 8.57812 16Z"/>
</mask>
<path fill-rule="evenodd" clip-rule="evenodd" d="M8.57812 15C12.4441 15 15.5781 11.866 15.5781 8C15.5781 4.13401 12.4441 1 8.57812 1C4.71213 1 1.57812 4.13401 1.57812 8C1.57812 11.866 4.71213 15 8.57812 15ZM8.57812 16C12.9964 16 16.5781 12.4183 16.5781 8C16.5781 3.58172 12.9964 0 8.57812 0C4.15985 0 0.578125 3.58172 0.578125 8C0.578125 12.4183 4.15985 16 8.57812 16Z" fill="white"/>
<path d="M14.5781 8C14.5781 11.3137 11.8918 14 8.57812 14V16C12.9964 16 16.5781 12.4183 16.5781 8H14.5781ZM8.57812 2C11.8918 2 14.5781 4.68629 14.5781 8H16.5781C16.5781 3.58172 12.9964 0 8.57812 0V2ZM2.57812 8C2.57812 4.68629 5.26442 2 8.57812 2V0C4.15985 0 0.578125 3.58172 0.578125 8H2.57812ZM8.57812 14C5.26442 14 2.57812 11.3137 2.57812 8H0.578125C0.578125 12.4183 4.15985 16 8.57812 16V14ZM15.5781 8C15.5781 11.866 12.4441 15 8.57812 15V17C13.5487 17 17.5781 12.9706 17.5781 8H15.5781ZM8.57812 1C12.4441 1 15.5781 4.13401 15.5781 8H17.5781C17.5781 3.02944 13.5487 -1 8.57812 -1V1ZM1.57812 8C1.57812 4.13401 4.71213 1 8.57812 1V-1C3.60756 -1 -0.421875 3.02944 -0.421875 8H1.57812ZM8.57812 15C4.71213 15 1.57812 11.866 1.57812 8H-0.421875C-0.421875 12.9706 3.60756 17 8.57812 17V15Z" fill="#D7D7D7" mask="url(#path-1-inside-1_14074_1968)"/>
</svg>
