<svg width="13" height="14" viewBox="0 0 13 14" fill="none" xmlns="http://www.w3.org/2000/svg">
    <path
        d="M6.5 13.0943C5.67901 13.0951 4.86592 12.934 4.10726 12.6202C3.3486 12.3064 2.65928 11.8461 2.07875 11.2656C1.49822 10.685 1.03788 9.9957 0.724081 9.23704C0.410281 8.47839 0.249181 7.66529 0.250003 6.8443V6.7193C0.275008 5.49393 0.659562 4.30293 1.35587 3.29431C2.05218 2.2857 3.02954 1.50395 4.16648 1.04621C5.30342 0.58848 6.5498 0.474953 7.75073 0.71974C8.95166 0.964528 10.0542 1.55684 10.9213 2.42305C11.7961 3.29714 12.3919 4.41111 12.6334 5.62398C12.8748 6.83684 12.7511 8.09408 12.2777 9.23657C11.8044 10.3791 11.0027 11.3554 9.97424 12.0422C8.94576 12.7289 7.73667 13.095 6.5 13.0943ZM6.5 7.72555L8.11875 9.3443L9 8.46305L7.38125 6.8443L9 5.22555L8.11875 4.3443L6.5 5.96305L4.88125 4.3443L4 5.22555L5.61875 6.8443L4 8.46305L4.88125 9.3443L6.5 7.72618V7.72555Z"
        fill="#898989" />
</svg>
