<svg width="16" height="17" viewBox="0 0 16 17" fill="none" xmlns="http://www.w3.org/2000/svg">
<path fill-rule="evenodd" clip-rule="evenodd" d="M8 4.34375C10.24 4.34375 12 6.10375 12 8.34375C12 10.5837 10.24 12.3438 8 12.3438C5.76 12.3438 4 10.5837 4 8.34375C4 6.10375 5.76 4.34375 8 4.34375ZM8 0.34375C12.4 0.34375 16 3.94375 16 8.34375C16 12.7438 12.4 16.3438 8 16.3438C3.6 16.3438 0 12.7438 0 8.34375C0 3.94375 3.6 0.34375 8 0.34375ZM8 14.7438C11.52 14.7438 14.4 11.8638 14.4 8.34375C14.4 4.82375 11.52 1.94375 8 1.94375C4.48 1.94375 1.6 4.82375 1.6 8.34375C1.6 11.8638 4.48 14.7438 8 14.7438Z" fill="#007AFF"/>
</svg>
