<svg width="26" height="27" viewBox="0 0 26 27" fill="none" xmlns="http://www.w3.org/2000/svg">
<path d="M13.5745 22.0193L21.8044 13.7895C23.8265 11.7673 24.1249 8.44058 22.2112 6.31545C21.7319 5.78161 21.1488 5.35102 20.4976 5.04996C19.8463 4.74891 19.1406 4.5837 18.4233 4.56441C17.7061 4.54512 16.9925 4.67217 16.326 4.93779C15.6596 5.20341 15.0542 5.60203 14.5468 6.10935L13 7.65618L11.6645 6.32065C9.64232 4.29849 6.31558 4.00016 4.19045 5.9138C3.65661 6.39313 3.22602 6.97621 2.92496 7.62746C2.62391 8.2787 2.4587 8.98446 2.43941 9.70166C2.42012 10.4189 2.54716 11.1325 2.81279 11.799C3.07841 12.4655 3.47703 13.0708 3.98435 13.5782L12.4255 22.0193C12.5779 22.1717 12.7845 22.2573 13 22.2573C13.2155 22.2573 13.4222 22.1717 13.5745 22.0193V22.0193Z" stroke="#363636" stroke-width="1.5" stroke-linecap="round" stroke-linejoin="round"/>
</svg>
