<svg width="24" height="25" viewBox="0 0 24 25" fill="none" xmlns="http://www.w3.org/2000/svg">
<path d="M20.25 17.1073V7.89429C20.7618 7.76314 21.2298 7.49889 21.6064 7.12838C21.9831 6.75787 22.2549 6.29429 22.3945 5.78472C22.534 5.27514 22.5362 4.73771 22.4009 4.22701C22.2655 3.71631 21.9974 3.25051 21.6239 2.87692C21.2503 2.50333 20.7845 2.23526 20.2738 2.09991C19.7631 1.96456 19.2256 1.96677 18.7161 2.1063C18.2065 2.24583 17.7429 2.51773 17.3724 2.89437C17.0019 3.27101 16.7376 3.73899 16.6065 4.25079H7.39349C7.26234 3.73899 6.9981 3.27101 6.62759 2.89437C6.25708 2.51773 5.7935 2.24583 5.28392 2.1063C4.77435 1.96677 4.23692 1.96456 3.72622 2.09991C3.21551 2.23526 2.74972 2.50333 2.37613 2.87692C2.00254 3.25051 1.73446 3.71631 1.59912 4.22701C1.46377 4.73771 1.46597 5.27514 1.60551 5.78472C1.74504 6.29429 2.01693 6.75787 2.39358 7.12838C2.77022 7.49889 3.2382 7.76314 3.74999 7.89429V17.1073C3.2382 17.2384 2.77022 17.5027 2.39358 17.8732C2.01693 18.2437 1.74504 18.7073 1.60551 19.2169C1.46597 19.7264 1.46377 20.2639 1.59912 20.7746C1.73446 21.2853 2.00254 21.7511 2.37613 22.1247C2.74972 22.4982 3.21551 22.7663 3.72622 22.9017C4.23692 23.037 4.77435 23.0348 5.28392 22.8953C5.7935 22.7557 6.25708 22.4838 6.62759 22.1072C6.9981 21.7306 7.26234 21.2626 7.39349 20.7508H16.6065C16.7376 21.2626 17.0019 21.7306 17.3724 22.1072C17.7429 22.4838 18.2065 22.7557 18.7161 22.8953C19.2256 23.0348 19.7631 23.037 20.2738 22.9017C20.7845 22.7663 21.2503 22.4982 21.6239 22.1247C21.9974 21.7511 22.2655 21.2853 22.4009 20.7746C22.5362 20.2639 22.534 19.7264 22.3945 19.2169C22.2549 18.7073 21.9831 18.2437 21.6064 17.8732C21.2298 17.5027 20.7618 17.2384 20.25 17.1073ZM19.5 3.50079C19.7967 3.50079 20.0867 3.58876 20.3333 3.75358C20.58 3.91841 20.7723 4.15267 20.8858 4.42676C20.9993 4.70085 21.029 5.00245 20.9712 5.29342C20.9133 5.58439 20.7704 5.85167 20.5607 6.06145C20.3509 6.27123 20.0836 6.41409 19.7926 6.47197C19.5017 6.52984 19.2001 6.50014 18.926 6.38661C18.6519 6.27308 18.4176 6.08082 18.2528 5.83414C18.088 5.58747 18 5.29746 18 5.00079C18.0004 4.60309 18.1586 4.22179 18.4398 3.94057C18.721 3.65935 19.1023 3.50119 19.5 3.50079ZM2.99999 5.00079C2.99999 4.70412 3.08797 4.41411 3.25279 4.16743C3.41761 3.92076 3.65188 3.7285 3.92597 3.61497C4.20006 3.50144 4.50166 3.47173 4.79263 3.52961C5.0836 3.58749 5.35088 3.73035 5.56065 3.94013C5.77043 4.14991 5.91329 4.41718 5.97117 4.70815C6.02905 4.99912 5.99935 5.30072 5.88581 5.57481C5.77228 5.8489 5.58002 6.08317 5.33335 6.24799C5.08668 6.41281 4.79667 6.50079 4.49999 6.50079C4.10229 6.50039 3.72099 6.34223 3.43977 6.06101C3.15855 5.77979 3.00039 5.39849 2.99999 5.00079ZM4.49999 21.5008C4.20332 21.5008 3.91331 21.4128 3.66664 21.248C3.41997 21.0832 3.22771 20.8489 3.11418 20.5748C3.00064 20.3007 2.97094 19.9991 3.02882 19.7082C3.08669 19.4172 3.22956 19.1499 3.43933 18.9401C3.64911 18.7303 3.91639 18.5875 4.20736 18.5296C4.49833 18.4717 4.79993 18.5014 5.07402 18.615C5.34811 18.7285 5.58238 18.9208 5.7472 19.1674C5.91202 19.4141 5.99999 19.7041 5.99999 20.0008C5.9996 20.3985 5.84143 20.7798 5.56022 21.061C5.279 21.3422 4.8977 21.5004 4.49999 21.5008ZM16.6065 19.2508H7.39349C7.25915 18.7351 6.98969 18.2647 6.6129 17.8879C6.23611 17.5111 5.76564 17.2416 5.24999 17.1073V7.89429C5.7656 7.75987 6.23604 7.49039 6.61282 7.11361C6.98959 6.73683 7.25908 6.2664 7.39349 5.75079H16.6065C16.7408 6.26643 17.0103 6.73691 17.3871 7.11369C17.7639 7.49048 18.2343 7.75994 18.75 7.89429V17.1073C18.2343 17.2416 17.7638 17.511 17.387 17.8878C17.0102 18.2646 16.7408 18.7351 16.6065 19.2508ZM19.5 21.5008C19.2033 21.5008 18.9133 21.4128 18.6666 21.248C18.42 21.0832 18.2277 20.8489 18.1142 20.5748C18.0006 20.3007 17.9709 19.9991 18.0288 19.7082C18.0867 19.4172 18.2296 19.1499 18.4393 18.9401C18.6491 18.7303 18.9164 18.5875 19.2074 18.5296C19.4983 18.4717 19.7999 18.5014 20.074 18.615C20.3481 18.7285 20.5824 18.9208 20.7472 19.1674C20.912 19.4141 21 19.7041 21 20.0008C20.9994 20.3984 20.8412 20.7796 20.56 21.0608C20.2788 21.342 19.8976 21.5002 19.5 21.5008Z" fill="black" fill-opacity="0.65"/>
</svg>
